<svg xmlns="http://www.w3.org/2000/svg" width="512" height="512" fill="none"><path stroke="#1C1919" stroke-linecap="round" stroke-linejoin="round" stroke-width="36.571" d="M157.696 256.11v84.516m42.24-42.24h-84.48m69.815-132.827h-33.5a109.712 109.712 0 0 0-109.019 97.609l-15.067 135.68a83.491 83.491 0 0 0 157.622 46.555l13.166-26.331h108.654l13.166 26.331a83.49 83.49 0 0 0 98.302 42.644 83.495 83.495 0 0 0 59.32-89.236l-15.067-135.68"/><path stroke="#1C1919" stroke-linecap="round" stroke-linejoin="round" stroke-width="36.571" d="M316.124 319.488a9.07 9.07 0 1 1 18.139 0 9.072 9.072 0 0 1-5.448 8.899 9.079 9.079 0 0 1-7.207 0 9.078 9.078 0 0 1-4.932-5.255 9.072 9.072 0 0 1-.516-3.644M262.4 146.066c-12.836-2.267-12.836-20.663 0-22.893a116.153 116.153 0 0 0 93.55-89.6l.768-3.584c2.779-12.69 20.846-12.8 23.735-.11l.951 4.132a116.732 116.732 0 0 0 93.805 89.052c12.91 2.231 12.91 20.772 0 23.04a116.734 116.734 0 0 0-93.769 89.051l-.951 4.096c-2.889 12.654-20.955 12.581-23.735-.109l-.731-3.511a116.155 116.155 0 0 0-33.154-59.071c-16.675-15.958-37.727-26.55-60.469-30.493Z"/></svg>