<svg xmlns="http://www.w3.org/2000/svg" width="800" height="800" fill="none"><g fill="#1C1919" clip-path="url(#a)"><path d="M400 0c-18.41 0-33.333 14.924-33.333 33.333V100c0 18.409 14.923 33.333 33.333 33.333 18.41 0 33.333-14.924 33.333-33.333V33.333C433.333 14.923 418.41 0 400 0Z"/><path fill-rule="evenodd" d="M400 600c110.457 0 200-89.543 200-200s-89.543-200-200-200-200 89.543-200 200 89.543 200 200 200Zm-92.827-107.173C283.416 469.07 268.722 436.25 268.722 400c0-72.503 58.775-131.278 131.278-131.278 36.25 0 69.07 14.694 92.827 38.451L307.173 492.827Z" clip-rule="evenodd"/><path d="M635.703 117.157c13.017-13.017 34.12-13.017 47.14 0 13.017 13.018 13.017 34.123 0 47.141l-47.14 47.14c-13.02 13.018-34.123 13.018-47.143 0-13.017-13.017-13.017-34.123 0-47.14l47.143-47.141ZM0 400c0 18.41 14.924 33.333 33.333 33.333H100c18.409 0 33.333-14.923 33.333-33.333 0-18.41-14.924-33.333-33.333-33.333H33.333C14.923 366.667 0 381.59 0 400ZM117.157 164.298c-13.017-13.018-13.017-34.123 0-47.141 13.018-13.017 34.123-13.017 47.141 0l47.14 47.141c13.018 13.017 13.018 34.123 0 47.14-13.017 13.018-34.123 13.018-47.14 0l-47.141-47.14ZM400 666.667c-18.41 0-33.333 14.923-33.333 33.333v66.667C366.667 785.077 381.59 800 400 800c18.41 0 33.333-14.923 33.333-33.333V700c0-18.41-14.923-33.333-33.333-33.333ZM164.298 588.563c13.017-13.02 34.123-13.02 47.14 0 13.018 13.017 13.018 34.12 0 47.14l-47.14 47.14c-13.017 13.017-34.123 13.017-47.14 0-13.018-13.016-13.018-34.123 0-47.14l47.14-47.14ZM666.667 400c0 18.41 14.923 33.333 33.333 33.333h66.667C785.076 433.333 800 418.41 800 400c0-18.41-14.924-33.333-33.333-33.333H700c-18.41 0-33.333 14.923-33.333 33.333ZM588.56 635.703c-13.017-13.02-13.017-34.123 0-47.14 13.02-13.02 34.123-13.02 47.143 0l47.14 47.14c13.017 13.017 13.017 34.124 0 47.14-13.02 13.017-34.123 13.017-47.14 0l-47.143-47.14Z"/></g><defs><clipPath id="a"><path fill="#fff" d="M0 0h800v800H0z"/></clipPath></defs></svg>