<svg xmlns="http://www.w3.org/2000/svg" width="512" height="512" fill="none"><path fill="#1C1919" d="M464 112h-73.592L352 48H160l-38.4 64H48c-16 0-48 16-48 47.504V416c0 26.504 24 48 44.664 48H465c21 0 47-22.496 47-47.496V160c0-16-16-48-48-48Zm16 304.504c0 6.312-10.232 15.144-15 15.504H44.76C41.057 431.703 32 424.488 32 416V159.504c0-10.136 13.617-15.248 16-15.504h91.721l38.399-64h156.824l28.56 48.473 8.8 15.527H464c11.28 0 15.84 14.736 16 16v256.504ZM256 160c-61.856 0-111.999 50.144-111.999 112S194.144 384 256 384c61.856 0 112-50.144 112-112s-50.144-112-112-112Zm0 192c-44.112 0-79.999-35.888-79.999-80s35.887-80 79.999-80c44.112 0 80 35.888 80 80s-35.888 80-80 80Z"/></svg>