<svg xmlns="http://www.w3.org/2000/svg" width="800" height="800" fill="none"><g clip-path="url(#a)"><mask id="b" width="800" height="800" x="0" y="0" maskUnits="userSpaceOnUse" style="mask-type:luminance"><path fill="#fff" d="M800 0H0v800h800V0Z"/></mask><g mask="url(#b)"><path fill="#fff" d="M800 0H0v800h800V0Z"/><path stroke="#1C1919" stroke-linejoin="round" stroke-width="33.333" d="M177.777 200H662.24c20.05 0 35.563 17.573 33.077 37.468l-25 199.999c-2.087 16.683-16.267 29.2-33.077 29.2H266.666"/><path stroke="#1C1919" stroke-linecap="round" stroke-linejoin="round" stroke-width="33.333" d="M66.667 133.333h74.454c15.072 0 28.269 10.114 32.187 24.668L276.692 542c3.918 14.553 17.115 24.667 32.187 24.667h324.454"/><path stroke="#1C1919" stroke-linejoin="round" stroke-width="33.333" d="M333.333 700c18.41 0 33.334-14.924 33.334-33.333 0-18.41-14.924-33.334-33.334-33.334-18.409 0-33.333 14.924-33.333 33.334C300 685.076 314.924 700 333.333 700ZM583.333 700c18.41 0 33.334-14.924 33.334-33.333 0-18.41-14.924-33.334-33.334-33.334-18.409 0-33.333 14.924-33.333 33.334C550 685.076 564.924 700 583.333 700Z"/></g></g><defs><clipPath id="a"><path fill="#fff" d="M0 0h800v800H0z"/></clipPath></defs></svg>