<svg xmlns="http://www.w3.org/2000/svg" width="512" height="512" fill="none"><g clip-path="url(#a)"><path stroke="#1C1919" stroke-width="34.133" d="M324.267 494.933H460.8a34.133 34.133 0 0 0 34.133-34.133V51.2A34.134 34.134 0 0 0 460.8 17.067H324.267A34.132 34.132 0 0 0 290.133 51.2v409.6a34.134 34.134 0 0 0 34.134 34.133Zm0 0H136.533m85.334-102.4v102.4m68.266-307.2h204.8m-153.6 204.8h102.4M51.2 119.467h238.933v273.066H51.2A34.134 34.134 0 0 1 17.067 358.4V153.6A34.132 34.132 0 0 1 51.2 119.467Z"/></g><defs><clipPath id="a"><path fill="#fff" d="M0 0h512v512H0z"/></clipPath></defs></svg>