<svg xmlns="http://www.w3.org/2000/svg" width="512" height="512" fill="none"><path stroke="#1C1919" stroke-linecap="round" stroke-linejoin="round" stroke-width="32" d="M298.667 426.667V480m-85.334-53.333V480m85.334-394.667V32m-85.334 53.333V32m-64 224H96m320 0h-53.333M149.333 138.667H96m320 0h-53.333M149.333 373.333H96m320 0h-53.333m-213.334 40.534V98.133a12.802 12.802 0 0 1 12.8-12.8h187.734a12.797 12.797 0 0 1 11.825 7.902c.644 1.553.975 3.217.975 4.898v315.734a12.809 12.809 0 0 1-3.749 9.051 12.809 12.809 0 0 1-9.051 3.749H162.133c-3.394 0-6.65-1.349-9.051-3.749a12.804 12.804 0 0 1-3.749-9.051Z"/></svg>