<svg xmlns="http://www.w3.org/2000/svg" width="512" height="512" fill="none"><path fill="#1C1919" fill-rule="evenodd" d="M256 69.333A186.666 186.666 0 0 0 69.334 256v112a48 48 0 0 0 47.999 48h21.334a48 48 0 0 0 48-48v-74.667a48 48 0 0 0-48-48h-21.334c-5.575.029-10.837.918-15.786 2.667a154.669 154.669 0 0 1 308.907 0 49.086 49.086 0 0 0-15.787-2.667h-21.333a48 48 0 0 0-48 48V368a48 48 0 0 0 48 48h21.333a48 48 0 0 0 48-48V256A186.663 186.663 0 0 0 327.434 83.543 186.661 186.661 0 0 0 256 69.333Zm154.667 223.702V368c0 4.243-1.686 8.313-4.686 11.314A16.004 16.004 0 0 1 394.667 384h-21.333a16 16 0 0 1-16-16v-74.667a15.998 15.998 0 0 1 16-16h21.333a16 16 0 0 1 16 15.702Zm-272-15.702a16.001 16.001 0 0 1 16 16V368c0 4.243-1.686 8.313-4.686 11.314A16.004 16.004 0 0 1 138.667 384h-21.334a16 16 0 0 1-16-16v-74.667c0-4.243 1.686-8.313 4.687-11.313 3-3.001 7.07-4.687 11.313-4.687h21.334Z" clip-rule="evenodd"/></svg>