<svg xmlns="http://www.w3.org/2000/svg" width="800" height="800" fill="none"><path fill="#1C1919" fill-rule="evenodd" d="M400 600c110.457 0 200-89.543 200-200s-89.543-200-200-200-200 89.543-200 200 89.543 200 200 200Zm0-66.667c73.637 0 133.333-59.696 133.333-133.333 0-73.638-59.696-133.333-133.333-133.333-73.638 0-133.333 59.695-133.333 133.333 0 73.637 59.695 133.333 133.333 133.333Z" clip-rule="evenodd"/><path fill="#1C1919" d="M600 166.667c-18.41 0-33.333 14.924-33.333 33.333S581.59 233.333 600 233.333c18.41 0 33.333-14.924 33.333-33.333S618.41 166.667 600 166.667Z"/><path fill="#1C1919" fill-rule="evenodd" d="M55.132 142.535c-21.798 42.783-21.798 98.788-21.798 210.798v93.334c0 112.01 0 168.016 21.798 210.796a199.991 199.991 0 0 0 87.403 87.404c42.783 21.8 98.788 21.8 210.798 21.8h93.334c112.01 0 168.016 0 210.796-21.8a199.98 199.98 0 0 0 87.404-87.404c21.8-42.78 21.8-98.786 21.8-210.796v-93.334c0-112.01 0-168.015-21.8-210.798a199.992 199.992 0 0 0-87.404-87.403c-42.78-21.799-98.786-21.799-210.796-21.799h-93.334c-112.01 0-168.015 0-210.798 21.799a200.003 200.003 0 0 0-87.403 87.403ZM446.667 100h-93.334c-57.105 0-95.925.052-125.93 2.503-29.228 2.388-44.175 6.717-54.602 12.029a133.346 133.346 0 0 0-58.269 58.269c-5.312 10.427-9.641 25.374-12.029 54.602-2.451 30.005-2.503 68.825-2.503 125.93v93.334c0 57.106.052 95.923 2.503 125.93 2.388 29.23 6.717 44.176 12.029 54.603a133.347 133.347 0 0 0 58.269 58.267c10.427 5.313 25.374 9.643 54.602 12.03 30.005 2.45 68.825 2.503 125.93 2.503h93.334c57.106 0 95.923-.053 125.93-2.503 29.23-2.387 44.176-6.717 54.603-12.03a133.348 133.348 0 0 0 58.267-58.267c5.313-10.427 9.643-25.373 12.03-54.603 2.45-30.007 2.503-68.824 2.503-125.93v-93.334c0-57.105-.053-95.925-2.503-125.93-2.387-29.228-6.717-44.175-12.03-54.602a133.347 133.347 0 0 0-58.267-58.269c-10.427-5.312-25.373-9.641-54.603-12.029-30.007-2.451-68.824-2.503-125.93-2.503Z" clip-rule="evenodd"/></svg>