<svg xmlns="http://www.w3.org/2000/svg" width="800" height="800" fill="none"><path stroke="#000" stroke-linecap="round" stroke-linejoin="round" stroke-width="48" d="M287.062 621.44V444.48"/><path stroke="#1C1919" stroke-linecap="round" stroke-linejoin="round" stroke-width="48" d="M73.035 405.44a106.864 106.864 0 0 1 6.381-42.659 106.866 106.866 0 0 1 58.091-61.363 106.873 106.873 0 0 1 42.248-8.703 106.87 106.87 0 0 1 100.34 70.066 106.865 106.865 0 0 1 6.38 42.659V585.6a106.88 106.88 0 1 1-213.44 0V405.44Z"/><path stroke="#1C1919" stroke-linecap="round" stroke-linejoin="round" stroke-width="48" d="M287.064 585.6a107.222 107.222 0 0 0 30.945 75.99 107.164 107.164 0 0 0 34.641 23.444 107.171 107.171 0 0 0 40.976 8.406h131.84a142.07 142.07 0 0 0 85.225-28.48 142.092 142.092 0 0 0 51.095-73.92l48-162.56a72.034 72.034 0 0 0 3.459-33.725 72.054 72.054 0 0 0-12.355-31.568 72.008 72.008 0 0 0-58.304-30.707h-176.64V163.52a46.706 46.706 0 0 0-13.46-33.129 46.72 46.72 0 0 0-32.94-13.911 46.402 46.402 0 0 0-44.48 33.92l-88.002 293.12"/></svg>