<svg xmlns="http://www.w3.org/2000/svg" width="512" height="512" fill="none"><path fill="#1C1919" d="M128 512h256c13.232 0 24-10.768 24-24V24c0-13.232-10.768-24-24-24H128c-13.232 0-24 10.768-24 24v464c0 13.232 10.768 24 24 24Zm-8-488a8.001 8.001 0 0 1 8-8h256a8 8 0 0 1 8 8v464a8 8 0 0 1-8 8H128a8 8 0 0 1-8-8V24Z"/><path fill="#1C1919" d="M144 432h224a8 8 0 0 0 8-8V88a8.001 8.001 0 0 0-8-8H144a8 8 0 0 0-8 8v336a8 8 0 0 0 8 8Zm8-336h208v320H152V96Z"/><path fill="#000" d="M264 480c8.837 0 16-7.163 16-16s-7.163-16-16-16-16 7.163-16 16 7.163 16 16 16Z"/><path fill="#1C1919" d="M224 64h64a8 8 0 1 0 0-16h-64a8 8 0 1 0 0 16Z"/></svg>