<svg xmlns="http://www.w3.org/2000/svg" width="800" height="800" fill="none"><path stroke="#1C1919" stroke-linecap="round" stroke-linejoin="round" stroke-width="50" d="M367.25 633.333c-11.913 0-22.077-8.843-24.017-20.9-1.786-9.753-8.633-17.723-17.843-20.766a189.559 189.559 0 0 1-21.97-9.334c-8.482-4.45-18.657-3.783-26.52 1.734-9.515 7.016-22.586 5.93-30.875-2.567l-32.24-33.067c-8.676-8.9-9.804-22.93-2.665-33.166 5.506-8.25 6.299-18.887 2.08-27.9a196.439 196.439 0 0 1-7.345-19.2c-3.027-10.29-11.382-17.997-21.677-20-12.416-2.034-21.581-12.97-21.678-25.867v-41.367c-.066-14.863 10.402-27.576 24.7-30 10.848-2.116 19.905-9.736 24.05-20.233a225.313 225.313 0 0 1 3.9-8.8c5.513-10.885 4.752-23.996-1.982-34.133-8.421-12.004-7.128-28.497 3.055-38.967l23.692-24.3c11.686-11.989 30.115-13.541 43.55-3.667l.748.534c10.032 6.925 22.798 8.179 33.93 3.333 11.909-4.396 20.687-14.892 23.107-27.633l.327-1.134c2.673-16.867 16.876-29.259 33.54-29.266h28.6c17.11-.008 31.713 12.685 34.513 30l.52 2.333c2.297 12.206 10.62 22.307 21.97 26.667 10.94 4.815 23.52 3.558 33.347-3.334l1.623-1.2c13.783-10.188 32.737-8.621 44.753 3.7l21.807 22.4c10.93 11.272 12.303 28.998 3.25 41.9-7.093 10.784-7.997 24.642-2.373 36.3l1.4 3.334c4.553 11.383 14.41 19.633 26.193 21.933 15.403 2.577 26.73 16.197 26.78 32.2V420c-.003 14.113-9.957 26.153-23.53 28.467-11.163 2.196-20.257 10.486-23.693 21.6a209.77 209.77 0 0 1-5.07 13.333c-4.337 9.767-3.374 21.147 2.536 30 7.797 11.127 6.587 26.41-2.86 36.1l-30.256 31.067c-8.654 8.873-22.3 10.016-32.24 2.7-8.3-5.817-19.05-6.457-27.95-1.667a189.628 189.628 0 0 1-19.5 8.567c-9.297 3.29-16.15 11.45-17.94 21.366-1.897 12.477-12.327 21.707-24.637 21.8h-45.11Z" clip-rule="evenodd"/><path stroke="#1C1919" stroke-linecap="round" stroke-linejoin="round" stroke-width="50" d="M465.823 400c0 42.95-33.946 77.767-75.823 77.767-41.877 0-75.822-34.817-75.822-77.767 0-42.95 33.945-77.767 75.822-77.767S465.823 357.05 465.823 400Z" clip-rule="evenodd"/></svg>