<svg xmlns="http://www.w3.org/2000/svg" width="800" height="800" fill="none"><g clip-path="url(#a)"><path fill="#fff" d="M800 0H0v800h800V0Z"/><path stroke="#1C1919" stroke-linejoin="round" stroke-width="33.333" d="M166.667 250h466.666L600 700H200l-33.333-450Z"/><path stroke="#1C1919" stroke-linecap="round" stroke-linejoin="round" stroke-width="33.333" d="M516.667 316.667 500 633.333M400 316.667v316.666M283.333 316.667 300 633.333"/><path stroke="#1C1919" stroke-linejoin="round" stroke-width="33.333" d="M533.333 166.667h100c36.82 0 66.667 29.847 66.667 66.666V250H100v-16.667c0-36.819 29.848-66.666 66.667-66.666h100m266.666 0L500 100H300l-33.333 66.667m266.666 0H266.667"/></g><defs><clipPath id="a"><path fill="#fff" d="M0 0h800v800H0z"/></clipPath></defs></svg>