<svg xmlns="http://www.w3.org/2000/svg" width="800" height="800" fill="none"><path fill="#1C1919" fill-rule="evenodd" d="M659.427 130.608c11.616-2.753 19.716-5.46 26.353-8.303 9.3-3.985 17.01-8.758 29.193-16.797a33.332 33.332 0 0 1 51.694 27.821c0 36.031-4.49 65.562-14.884 91.551-8.746 21.86-21.033 39.616-35.73 55.776-6.206 112.104-38.656 200.141-88.266 266.837-51.42 69.13-119.834 113.4-191.95 138.194-71.907 24.716-147.883 30.24-215.947 21.87-67.618-8.314-130.122-30.7-173.688-64.584-11.931-9.28-16.125-25.426-10.218-39.34 5.906-13.913 20.435-22.11 35.397-19.97 42.866 6.124 84.129-3.623 118.059-17.556a206.737 206.737 0 0 1-18.831-11.62c-30.917-21.404-55.862-50.46-67.09-72.917a33.329 33.329 0 0 1 9.849-41.6C68.226 402.713 50 351.183 50 316.662a33.334 33.334 0 0 1 24.103-32.03c-3.378-9.891-6-19.885-7.998-29.56-8.859-42.895-8.072-91.311 1.557-129.828a33.335 33.335 0 0 1 61.211-8.573c35.917 62.256 102.166 100.31 163.822 122.852 28.988 10.598 55.835 17.351 75.958 21.503 4.344-40.686 15.704-74.239 33.14-100.889 23.004-35.16 55.087-55.962 89.54-65.238 59.424-15.996 125.36 2.228 168.094 35.709ZM358.28 326.948c-22.837-4.586-54.223-12.289-88.476-24.812-45.241-16.54-97.775-42.33-141.78-82.279.788 7.351 1.906 14.64 3.37 21.732 7.375 35.711 21.079 55.711 33.513 61.927 15.207 7.604 22.254 25.434 16.355 41.381-7.986 21.59-28.992 23.36-48.078 18.59 15.35 23.013 42.942 45.96 88.962 53.63 15.873 2.646 27.59 16.253 27.849 32.343.26 16.09-11.012 30.067-26.791 33.223l-29.016 5.804a166.203 166.203 0 0 0 14.369 11.186c23.23 16.084 46.555 23.02 66.692 17.987 15.081-3.77 30.767 3.383 37.805 17.247 7.039 13.86 3.561 30.746-8.381 40.696-21.464 17.867-46.531 32.204-71.654 44.1-11.794 5.587-24.974 11.1-39.289 15.954 11.009 2.35 22.465 4.276 34.296 5.733 59.019 7.257 124.711 2.363 186.137-18.75 61.217-21.043 117.8-58.023 160.134-114.933 42.27-56.834 71.77-135.484 75.726-242.277a33.322 33.322 0 0 1 9.74-22.336c14.987-14.989 27.374-32.168 33.467-52.617-10.663 3.324-22.67 6.201-36.97 8.935a33.333 33.333 0 0 1-29.83-9.17c-25.483-25.484-75.883-42.243-117.767-30.968-19.71 5.306-37.626 16.794-51.083 37.361-13.737 21-24.247 53.713-24.247 103.362a33.337 33.337 0 0 1-10.996 24.743c-16.6 14.983-44.537 6.128-64.057 2.208Z" clip-rule="evenodd"/></svg>