<svg xmlns="http://www.w3.org/2000/svg" width="800" height="800" fill="none"><g fill="#1C1919" fill-rule="evenodd" clip-path="url(#a)" clip-rule="evenodd"><path d="M316.538 237.725a33.334 33.334 0 0 0-49.871 28.942v266.666a33.33 33.33 0 0 0 16.602 28.83 33.33 33.33 0 0 0 33.269.11L549.87 428.94A33.327 33.327 0 0 0 566.667 400a33.327 33.327 0 0 0-16.797-28.94L316.538 237.725ZM466.147 400l-132.814 75.893V324.106L466.147 400Z"/><path d="M0 400c0-124.991 0-187.487 31.83-231.298a166.67 166.67 0 0 1 36.872-36.872C112.513 100 175.01 100 300 100h200c124.99 0 187.487 0 231.297 31.83a166.658 166.658 0 0 1 36.873 36.872C800 212.513 800 275.009 800 400c0 124.99 0 187.487-31.83 231.297a166.641 166.641 0 0 1-36.873 36.873C687.487 700 624.99 700 500 700H300c-124.991 0-187.487 0-231.298-31.83a166.653 166.653 0 0 1-36.871-36.873C0 587.487 0 524.99 0 400Zm300-233.333h200c63.98 0 106.61.091 138.91 3.591 31.053 3.364 44.557 9.225 53.203 15.507a100.11 100.11 0 0 1 22.124 22.123c6.28 8.647 12.14 22.15 15.506 53.202 3.5 32.299 3.59 74.93 3.59 138.91 0 63.98-.09 106.61-3.59 138.91-3.366 31.053-9.226 44.557-15.506 53.203a100.2 100.2 0 0 1-22.124 22.124c-8.646 6.28-22.15 12.14-53.203 15.506-32.3 3.5-74.93 3.59-138.91 3.59H300c-63.981 0-106.611-.09-138.91-3.59-31.052-3.366-44.555-9.226-53.202-15.506a100.103 100.103 0 0 1-22.123-22.124c-6.282-8.646-12.143-22.15-15.507-53.203-3.5-32.3-3.591-74.93-3.591-138.91 0-63.98.091-106.611 3.59-138.91 3.365-31.052 9.226-44.555 15.508-53.202a100.014 100.014 0 0 1 22.123-22.123c8.647-6.282 22.15-12.143 53.202-15.507 32.299-3.5 74.929-3.591 138.91-3.591Z"/></g><defs><clipPath id="a"><path fill="#fff" d="M0 0h800v800H0z"/></clipPath></defs></svg>