<svg xmlns="http://www.w3.org/2000/svg" width="400" height="420" version="1.0" viewBox="0 0 300 315"><path d="M158 47c-29.8 7.4-54.9 24.8-65.8 45.7-2.3 4.5-4.5 10.1-4.8 12.5-.5 4.2-.5 4.4 4.4 7.9l5 3.7.4-9.3c.3-8.3.8-10.1 4.1-16.9 2.2-4.3 6.3-10.3 9.4-13.6 10.8-11.8 32.2-23.7 53.8-30.1 7.9-2.3 3.1-2.3-6.5.1zM239 52c-1.6 6-2.3 6.7-7.5 7.5-2.5.3-4.5.9-4.5 1.3s1.8 1.8 4.1 3.2l4.1 2.5-.4 5.7c-.2 3.2-.3 5.8-.3 5.8.1 0 2.1-1.5 4.5-3.4l4.3-3.4 4.4 2c2.5 1.1 4.7 1.8 4.9 1.6.2-.3-.3-2.6-1.2-5.2l-1.6-4.8 3.8-3.9 3.8-3.9h-5.7c-5.4 0-5.9-.2-7.5-3.1-3.7-6.7-3.9-6.7-5.2-1.9z"/><path d="M182.5 51.5c-22.6 3.4-48.5 15.1-63 28.6-4.1 3.9-7.6 8.4-10.1 13.1-3.7 6.8-3.9 7.8-3.9 15.8 0 7 .4 9.4 2.5 13.5 5.3 10.9 17.4 19.5 32.3 22.9 11 2.6 11.6 2.3 6-2.8l-4.8-4.4 4-.6c10.9-1.7 14.8-3 20.2-6.5 6.5-4.3 12.3-10 8.8-8.7-1.1.4-4.9 1.4-8.5 2.2-29.5 6.3-50.7-10.8-39.8-32.1 10.3-20.3 43.8-36.3 84.2-40.4 5.4-.5 10.1-1.2 10.4-1.5 1.1-1.1-29.5-.4-38.3.9z"/><path d="m189.3 73.8-10.1 9.7 1.3 4.5c.8 2.4 1.2 5.4.9 6.6-.3 1.1.1 2.6.9 3.2.8.7 1.2 2.2.9 3.7-.5 2.7.7 3.2 3.9 1.4 1.9-1 2-1.2.4-2.9-1.1-1.2-1.4-2.6-1-3.9.4-1.4.1-2.3-.9-2.7-1.5-.6-4.2-7.1-3.3-8 .3-.3 2.4.5 4.6 1.8 4.3 2.4 5.4 4.5 6.6 12.5.8 4.9 3.7 9.7 7.8 12.7 4 3 12.9 2.9 17.9-.2 4-2.5 7.8-9.1 7.8-13.5 0-1.5-1.4-6-3.1-10l-3-7.3 3-6.4c1.7-3.5 2.9-6.5 2.8-6.7-.2-.1-5-.9-10.8-1.8-5.7-.8-11.7-1.7-13.4-1.9-2.7-.5-4.1.5-13.2 9.2zM252.4 87.2c-7.1 4.8-16.4 14.3-22.4 23.3-5.4 8.1-13 23.1-13 25.8 0 .9 1.3 5.5 2.9 10.4 1.7 4.8 3.5 12.8 4.1 17.8.6 4.9 1.3 9.1 1.5 9.3.2.2 2-6.8 4-15.5 9.9-43.3 13-52.1 23-66.3 3.1-4.4 5.5-8 5.2-8-.2 0-2.6 1.5-5.3 3.2zM151 98.5c13.1 4.6 20.9 9.3 29.6 18 14.3 14.3 20 29.8 19.1 52-.8 20.5-7.8 39.2-19.7 52.8-1.4 1.6-2.5 3.2-2.5 3.5 0 .4-.4 1.2-.8 1.9s0 1.6 1 2.2c3 1.6.9 2.1-2.2.5-2.6-1.3-2.8-1.3-1.5 0 2.3 2.3 5.5 2.5 5.4.3-.2-1.5.5-1.8 4.5-1.5 3.4.2 4.5.7 4.3 1.8-.1 1 .4.7 1.7-.7 1-1.2 2.2-1.9 2.6-1.5.5.4.5.1.1-.6-.4-.6-.2-1.2.4-1.2.6 0 .8-.6.4-1.3-.5-.9-.4-.9.5-.1 1 .9 1.9.6 3.7-1.3 1.3-1.3 2.2-2.9 1.9-3.4-.4-.5.3-.9 1.5-.9s1.8-.5 1.5-1c-.3-.6-.2-1 .3-1 2.6 0 10.8-14.3 13.8-24 3.3-10.9 3.9-25.3 1.5-37-2.7-13.1-11-27.8-21.7-38.3-11.6-11.5-29.8-20-45-21.2l-7.9-.6 7.5 2.6zm34.4 120.4c.3.5-.3 1.1-1.5 1.4-1.6.4-1.8.3-.8-.9 1.3-1.6 1.6-1.7 2.3-.5zm1.8 3.2c.2.2.1.3-.1.2-.2-.2-.9.2-1.6.7-.8.7-1.2.5-1.2-.4 0-1.2 2.2-1.6 2.9-.5zm3.4 4.5c-.7 1.5-1.3 1.9-1.8 1.1-.4-.7-.3-1.4.2-1.5.6-.2.8-.7.6-1.1-.3-.4.1-.8.8-.8 1 0 1 .6.2 2.3zm-11.1.4c-.3.5-1.2 1-1.8 1-.7 0-.6-.4.3-1 1.9-1.2 2.3-1.2 1.5 0z"/><path d="M74 111.6c0 .4.7 3.1 1.7 6l1.6 5.3 15.6 9.7c34.7 21.8 42.2 26.6 41.8 27.1-.5.4-19.8-6.8-57-21.4-12-4.7-22-8.4-22.2-8.1-.3.2.3 2.9 1.3 5.9l1.9 5.4 42.6 11.6 42.5 11.5 24.4-6.6c15.4-4.1 24.3-7 24.2-7.8-.3-3.7-.5-4.2-1.7-4.2-.8 0-9.4 3.2-19.2 7-9.9 3.9-18.3 6.9-18.7 6.8-.4-.2 7.1-5.2 16.8-11.2 9.6-6 17.7-11.3 18-11.7.8-1.4-1.6-5.1-3-4.6-1.5.6-21 14.6-31.8 22.8-4.2 3.3-8.1 5.9-8.8 5.9-.9 0-23.9-16.4-56.5-40.5-12.6-9.3-13.5-9.9-13.5-8.9z"/><path d="M44 145.7c0 1.5 24.7 75 25.5 76.1.5.6 20.1 3.2 21.3 2.7.7-.3 1.1-.1.8.4-.3.5.1 1.2 1 1.5.8.3 1.2.2.9-.4-1.2-1.9.7-1 2.4 1.1 1.6 2 1.9 2.1 4.7.6 2.1-1.1 3.5-1.2 4.7-.6 1 .6 2.5.9 3.5.8.9-.1 1.9 0 2.2.1.3.1 3.3.2 6.6.3 4.4.1 6-.1 5.7-1-.3-.7.3-1 1.6-.6 1.2.3 2.1 1.2 2.1 1.9 0 .8.5 1.4 1.1 1.4.5 0 .7-.5.4-1-.4-.6 3.2-1 10-1s10.4-.4 10-1c-.4-.6.7-1 2.5-1s2.9.4 2.5 1c-.8 1.3 1.1 1.3 3.8-.1l2.2-1.2-2 2.4c-1.4 1.6-1.5 2-.3 1 .9-.7 2.3-.9 2.9-.5.9.5 1 .2.6-.9-.3-.9.1-2.1 1.1-2.9 1.5-1.2 1.6-1.1.3.4-1.5 2-.9 2.3 2 .8 1-.6 1.9-1.8 1.9-2.8 0-1.2.3-1.3.8-.5 1.1 1.8 11.1-8.9 16-17.2 6.3-10.8 10.2-23.8 10.9-36.8.6-10.1.5-10.7-1.3-10.7-1 0-12.4 2.7-25.2 5.9l-23.4 5.8-48.9-12.3c-27-6.8-49.4-12.4-50-12.4-.5 0-.9.3-.9.7zm55.7 79.9c0 .7-.7 1-1.5.6-1.1-.4-1.3-.1-.7.9.5.8.4 1.1 0 .6-1.6-1.4-1.3-3.6.4-3.4 1 0 1.8.6 1.8 1.3zM170.5 231.1c-.4.6-.4 1.3-.1 1.6.3.4.6.1.6-.6 0-.8.6-1.1 1.6-.7.8.3 1.2.2.9-.4-.8-1.3-2.2-1.3-3 .1zM101.6 233.1c.3.5.9.7 1.4.4.5-.3 1.1-.1 1.5.5.3.5 1.2 1 1.8 1 .7 0 .3-.6-.8-1.2-2.5-1.5-4.7-1.9-3.9-.7zM145.4 232.8c.4.3 1.4.7 2.2.8.9.1 1.3 0 1-.4-.4-.3-1.4-.7-2.2-.8-.9-.1-1.3 0-1 .4zM181 232.4c0 .2.7.7 1.6 1 .8.3 1.2.2.9-.4-.6-1-2.5-1.4-2.5-.6zM46.4 268.1c-1 1.7 1.3 3.6 2.7 2.2 1.2-1.2.4-3.3-1.1-3.3-.5 0-1.2.5-1.6 1.1zM14.4 274.2c.2 3.5.5 9 .5 12.3.1 6.8 1.8 6.5 2.3-.5l.3-4.5 5.3-.3c6.7-.4 6.7-2 0-2.4-4.3-.2-5.3-.6-5.2-2.1.1-.9.2-2.8.3-4.2.1-2.4.4-2.5 6.1-2.5 3.3 0 6-.4 6-1s-3.4-1-8.1-1h-8l.5 6.2zM97 278.7c0 6 .4 11.2.8 11.8.9 1.2 15.2 1.5 15.2.3 0-.4-2.9-.8-6.5-.8H100v-11c0-9.1-.3-11-1.5-11s-1.5 1.9-1.5 10.7zM194 271.9c0 1.1-.6 2.1-1.2 2.4-1 .3-1 .7-.1 1.8.7.8 1.3 4.3 1.5 7.8.2 4.7.8 6.7 2 7.5 2.1 1.3 3.6 0 2-1.6-1.8-1.8-1.6-12.7.3-13.4.8-.4 1.5-1 1.5-1.5s-.7-.9-1.5-.9-1.5-.9-1.5-2-.7-2-1.5-2-1.5.9-1.5 1.9zM46 276.2c0 6.1 1.4 15.7 2.1 15.2.5-.3.9-4.3.9-9 0-6.8-.3-8.4-1.5-8.4-.9 0-1.5.9-1.5 2.2zM68 278.4l3 4.5-2.5 3.7c-1.4 2-2.5 4.1-2.5 4.5 0 1.9 1.6.7 3.7-2.6 2.4-3.7 4.7-3.8 5.8-.4.4 1 1.5 2.4 2.6 3 1.8.9 1.9.8 1-.8-.6-1-1.9-2.9-3-4.3l-2-2.5 3.5-4.7c3-4.3 3.2-4.8 1.4-4.8-1.2 0-2.6 1.2-3.5 3-.9 1.6-2 3-2.5 3s-1.7-1.4-2.7-3c-.9-1.7-2.6-3-3.6-3-1.6 0-1.4.6 1.3 4.4zM131.9 276.9c-3.9 4-3.9 8.2.1 12.2 2.4 2.4 3.5 2.9 6.5 2.6 3.8-.5 9.6-4.7 6.3-4.7-.8 0-2.1.7-2.8 1.5-2.6 3.1-10 .9-10-3.1 0-1.1 1.5-1.4 6.5-1.4 7.1 0 7.4-.4 5.4-5.7-1.3-3.4-2.6-4.3-6.2-4.3-1.8 0-3.9 1.1-5.8 2.9zm9.9.3c.7.7 1.2 2 1.2 3 0 1.5-.9 1.8-5.5 1.8-3 0-5.5-.3-5.5-.7 0-.4 1-1.7 2.2-3 2.3-2.5 5.7-3 7.6-1.1zM163.9 276.9c-3.1 3.2-3.6 6.4-1.7 10.6 1.9 4.1 10.3 5.4 13.7 2 2.1-2.1.5-3.1-1.7-1.2-2.4 2.2-6.5 2.2-8.5-.1-2.4-2.6-2.1-7.7.5-10.2 2.8-2.6 4.6-2.5 7.4.1 3.4 3.2 5.4 1.9 2.2-1.4-3.7-3.7-8.1-3.6-11.9.2zM217 281c0 5.5.4 7.4 1.9 8.9 2 2 6.2 2.1 8.7 0 1.3-1 1.7-1 2.4.1 1.5 2.5 2.3.2 2.8-8 .4-6.9.2-8-1.2-8-1.3 0-1.6 1.2-1.6 6.3 0 6.9-1.7 9.7-5.6 9.7-3.4 0-4.4-2.1-4.4-9.2 0-5.4-.3-6.8-1.5-6.8s-1.5 1.4-1.5 7zM250 282.4c0 10.3 1.6 12.1 2.5 3.1.7-6.5 2.3-9.5 5.1-9.5.8 0 1.4-.5 1.4-1 0-1.4-3.7-1.2-4.4.2-.5 1-.7 1-1.2 0-.3-.6-1.2-1.2-2-1.2-1.1 0-1.4 1.8-1.4 8.4zM276.5 276.5c-2.8 2.7-3.4 8.8-1.2 11.6 3.2 4.2 9.4 4.7 13 1 1.2-1.1 1.6-2.1 1-2.1-.6 0-1.6.7-2.3 1.5-2.5 3-10 1.1-10-2.5 0-1.6.9-1.9 6.3-2.2l6.2-.3-.2-3c-.5-6.2-8.2-8.7-12.8-4zm9.9 1.4c2.6 2.8 1.2 4.1-4.5 4.1-5.3 0-6.1-1-3.2-4.2 2.1-2.3 5.5-2.3 7.7.1z"/></svg>