<svg xmlns="http://www.w3.org/2000/svg" width="800" height="800" fill="none"><path stroke="#1C1919" stroke-linecap="round" stroke-linejoin="round" stroke-width="48" d="M624 416c0 79.52-100.288 144-224 144s-224-64.48-224-144 100.288-144 224-144 224 64.48 224 144Z" clip-rule="evenodd"/><path stroke="#1C1919" stroke-linecap="round" stroke-linejoin="round" stroke-width="48" d="M456 416a56.03 56.03 0 0 1-27.44 50.099 56.025 56.025 0 0 1-57.12 0A56.03 56.03 0 0 1 344 416a56.027 56.027 0 0 1 27.44-50.099 56.025 56.025 0 0 1 57.12 0A56.027 56.027 0 0 1 456 416Z" clip-rule="evenodd"/></svg>