<svg xmlns="http://www.w3.org/2000/svg" width="800" height="800" fill="currentColor"><path fill="#fff" d="M135.813 99.793c1.941-34.336 10.143-49.267 33.664-61.258 25.309-12.905 65.225-6.9 112.194 16.885 20.231 10.25 22.291 10.458 57.746 5.913 47.126-6.045 107.796-6.023 151.293.055 32.893 4.597 35.053 4.367 55.333-5.904 66.67-33.761 119.307-31.552 138.367 5.806 9.513 18.647 11.28 67.034 3.903 106.942-4.09 22.124-3.656 24.887 6.197 39.405 69.323 102.158 19.373 267.75-99.417 329.546-9.09 4.73-16.75 7.657-22.993 10.04-19.17 7.32-24.99 9.544-17.943 43.237 3.393 16.207 7.48 56.5 9.086 89.547 2.904 59.733 2.86 60.15-7.616 72.336-14.26 16.577-34.814 16.857-48.74.664-9.084-10.56-9.97-15.547-9.97-56.29 0-60.21-6.6-100.23-22.194-134.524-18.543-40.81-4.796-56.026 37.61-65.146 58.944-12.68 104.98-49.057 130.64-103.227 24.397-51.493 28.074-122.653-16.033-165.931-12.543-14.906-13.417-28.407-4.46-69.119 3.347-15.217 6.153-34.847 6.237-43.628.126-13.868-1.137-15.962-9.654-15.962-5.39 0-25.983 7.841-45.756 17.422l-31.56 15.296a16.813 16.813 0 0 1-9.247 1.562c-80.25-9.211-156.503-9.354-237.146.036a16.813 16.813 0 0 1-9.282-1.562l-31.544-15.307c-19.775-9.598-40.367-17.447-45.756-17.447-12.458 0-12.646 9.198-1.29 63.846 6.937 33.375 11.605 40.812-8.448 67.498-30.059 40.001-37.567 89.673-21.448 141.863 20.315 65.766 70.064 110.196 140.005 125.02 42.162 8.936 53.182 20.596 37.082 68.943-12.673 38.047-20.686 47.853-39.104 47.853-24.781 0-40.304-21.466-31.761-43.93 3.763-9.9 2.643-10.956-20.571-19.423-70.865-25.837-125.066-83.747-149.846-160.107-19.154-59.015-10.726-135.83 20.001-182.259 10.462-15.808 10.624-17.149 5.741-47.412-2.762-17.131-4.256-44.704-3.32-61.279ZM111.068 531.513c-10.212-15.316-30.908-19.456-46.225-9.243-15.318 10.21-19.457 30.907-9.245 46.223 7.539 11.31 16.558 20.6 24.217 28.257 1.412 1.413 2.784 2.777 4.123 4.107 6.416 6.373 12.08 12 17.77 18.68 12.584 14.77 25.137 34.663 32.272 70.336 3.178 15.89 14.6 24.45 20.928 28.19 6.864 4.054 14.363 6.444 20.534 8 12.623 3.184 27.948 4.837 42.491 5.8 15.965 1.06 33.264 1.404 48.733 1.497.012 18.397 14.931 33.31 33.333 33.31 18.41 0 33.334-14.923 33.334-33.333v-33.334c0-18.41-14.924-33.333-33.334-33.333-3.142 0-6.542.01-10.143.023-19.562.06-45.06.137-67.517-1.35-10.829-.716-19.731-1.733-26.259-2.976-10.052-39.464-26.293-65.72-43.622-86.064-7.661-8.99-15.594-16.856-22.046-23.256a1080.216 1080.216 0 0 1-3.457-3.437c-7.445-7.443-12.315-12.737-15.887-18.097Z"/></svg>