<svg xmlns="http://www.w3.org/2000/svg" width="800" height="800" fill="none"><g clip-path="url(#a)"><mask id="b" width="800" height="800" x="0" y="0" maskUnits="userSpaceOnUse" style="mask-type:luminance"><path fill="#fff" d="M800 0H0v800h800V0Z"/></mask><g mask="url(#b)"><path fill="#fff" d="M800 0H0v800h800V0Z"/><path stroke="#1C1919" stroke-linejoin="round" stroke-width="33.333" d="M300 700H133.333C114.924 700 100 685.077 100 666.667v-252.86c0-8.84 3.512-17.32 9.763-23.57L376.43 123.57c13.017-13.017 34.123-13.017 47.14 0l266.667 266.667a33.337 33.337 0 0 1 9.763 23.57v252.86c0 18.41-14.923 33.333-33.333 33.333H500m-200 0h200m-200 0V500c0-18.41 14.924-33.333 33.333-33.333h133.334C485.077 466.667 500 481.59 500 500v200"/></g></g><defs><clipPath id="a"><path fill="#fff" d="M0 0h800v800H0z"/></clipPath></defs></svg>