<svg xmlns="http://www.w3.org/2000/svg" width="800" height="800" fill="none"><path stroke="#1C1919" stroke-linecap="round" stroke-linejoin="round" stroke-width="48" d="M611.187 690.24c35.347 0 64-28.653 64-64s-28.653-64-64-64-64 28.653-64 64 28.653 64 64 64ZM291.188 690.24c35.346 0 63.999-28.653 63.999-64s-28.653-64-63.999-64c-35.347 0-64 28.653-64 64s28.653 64 64 64ZM80 113.919s148.48-1.92 128 128L185.922 371.84a104.644 104.644 0 0 0 .943 47.133 104.676 104.676 0 0 0 21.539 41.936 104.684 104.684 0 0 0 37.76 28.224 104.683 104.683 0 0 0 46.316 8.787h256a156.81 156.81 0 0 0 96.586-36.992A156.807 156.807 0 0 0 697.6 371.84l22.083-131.521a105.33 105.33 0 0 0-.502-47.775 105.28 105.28 0 0 0-106.701-80.225h-278.4"/></svg>