<svg xmlns="http://www.w3.org/2000/svg" width="734" height="734" fill="none"><path fill="#1C1919" fill-rule="evenodd" d="M633.667.333c55.23 0 100 44.772 100 100v533.334c0 55.23-44.77 100-100 100H100.333c-55.228 0-100-44.77-100-100V100.333c0-55.228 44.772-100 100-100h533.334Zm0 66.667C652.077 67 667 81.924 667 100.333v533.334c0 18.41-14.923 33.333-33.333 33.333H467V433.663h69.207a33.336 33.336 0 0 0 31.623-22.793l14.767-44.3c5.396-16.19-6.654-32.907-23.717-32.907H467v-66.666c0-16.666 16.667-33.333 33.333-33.333H567c18.41 0 33.333-14.924 33.333-33.333v-22.867c0-10.767-6.876-20.421-17.29-23.168-43.693-11.531-82.71-11.531-82.71-11.531C417 142.765 367 200.331 367 250.331v83.332h-66.667c-18.409 0-33.333 14.924-33.333 33.334v33.333c0 18.41 14.924 33.333 33.333 33.333H367V667H100.333C81.923 667 67 652.077 67 633.667V100.333C67 81.924 81.924 67 100.333 67h533.334Z" clip-rule="evenodd"/></svg>