<svg xmlns="http://www.w3.org/2000/svg" width="800" height="800" fill="none"><path fill="#1C1919" d="M433.333 133.333c-18.41 0-33.333 14.924-33.333 33.334C400 185.076 414.923 200 433.333 200c42.427 0 75.19 13.996 97.264 36.07 22.073 22.074 36.07 54.838 36.07 97.263 0 18.41 14.923 33.334 33.333 33.334 18.41 0 33.333-14.924 33.333-33.334 0-57.575-19.336-108.144-55.596-144.403-36.26-36.26-86.83-55.597-144.404-55.597ZM167.133 266.871c3.809-30.124 42.959-71.066 74.03-66.523l-.05-.05c25.97 4.935 47.293 44.024 61.345 69.784 2.308 4.232 4.42 8.104 6.325 11.406 9.564 16.979 3.353 34.182-5.565 41.441-1.031.831-2.113 1.689-3.225 2.572-11.868 9.422-27.289 21.662-23.679 33.946 7.019 23.886 90.352 107.22 131.339 130.91 12.55 7.253 22.307-6.834 30.663-18.897 1.974-2.85 3.87-5.587 5.707-7.903 6.98-9.32 24.197-14.89 41.137-5.69A458.82 458.82 0 0 1 556.333 509c11.007 9.2 13.59 22.797 5.963 37.167-13.433 25.31-52.286 58.686-80.49 51.903-49.26-11.843-248.473-89.07-312.462-312.803-3.351-9.855-2.796-14.003-2.315-17.603l.104-.793Z"/><path fill="#1C1919" d="M433.333 233.333c-18.41 0-33.333 14.924-33.333 33.334C400 285.076 414.923 300 433.333 300c5.827 0 14.44 3.248 22.264 11.07 7.82 7.822 11.07 16.438 11.07 22.263 0 18.41 14.923 33.334 33.333 33.334 18.41 0 33.333-14.924 33.333-33.334 0-27.507-13.416-52.225-30.596-69.403-17.177-17.178-41.897-30.597-69.404-30.597Z"/><path fill="#1C1919" fill-rule="evenodd" d="M250.581 794.373c.948.524 1.922 1 2.917 1.427 18.089 7.78 40.421-9.59 85.082-44.327l44.754-34.806c89.613 2.966 167.133-8.794 227.066-29.764A233.336 233.336 0 0 0 753.573 543.73c32.32-92.363 32.32-261.769 0-354.132A233.336 233.336 0 0 0 610.4 46.424c-106.723-37.344-316.067-36.647-420.798 0A233.335 233.335 0 0 0 46.428 189.598c-32.32 92.363-32.32 261.769 0 354.132a233.335 233.335 0 0 0 143.174 143.173c13.149 4.6 27.855 9.647 43.732 13.097 0 56.58-.001 84.87 17.247 94.373ZM300 697.023v-37.326c0-7.84-5.466-14.617-13.134-16.257-25.397-5.43-50.64-10.853-75.245-19.463A166.663 166.663 0 0 1 109.354 521.71c-12.73-36.38-20.499-93.533-20.499-155.047 0-61.512 7.769-118.667 20.499-155.046a166.665 166.665 0 0 1 102.267-102.268c42.254-14.785 112.284-23.922 187.706-24.005 75.413-.083 145.876 8.897 189.053 24.005a166.665 166.665 0 0 1 102.267 102.268c12.73 36.379 20.5 93.534 20.5 155.046 0 61.514-7.77 118.667-20.5 155.047A166.663 166.663 0 0 1 588.38 623.977c-71.057 24.863-146.413 27.656-220.916 25.45a16.768 16.768 0 0 0-10.784 3.513L300 697.023Z" clip-rule="evenodd"/></svg>