<svg width="493" height="366" viewBox="0 0 493 366" fill="none" xmlns="http://www.w3.org/2000/svg">
<path fill-rule="evenodd" clip-rule="evenodd" d="M172.668 338.788C169.918 336.478 167.411 333.979 165.193 331.252C167.051 326.122 188.01 325.298 178.119 334.76C176.252 336.545 174.401 337.872 172.668 338.788ZM163 304.768C185.862 290.184 263.265 277.302 332.187 262.64C339.688 277.409 345.582 293.952 340.84 301.63C331.776 316.305 316.239 297.745 315.375 311.557C314.512 325.368 311.922 329.253 306.312 324.937C300.701 320.621 283.869 324.937 287.753 333.569C291.637 342.201 297.248 348.243 288.616 346.517C279.984 344.791 273.51 349.538 268.33 359.896C263.151 370.255 251.065 364.646 247.612 353.855C244.16 343.066 245.023 337.455 236.391 337.886C227.759 338.318 231.211 347.381 223.874 349.108C216.537 350.834 195.172 345.655 190.209 338.102C185.245 330.549 188.05 325.37 190.209 328.391C192.367 331.412 195.603 337.023 197.114 333.57C198.625 330.117 194.956 326.449 196.898 324.938C198.84 323.427 192.151 322.564 189.993 324.074C187.835 325.585 179.203 323.858 178.339 319.758C177.476 315.657 178.555 313.068 178.555 313.068C178.555 313.068 170.229 316.581 163 304.767L163 304.768ZM355.103 257.601C359.415 256.617 363.662 255.623 367.825 254.619C368.149 256.552 367.532 257.967 365.437 258.366C361.52 259.112 358.087 258.729 355.103 257.601H355.103ZM499.238 191.038C502.259 190.174 513.912 204.417 504.417 203.554C494.922 202.691 490.174 192.764 499.238 191.038ZM431.476 266.568C434.066 262.252 446.151 267.431 440.54 271.315C434.929 275.2 422.412 271.748 431.476 266.568ZM358.101 276.494C358.101 276.494 377.524 291.6 365.007 290.737C352.49 289.873 343.858 273.904 358.101 276.494Z" fill="#61B9D3"/>
<path fill-rule="evenodd" clip-rule="evenodd" d="M287.778 346.387C278.017 335.386 277.205 310.749 271.161 301.931C274.337 297.225 305.212 290.312 341.146 284.926C342.937 291.82 343.213 297.832 340.854 301.651C331.79 316.325 316.253 297.766 315.389 311.578C314.526 325.389 311.936 329.273 306.326 324.958C300.715 320.641 283.883 324.958 287.767 333.59C291.651 342.222 297.262 348.264 288.63 346.538C288.344 346.481 288.06 346.431 287.779 346.388L287.778 346.387ZM352.122 283.351C356.108 282.804 360.127 282.279 364.15 281.782C368.541 286.049 372.523 291.275 365.016 290.757C359.312 290.363 354.415 286.832 352.122 283.351H352.122Z" fill="#55B0CF"/>
<path fill-rule="evenodd" clip-rule="evenodd" d="M170.975 338.584C169.722 338.037 167.727 337.491 164.339 337.001C163.935 336.943 163.55 336.897 163.181 336.861C162.765 335.294 163.302 333.06 165.169 330.322C166.895 325.142 188.043 324.279 178.116 333.775C175.627 336.156 173.165 337.722 170.975 338.584ZM0 186.352C4.47775 186.012 10.0242 187.818 13.5629 190.221C8.23156 190.476 3.42229 189.463 0 186.352ZM21.3204 189.109C23.4257 187.53 26.082 185.68 30.3394 185.228C31.348 185.121 32.3857 185.147 33.4324 185.288C29.5516 186.815 25.4061 188.192 21.32 189.109H21.3204ZM50.6592 202.98C50.6497 203.473 50.6074 203.965 50.5261 204.453C48.9584 213.85 58.5279 218.882 65.837 219.426C73.1496 219.97 96.2237 217.797 99.2483 223.641C102.269 229.485 115.742 234.381 117.907 228.488C120.075 222.595 115.978 225.319 114.118 221.291C112.258 217.26 110.876 206.782 102.516 208.755C94.1548 210.723 103.619 199.758 114.733 201.45C125.846 203.14 123.631 215.511 128.487 214.146C133.343 212.778 154.922 219.137 158.195 233.214C161.468 247.292 151.376 255.19 155.544 257.23C159.717 259.265 166.549 254.588 172.966 255.496C179.378 256.408 182.082 237.586 191.331 246.918C200.581 256.255 201.245 258.9 203.729 260.379C206.214 261.859 223.509 261.846 226.936 256.481C230.36 251.121 221.011 254.746 222.543 245.781C224.074 236.816 237.26 233.907 238.504 228.814C239.747 223.714 239.1 215.025 251.582 221.569C264.062 228.117 285.509 236.2 308.286 220.602C327.535 207.42 391.097 179.62 443.163 150.803C429.704 161.413 423.24 174.001 433.202 177.203C445.288 181.087 434.497 204.393 420.686 198.783C406.875 193.172 415.075 203.531 399.969 200.509C384.863 197.488 364.146 197.056 371.915 207.847C379.683 218.637 360.261 228.563 354.219 221.226C348.176 213.889 330.48 206.552 334.365 213.457C338.249 220.363 347.745 233.743 334.796 229.427C321.848 225.11 308.9 228.563 314.511 233.743C320.122 238.922 349.901 285.968 340.838 300.643C331.774 315.317 316.236 296.758 315.373 310.57C314.509 324.381 311.92 328.266 306.309 323.95C300.698 319.633 283.866 323.95 287.75 332.582C291.635 341.214 297.246 347.256 288.614 345.53C279.981 343.803 273.507 348.551 268.328 358.909C263.149 369.268 251.063 363.658 247.61 352.868C244.157 342.078 245.02 336.467 236.388 336.899C227.756 337.33 231.209 346.394 223.871 348.12C216.534 349.847 195.17 344.668 190.206 337.115C185.243 329.562 188.048 324.382 190.206 327.403C192.364 330.425 195.601 336.036 197.112 332.582C198.622 329.13 194.953 325.461 196.896 323.95C198.838 322.44 192.148 321.576 189.99 323.087C187.832 324.598 179.201 322.871 178.337 318.771C177.474 314.67 178.553 312.081 178.553 312.081C178.553 312.081 168.841 316.181 161.288 300.643C153.735 285.106 158.268 278.416 158.268 278.416C158.268 278.416 135.392 282.518 128.054 267.843C120.717 253.169 114.675 257.485 109.496 264.822C104.317 272.159 78.4205 277.339 69.3569 259.643C60.2933 241.947 61.5884 229.862 55.5456 226.841C49.5028 223.82 46.9133 209.577 49.9345 204.398C50.2211 203.907 50.4607 203.435 50.6592 202.978V202.98ZM499.228 190.05C502.249 189.187 513.902 203.43 504.407 202.567C494.912 201.704 490.164 191.777 499.228 190.05ZM431.466 265.581C434.056 261.265 446.141 266.444 440.53 270.328C434.919 274.213 422.402 270.76 431.466 265.581ZM352.912 235.367C355.932 234.936 374.492 255.653 365.428 257.379C356.365 259.106 349.891 254.79 345.575 249.179C341.258 243.568 343.848 225.009 352.912 235.367ZM358.09 275.506C358.09 275.506 377.513 290.612 364.996 289.749C352.479 288.886 343.847 272.917 358.09 275.506Z" fill="#5B76A4"/>
<path fill-rule="evenodd" clip-rule="evenodd" d="M190.406 330.796C190.697 332.729 193.27 334.702 197.773 335.528C202.014 336.304 207.329 337.379 212.162 338.771C212.252 339.402 211.991 340.079 211.298 340.823C209.39 342.875 207.314 344.518 205.361 345.856C198.761 343.826 192.565 340.74 190.175 337.102C188.365 334.348 187.589 331.91 187.437 330.07C188.44 330.319 189.431 330.561 190.405 330.797L190.406 330.796ZM64.8096 249.226C67.669 245.236 70.7885 241.715 75.9335 246.906C85.1834 256.244 85.8465 258.888 88.332 260.367C90.8168 261.848 108.111 261.834 111.538 256.47C114.963 251.109 105.614 254.735 107.146 245.769C108.495 237.866 118.9 234.669 122.203 230.53L136.946 241.91C136.946 241.91 140.777 256.587 128.073 267.93L128.022 267.833C120.685 253.159 114.642 257.475 109.463 264.812C104.284 272.15 78.388 277.329 69.3244 259.633C67.4142 255.904 65.9652 252.425 64.8096 249.226V249.226ZM174.483 326.495C176.425 327.107 178.376 327.677 180.315 328.214C181.177 329.386 180.768 331.195 178.083 333.763C168.156 343.259 158.661 339.806 165.135 330.311C165.901 328.014 170.483 326.567 174.483 326.495Z" fill="#496397"/>
<path fill-rule="evenodd" clip-rule="evenodd" d="M378.399 198.864C372.859 188.217 375.887 173.695 390.603 145.888C392.011 143.225 393.903 140.535 396.203 137.836C397.794 136.869 399.368 135.898 400.907 134.933C419.873 123.085 446.145 116.195 473.666 112.854C469.224 125.634 461.905 139.021 452.606 144.395C433.183 155.616 421.099 173.312 433.183 177.197C445.269 181.081 434.478 204.387 420.667 198.777C406.856 193.166 415.056 203.525 399.95 200.504C392.821 199.078 384.444 198.229 378.4 198.864L378.399 198.864ZM499.213 190.043C502.234 189.18 513.887 203.423 504.392 202.56C494.897 201.696 490.149 191.77 499.213 190.043Z" fill="#5B76A4"/>
<path fill-rule="evenodd" clip-rule="evenodd" d="M378.399 198.864C374.75 191.844 374.826 183.138 379.516 170.048C407.685 163.337 434.058 157.54 436.212 157.068C427.806 165.908 425.141 174.612 433.184 177.197C434.216 177.529 435.078 178.005 435.789 178.59C435.292 180.6 435.185 182.298 435.956 183.455C436.569 184.379 437.421 184.779 438.418 184.847C438.372 192.648 430.248 202.668 420.668 198.777C406.857 193.166 415.057 203.525 399.951 200.503C392.821 199.077 384.442 198.229 378.398 198.864H378.399Z" fill="#496397"/>
<path fill-rule="evenodd" clip-rule="evenodd" d="M309.295 250.881C299.622 258.807 291.45 269.872 299.475 278.248C307.497 286.628 315.534 300.625 328.019 295.505C334.617 292.798 339.283 290.069 342.161 288.856C342.398 290.413 342.525 291.895 342.532 293.289C334.252 297.454 311.946 300.761 302.461 296.198C290.78 290.57 296.636 293.17 283.194 287.845C269.757 282.521 271.625 274.881 265.397 271.388C259.175 267.901 256.623 267.281 244.697 270.718C232.769 274.151 216.003 272.904 216.243 263.842C216.486 254.782 259.251 232.025 277.929 230.82C286.673 230.256 300.256 230.904 313.229 230.851C313 231.707 313.376 232.683 314.509 233.729C315.125 234.297 316.032 235.372 317.148 236.851C313.367 237.876 310.237 239.482 308.245 241.719C302.113 248.612 309.297 250.881 309.297 250.881L309.295 250.881ZM335.138 229.523C337.437 229.155 339.536 228.692 341.369 228.111C341.328 230.119 339.7 230.977 335.138 229.523ZM352.161 219.094C356.303 212.373 356.765 205.555 365.999 197.6C378.007 187.25 379.14 189.498 380.171 193.034C380.433 193.93 383.491 196.117 388.169 198.854C376.311 197.954 366.075 199.728 371.911 207.832C379.68 218.622 360.257 228.549 354.215 221.212C353.63 220.501 352.934 219.791 352.161 219.093V219.094ZM441.996 268.014C437.589 267.46 438.003 266.835 440.921 266.066C441.561 266.654 441.966 267.322 441.996 268.014ZM356.909 237.896C353.001 238.623 349.059 238.642 344.871 237.529C344.569 237.449 344.264 237.372 343.958 237.296C345.005 232.606 348.012 229.75 352.914 235.351C353.605 235.253 355.109 236.263 356.909 237.896H356.909Z" fill="#334B8B"/>
<path fill-rule="evenodd" clip-rule="evenodd" d="M273.723 316.242C273.466 323.232 269.967 329.426 255.235 326.868C233.469 323.088 231.841 333.342 243.782 335.529C255.724 337.713 276.138 342.257 270.406 349.61C269.998 350.126 269.671 350.643 269.405 351.161C262.268 350.316 251.962 347.558 248.097 349.654C247.379 350.043 247.016 350.374 246.921 350.665C244.21 341.311 244.393 336.487 236.366 336.888C227.734 337.32 231.187 346.383 223.849 348.11C216.512 349.836 195.148 344.657 190.184 337.104C185.221 329.551 188.026 324.372 190.184 327.393C192.342 330.414 195.579 336.025 197.089 332.572C198.6 329.119 194.931 325.451 196.874 323.94C198.816 322.429 192.126 321.566 189.968 323.076C187.81 324.587 179.178 322.86 178.315 318.76C178.15 317.978 178.057 317.252 178.012 316.588C193.638 302.509 218.715 288.689 236.123 295.584C236.123 295.584 270.886 305.601 273.721 316.242L273.723 316.242ZM247.081 351.213C248.78 352.947 261.37 353.261 256.091 358.463C254.945 359.59 253.872 360.457 252.919 361.16C250.61 359.127 248.673 356.248 247.588 352.857C247.408 352.295 247.24 351.747 247.081 351.213ZM164.565 338.752C164.661 335.408 165.554 331.735 167.899 327.861C173.803 325.177 186.129 326.075 178.093 333.762C172.544 339.07 167.131 340.33 164.565 338.752Z" fill="#334B8B"/>
<path fill-rule="evenodd" clip-rule="evenodd" d="M234.559 290.498C240.671 289.654 247.051 294.022 253.205 295.561C259.36 297.098 251.837 290.7 248.311 288.708C244.784 286.716 235.039 284.045 234.559 290.498Z" fill="#334B8B"/>
<path fill-rule="evenodd" clip-rule="evenodd" d="M430.869 163.897C426.999 165.321 422.176 168.891 418.416 173.297C412.166 180.611 401.102 168.888 396.808 177.911C392.502 186.928 394.07 179.785 386.007 190.596C383.542 193.898 383.302 196.589 383.93 198.669C381.297 198.623 378.849 198.747 376.771 199.089C374.303 197.113 372.663 194.42 371.756 190.315C370.008 182.401 361.183 182.524 356.735 189.972C352.291 197.425 341.536 195.589 340.182 203.267C339.758 205.688 338.57 208.31 336.997 210.878C334.347 210.333 332.943 210.972 334.343 213.461C334.474 213.693 334.611 213.933 334.754 214.179C331.561 218.47 327.699 222.257 325.141 224.197C320.466 227.738 313.308 229.8 302.397 230.025C291.485 230.251 275.183 240.191 281.259 242.201C287.331 244.21 282.176 243.827 280.243 248.868C278.31 253.913 271.133 256.237 267.257 252.575C263.381 248.913 243.594 239.399 248.884 244.983C254.179 250.565 267.751 259.871 260.712 260.388C253.669 260.901 244.421 252.693 233.747 260.198C223.074 267.705 229.388 269.989 228.325 273.805C227.263 277.616 223.929 294.485 210.001 293.449C196.072 292.413 202.495 275.769 192.351 279.683C182.201 283.596 187.171 286.56 181.568 299.113C175.961 311.669 167.232 296.493 172.072 280.253C176.915 264.012 183.506 266.056 186.701 257.994C189.895 249.932 205.391 257.827 212.27 249.001C219.152 240.177 205.085 247.951 193.718 240.358C182.351 232.77 177.77 224.645 187.325 221.725C196.879 218.804 197.224 214.162 204.735 217.834C212.241 221.504 223.058 215.567 226.007 203.854C228.951 192.145 225.431 197.585 221.441 188.468C217.451 179.355 220.186 177.48 218.506 172.165C216.828 166.86 226.167 173.772 231.514 171.58C236.867 169.383 234.67 164.034 225.745 165.436C216.823 166.859 203.384 173.118 199.213 162.951C195.043 152.782 205.45 148.888 199.61 147.153C193.775 145.429 191.533 137.216 196.227 133.417C200.915 129.614 203.603 131.892 201.279 124.713C198.96 117.536 192.991 117.613 197.492 109.389C202 101.157 207.737 104.184 209.421 102.489C211.1 100.802 209.948 91.895 221.88 84.8773C233.819 77.841 246.789 83.0979 246.78 88.4145C246.772 93.7269 248.568 92.3074 254.452 93.386C260.334 94.4724 262.088 100.572 260.124 104.319C258.158 108.063 265.157 109.879 270.581 108.462C276.004 107.059 285.115 111.875 281.863 120.713C278.608 129.55 285.47 127.986 283.58 132.518C281.685 137.05 289.422 144.626 290.791 136.686C292.161 128.75 297.502 123.175 302.574 128.225C307.645 133.267 315.958 140.112 318.335 132.505C320.72 124.903 308.309 127.873 311.159 117.445C314.008 107.024 322.768 111.312 330.399 106.432C338.026 101.548 345.628 96.9292 356.582 103.187C367.527 109.448 368.245 117.285 359.832 118.733C351.428 120.182 346.032 129.905 352.319 129.074C358.607 128.242 362.148 115.533 370.206 118.726C378.273 121.925 371.952 109.256 377.953 105.297C383.951 101.34 393.231 98.6485 387.446 92.7755C381.656 86.9024 377.154 95.1298 369.337 88.582C361.519 82.0338 357.891 64.6392 368.63 59.7339C379.378 54.829 375.825 39.7736 383.715 38.2883C391.611 36.7921 395.697 37.6196 396.158 31.426C396.597 25.5155 405.513 20.0076 415.827 19.0845C418.589 20.775 421.907 21.5424 425.072 22.0263C428.026 25.2955 428.238 29.577 430.012 26.1559C430.515 25.1927 431.162 24.1784 431.982 23.1793C439.1 25.8387 451.514 37.8415 444.403 42.9774C436.634 48.5885 448.287 62.8311 456.488 63.6945C464.689 64.5579 478.068 60.2416 476.342 68.4421C474.616 76.6427 470.731 81.8221 476.774 84.4116C482.817 87.0011 472.025 133.185 452.603 144.405C442.717 150.117 434.734 157.506 430.87 163.898L430.869 163.897ZM468.379 108.89C462.463 109.969 455.392 117.872 456.578 122.284C457.76 126.688 459.854 118.854 462.707 121.222C465.555 123.601 467.386 116.384 470.854 113.398C474.319 110.42 473.074 106.864 468.379 108.89Z" fill="#29366E"/>
<path fill-rule="evenodd" clip-rule="evenodd" d="M308.842 133.579C312.838 136.321 316.829 137.4 318.358 132.51C320.743 124.908 308.332 127.878 311.183 117.45C314.031 107.029 322.792 111.317 330.422 106.437C338.049 101.553 345.651 96.9346 356.605 103.192C367.55 109.454 368.268 117.291 359.855 118.738C351.451 120.187 346.055 129.911 352.343 129.079C358.631 128.248 362.171 115.538 370.229 118.731C378.297 121.931 371.976 109.261 377.976 105.302C383.975 101.345 393.254 98.6538 387.47 92.7808C381.679 86.9077 377.178 95.1352 369.361 88.5873C361.543 82.0391 357.914 64.6446 368.653 59.7393C379.401 54.8343 375.848 39.779 383.739 38.2937C391.634 36.7974 395.72 37.625 396.181 31.4314C396.621 25.5209 405.536 20.013 415.85 19.0898C418.612 20.7804 421.93 21.5478 425.096 22.0317C428.049 25.3009 428.261 29.5824 430.036 26.1613C430.537 25.1977 431.184 24.183 432.004 23.1839C439.122 25.8422 451.538 37.8465 444.427 42.9828C439.181 46.7718 442.79 54.4948 448.213 59.3786C446.055 68.359 444.275 76.4662 444.275 76.4662C444.275 76.4662 421.842 72.8617 418.114 88.1492C414.383 103.437 437.409 107.74 429.189 113.613C420.968 119.481 403.531 127.264 408.304 132.812C413.08 138.351 407.275 155.428 396.403 153.32C385.537 151.216 388.785 159.888 379.272 165.664C369.764 171.445 353.382 165.033 346.955 172.994C340.529 180.94 303.123 178.157 297.433 184.872C291.745 191.58 287.57 186.729 281.859 185.013C276.153 183.289 279.047 170.531 287.123 166.597C295.195 162.654 297.419 158.929 297.491 149.211C297.569 139.488 303.327 140.565 308.317 134.452C308.536 134.181 308.707 133.893 308.842 133.58L308.842 133.579Z" fill="#234182"/>
<path fill-rule="evenodd" clip-rule="evenodd" d="M202.049 127.644C201.933 126.887 201.681 125.935 201.281 124.704C198.963 117.527 192.993 117.604 197.494 109.38C202.002 101.148 207.74 104.175 209.423 102.479C210.74 101.158 210.315 95.4121 215.794 89.6108C212.142 98.5595 212.942 108.8 219.708 113.576C228.951 120.107 219.413 134.956 229.28 133.095C239.147 131.235 238.593 147.412 224.905 148.333C211.219 149.26 218.866 133.621 208.239 128.286C206.278 127.301 204.186 127.196 202.049 127.644V127.644Z" fill="#234182"/>
<path fill-rule="evenodd" clip-rule="evenodd" d="M228.473 265.095C225.858 268.997 229.128 270.987 228.341 273.815C227.279 277.626 223.945 294.495 210.017 293.459C196.088 292.423 202.511 275.779 192.366 279.693C182.217 283.606 187.186 286.571 181.584 299.123C175.976 311.68 167.248 296.503 172.087 280.263C176.931 264.023 183.522 266.066 186.716 258.004C186.844 257.682 186.99 257.392 187.152 257.124C187.966 257.293 188.76 257.545 189.534 257.909C210.836 267.922 202.317 251.725 220.873 255.055C234.227 257.446 228.757 260.116 228.473 265.095Z" fill="#234182"/>
<path fill-rule="evenodd" clip-rule="evenodd" d="M388.606 94.1884C388.318 93.7227 387.94 93.2505 387.452 92.7587C381.662 86.8857 377.16 95.1131 369.343 88.5652C369.007 88.2783 368.673 87.9573 368.35 87.6372C370.266 84.3184 374.427 79.4014 379.709 76.1852C387.316 71.5702 380.277 65.0689 386.465 58.538C392.662 51.9849 396.626 50.9821 396.626 50.9821C396.626 50.9821 389.855 45.3547 385.095 38.0209C392.087 36.8558 395.731 37.229 396.164 31.4088C396.603 25.4984 405.519 19.9905 415.833 19.0674C418.595 20.7579 421.913 21.5253 425.078 22.0092C428.032 25.2784 428.244 29.56 430.018 26.1388C430.52 25.1756 431.168 24.1613 431.988 23.1622C439.106 25.8216 451.52 37.8244 444.409 42.9603C443.714 43.4627 443.176 44.0354 442.776 44.6603C441.274 43.9019 438.895 43.437 436.342 43.5636C429.618 43.3251 415.535 51.3525 414.66 59.5883C413.789 67.824 416.602 75.2976 422.581 68.2159C428.551 61.1453 428.072 67.5884 433.492 60.9892C438.906 54.3892 435.514 51.2791 441.651 48.8889L441.896 48.7902C442.436 54.114 448.074 60.5151 453.44 62.829C452.822 63.6244 452.194 64.5718 451.567 65.7043C446.469 74.935 454.207 82.5016 457.301 82.7319C460.399 82.9625 453.592 90.768 444.997 87.794C436.398 84.8091 419.851 84.1019 423.226 94.4753C426.603 104.837 431.568 107.805 424.568 107.797C417.566 107.796 409.235 108.219 407.797 113.554C406.364 118.894 392.538 112.939 391.206 120.366C389.875 127.788 405.418 138.539 398.322 139.827C391.221 141.11 371.538 133.683 371.494 148.211C371.459 162.734 365.07 164.857 355.095 159.443C345.123 154.029 341.352 145.448 346.992 139.383C352.627 133.322 356.678 124.278 361.892 123.887C367.11 123.499 373.861 126.855 376.76 119.291C379.66 111.724 384.655 110.799 391.333 108.186C398.013 105.563 395.194 105.099 399.781 99.2098C404.369 93.3345 414.417 87.3298 408.96 87.4474C403.505 87.554 398.804 87.9903 398.152 82.7493C397.511 77.5438 397.229 91.6303 388.605 94.1884H388.606Z" fill="#272D5A"/>
<path fill-rule="evenodd" clip-rule="evenodd" d="M352.844 193.874C350.494 195.382 347.789 196.234 345.478 197.341C343.127 196.378 341.193 194.613 339.524 197.72C338.629 199.405 339.239 201.27 340.178 203.285C339.749 205.703 338.563 208.318 336.994 210.878C334.344 210.333 332.94 210.972 334.34 213.461C334.471 213.693 334.608 213.933 334.75 214.178C333.957 215.244 333.124 216.279 332.279 217.262C331.155 216.365 330.458 215.027 330.579 213.401C330.982 207.984 327.857 204.636 319.982 205.87C312.111 207.096 317.885 192.225 313.607 186.976C309.325 181.731 304.893 192.554 298.77 194.689C292.644 196.827 291.54 176.775 301.425 169.464C311.305 162.166 320.51 170.884 320.51 170.884C320.51 170.884 320.776 156.899 324.928 160.326C329.088 163.742 332.4 164.51 339.528 159.334C346.659 154.152 355.487 164.407 357.638 173.904C359.157 180.613 356.146 189.047 352.844 193.874Z" fill="#272D5A"/>
<path fill-rule="evenodd" clip-rule="evenodd" d="M224.504 208.051C225.116 206.749 225.619 205.354 225.998 203.859C228.942 192.15 225.423 197.59 221.432 188.472C217.442 179.359 220.177 177.485 218.497 172.17C218.434 171.981 218.392 171.801 218.36 171.647C220.388 171.398 222.872 171.334 225.251 171.497C226.536 171.812 227.865 172.045 229.119 172.026C232.595 172.793 234.843 174.307 233.162 176.85C229.071 183.025 236.133 189.257 241.032 189.621C245.937 189.985 246.97 207.446 239.92 204.585C232.869 201.727 236.702 212.908 229.735 212.39C225.879 212.103 225.369 210.628 224.504 208.05V208.051Z" fill="#272D5A"/>
<path fill-rule="evenodd" clip-rule="evenodd" d="M196.567 241.922C195.61 241.485 194.658 240.971 193.724 240.346C182.357 232.759 177.776 224.634 187.331 221.713C196.885 218.793 197.23 214.151 204.74 217.823C205.633 218.264 206.575 218.559 207.548 218.73C201.687 222.261 197.114 232.721 204.114 236.146C208.428 238.257 203.347 241.123 196.567 241.922V241.922Z" fill="#272D5A"/>
<path fill-rule="evenodd" clip-rule="evenodd" d="M285.328 183.554C283.215 180.545 282.935 180.777 276.126 185.202C269.313 189.621 256.047 186.561 256.047 186.561C256.047 186.561 256.437 191.778 265.03 191.377C273.618 190.983 271.83 197.592 278.594 197.317C285.361 197.041 290.433 188.082 285.328 183.554Z" fill="#272D5A"/>
<path fill-rule="evenodd" clip-rule="evenodd" d="M411.779 15.1805C407.547 18.1643 403.209 23.6449 398.523 26.6412C390.346 31.8625 392.229 19.6832 382.932 18.3423C373.625 17.0124 371.753 11.6807 380.151 7.76241C381.705 7.03811 383.515 6.03184 385.384 4.79342C385.911 5.48483 386.585 6.13354 387.424 6.71457C393.034 10.5988 399.509 8.00888 398.646 1.96647C397.782 -4.07593 407.277 4.98773 410.73 13.1883C411.035 13.9111 411.387 14.5722 411.779 15.1801L411.779 15.1805Z" fill="#5FB3DE"/>
<path fill-rule="evenodd" clip-rule="evenodd" d="M67.7166 175.843C61.7324 173.452 49.2813 181.769 56.6491 182.966C64.0172 184.159 67.6149 185.89 65.8888 189.487C64.1624 193.09 69.1784 195.408 72.5546 191.443C75.9259 187.481 71.7237 176.468 67.7166 175.843Z" fill="#5FB3DE"/>
<path fill-rule="evenodd" clip-rule="evenodd" d="M87.9977 186.578C85.3632 184.92 82.5019 190.705 85.5421 191.254C88.5776 191.807 87.1615 193.484 88.5115 194.883C89.8705 196.28 93.0969 196.52 93.0115 193.273C92.9265 190.022 88.9492 186.809 87.9977 186.578Z" fill="#5FB3DE"/>
<path fill-rule="evenodd" clip-rule="evenodd" d="M54.1601 190.208C52.5218 189.486 50.9083 189.171 49.4639 189.142L49.4873 189.277C49.7255 190.546 49.9927 191.684 50.2517 192.729C50.7514 192.765 51.1926 192.825 51.5268 192.929C53.5878 193.57 55.8291 191.791 54.1601 190.208Z" fill="#5FB3DE"/>
<path fill-rule="evenodd" clip-rule="evenodd" d="M334.472 24.631C334.016 30.757 342.456 34.9489 347.508 32.4097C352.563 29.8709 360.109 24.2723 360.754 33.0762C361.398 41.8801 350.306 38.4589 348.948 43.5389C347.6 48.6306 332.539 46.2127 325.781 41.1664C319.026 36.1326 318.803 26.0619 322.216 23.7196C325.63 21.3887 332.754 21.5883 334.472 24.6314V24.631Z" fill="#5FB3DE"/>
<path fill-rule="evenodd" clip-rule="evenodd" d="M400.249 200.565C400.339 200.389 400.326 200.314 400.326 200.314C400.326 200.314 399.786 200.333 398.933 200.311C396.667 199.882 394.295 199.514 391.927 199.234C391.163 198.969 390.451 198.641 389.848 198.235C386.39 195.904 386.716 191.517 386.716 191.517C386.716 191.517 394.955 195.762 410.399 190.426L425.838 185.086C425.838 185.086 424.584 191.482 416.36 193.981C408.132 196.484 407.857 196.722 407.857 196.722C407.857 196.722 408.609 197.838 410.61 198.839C409.105 200.29 407.266 201.911 400.249 200.566L400.249 200.565Z" fill="#8BCAC4"/>
<path fill-rule="evenodd" clip-rule="evenodd" d="M366.151 206.576C366.151 206.576 362.424 214.858 354.356 218.668C354.356 218.668 361.521 219.979 365.287 218.186L358.246 223.538C356.644 223.209 355.228 222.461 354.2 221.213C352.969 219.718 351.253 218.223 349.336 216.848C353.26 214.162 360.838 212.798 366.151 206.576V206.576ZM340.665 229.751C340.137 229.844 339.669 230.012 339.242 230.237C338.211 230.319 336.758 230.074 334.778 229.413C333.524 228.995 332.271 228.651 331.034 228.374C333.536 226.757 337.019 225.841 340.924 225.79C341.509 227.588 341.565 229.031 340.665 229.751Z" fill="#8BCAC4"/>
<path fill-rule="evenodd" clip-rule="evenodd" d="M310.732 240.334C309.087 241.506 305.893 249.564 298.676 259.406C291.46 269.249 287.169 274.635 274.305 273.162C261.447 271.685 262.241 264.481 266.704 263.776C271.167 263.065 275.838 263.026 282.87 259.139C289.907 255.256 291.406 250.823 291.406 250.823C291.406 250.823 284.403 256.008 278.286 256.336C272.165 256.655 270.184 255.342 270.184 255.342C270.184 255.342 280.897 254.32 283.814 250.001C286.724 245.678 286.63 245.284 286.63 245.284C286.63 245.284 276.187 247.876 274.573 245.166C272.96 242.451 286.936 235.836 297.33 235.572C307.724 235.304 310.732 240.334 310.732 240.334H310.732Z" fill="#8BCAC4"/>
<path fill-rule="evenodd" clip-rule="evenodd" d="M263.516 247.328C263.516 247.328 260.815 248.684 254.046 245.586C247.275 242.487 244.138 242.775 246.393 247.349C248.647 251.927 263.228 251.2 263.516 247.328Z" fill="#8BCAC4"/>
<path fill-rule="evenodd" clip-rule="evenodd" d="M260.795 259.576C257.938 259.622 247.487 260.66 239.779 266.575C232.076 272.486 224.167 274.231 223.519 268.993C222.872 263.76 226.254 260.122 235.751 257.971C245.248 255.826 260.795 259.576 260.795 259.576Z" fill="#8BCAC4"/>
<path fill-rule="evenodd" clip-rule="evenodd" d="M204.733 232.055C207.057 232.228 224.045 234.013 220.813 235.589C217.585 237.163 206.691 237.132 204.733 232.055Z" fill="#8BCAC4"/>
<path fill-rule="evenodd" clip-rule="evenodd" d="M167.194 235.307C167.194 235.307 160.795 236.995 157.697 240.869C154.599 244.748 151.335 247.96 150.283 244.642C149.234 241.32 145.082 239.066 138.454 240.948C131.829 242.835 131.615 242.819 131.615 242.819C131.615 242.819 136.669 235.845 143.764 236.373C150.859 236.9 153.722 239.059 154.779 236.543C155.827 234.026 164.294 233.58 167.195 235.307H167.194Z" fill="#3D2E6B"/>
<path fill-rule="evenodd" clip-rule="evenodd" d="M127.993 230.014C126.754 229.276 114.737 225.138 107.879 227.223C101.024 229.307 101.008 229.521 101.008 229.521C101.008 229.521 102.802 225.765 112.007 224.07C121.211 222.38 128.463 226.59 127.993 230.014Z" fill="#3D2E6B"/>
<path fill-rule="evenodd" clip-rule="evenodd" d="M63.3764 244.908C64.0758 246.666 64.7487 248.574 65.2972 250.497C66.3704 253.34 67.6822 256.391 69.3417 259.631C71.4296 263.708 74.4114 266.567 77.8269 268.469C79.5916 267.265 81.2107 265.907 82.6464 264.484C88.2515 258.934 95.5323 258.697 92.0503 263.626C89.9412 266.616 86.7953 269.432 85.4019 271.126C86.3934 271.307 87.3933 271.433 88.3928 271.511C92.601 268.804 98.919 262.861 100.945 266.104C103.495 270.183 112.165 261.749 109.143 260.488C106.126 259.222 104.507 263.511 105.646 258.669C106.785 253.828 103.635 247.367 101.322 250.568C99.0109 253.765 94.3362 257.312 93.7268 251.556C93.1185 245.805 102.076 233.499 90.5544 227.974C79.0351 222.448 76.9919 215.032 73.1307 211.114C69.2744 207.195 53.6838 224.973 56.5205 225.184C59.3584 225.395 70.308 224.652 71.2428 233.022C72.1735 241.391 68.1838 239.278 66.8104 236.839C65.8253 235.097 62.5992 234.916 60.7 235.609C61.4704 238.232 62.2639 241.351 63.3768 244.908L63.3764 244.908Z" fill="#32BBDB"/>
<path fill-rule="evenodd" clip-rule="evenodd" d="M141.111 196.407L139.485 185.747L129.581 184.234L139.448 182.458L140.884 171.797L142.51 182.458L152.414 183.97L142.51 185.709L141.111 196.407Z" fill="#32BBDB"/>
<path fill-rule="evenodd" clip-rule="evenodd" d="M194.11 198.41C196.834 198.359 199.057 200.697 199.075 203.629C199.093 206.564 196.899 208.987 194.176 209.038C191.457 209.09 189.234 206.752 189.216 203.82C189.197 200.885 191.392 198.462 194.11 198.41Z" fill="#32BBDB"/>
<path fill-rule="evenodd" clip-rule="evenodd" d="M48.7129 212.208C49.8285 212.986 50.5686 214.336 50.5781 215.883C50.5837 216.827 50.3173 217.706 49.8587 218.436C49.2425 216.414 48.8524 214.259 48.7129 212.208Z" fill="#32BBDB"/>
<path fill-rule="evenodd" clip-rule="evenodd" d="M194.451 170.285C195.416 170.267 196.202 171.097 196.206 172.133C196.21 173.175 195.432 174.029 194.472 174.049C193.515 174.068 192.725 173.238 192.72 172.205C192.716 171.164 193.49 170.305 194.451 170.285Z" fill="#32BBDB"/>
<path fill-rule="evenodd" clip-rule="evenodd" d="M435.179 120.537C437.778 120.48 439.905 122.721 439.924 125.528C439.944 128.34 437.843 130.658 435.24 130.704C432.634 130.752 430.507 128.519 430.491 125.712C430.477 122.902 432.572 120.584 435.179 120.537Z" fill="white"/>
<path fill-rule="evenodd" clip-rule="evenodd" d="M454.647 63.3034C454.057 63.6221 453.44 63.9506 452.788 64.2904C433.221 74.5081 402.336 79.9896 408.408 68.1225C408.408 68.1225 425.107 61.5811 428.407 52.1028C431.703 42.6185 433.811 31.7479 422.914 38.7206C412.017 45.6937 395.082 55.4578 383.712 51.3717C372.343 47.2772 366.277 41.6413 374.66 42.2646C383.047 42.8888 407.532 36.2808 415.582 23.9117C416.475 22.541 417.192 21.2769 417.774 20.0967C421.764 21.8534 426.469 22.2068 430.18 22.702C436.654 23.5655 452.192 37.3763 444.423 42.9878C437.227 48.1853 446.695 60.7876 454.648 63.3034H454.647Z" fill="#5B76A4"/>
<path fill-rule="evenodd" clip-rule="evenodd" d="M415.408 34.9132C415.469 29.4688 417.436 24.8822 421.112 21.2319C423.087 21.7483 425.115 22.0522 427.028 22.2972C421.861 26.0386 417.303 30.3772 415.408 34.9128V34.9132Z" fill="#334B8B"/>
<path fill-rule="evenodd" clip-rule="evenodd" d="M336.362 35.2538C329.23 38.1786 320.437 40.1183 313.781 48.2724C307.12 56.4215 288.106 56.3028 292.215 59.2019C296.323 62.1025 304.971 56.2616 317.169 55.0043C329.366 53.7515 331.522 42.239 336.362 35.2534V35.2538Z" fill="#5B76A4"/>
<path fill-rule="evenodd" clip-rule="evenodd" d="M231.195 77.593C237.087 79.7648 240.624 78.7328 248.043 71.9317C255.468 65.1389 275.184 67.466 271.09 70.1905C266.994 72.9111 287.551 69.6855 286.044 72.5989C284.532 75.5101 270.034 72.707 264.174 81.7797C258.314 90.8535 253.297 82.6968 244.044 85.0368C234.795 87.3745 212.865 85.7429 212.865 85.7429C212.865 85.7429 231.37 81.0656 223.666 80.0668C215.956 79.0583 219.304 68.9335 226.977 70.3647C234.65 71.7997 231.194 77.593 231.194 77.593H231.195Z" fill="#5B76A4"/>
<path fill-rule="evenodd" clip-rule="evenodd" d="M26.5833 208.617C25.2696 208.494 24.1144 209.544 23.9987 210.958C23.8856 212.376 24.8587 213.623 26.1697 213.746C27.4818 213.868 28.639 212.821 28.7516 211.405C28.8658 209.989 27.8943 208.74 26.5833 208.617Z" fill="#FFCC00"/>
<path fill-rule="evenodd" clip-rule="evenodd" d="M395.146 218.484L394.011 225.893L387.131 226.952L394.011 228.161L394.994 235.571L396.091 228.161L402.971 227.103L396.128 225.893L395.146 218.484Z" fill="#FFCC00"/>
<path fill-rule="evenodd" clip-rule="evenodd" d="M456.726 165.749C455.412 165.626 454.257 166.676 454.141 168.09C454.029 169.508 455.002 170.755 456.313 170.878C457.625 171 458.782 169.953 458.894 168.537C459.009 167.121 458.037 165.872 456.726 165.749Z" fill="#FFCC00"/>
<path fill-rule="evenodd" clip-rule="evenodd" d="M6.72176 247.932C5.40811 247.809 4.25248 248.859 4.1368 250.273C4.02415 251.691 4.99718 252.938 6.30781 253.061C7.62032 253.183 8.77709 252.136 8.89012 250.72C9.00429 249.304 8.03276 248.055 6.72176 247.932Z" fill="#FFCC00"/>
<path fill-rule="evenodd" clip-rule="evenodd" d="M386.035 273.26C384.722 273.137 383.566 274.187 383.45 275.602C383.338 277.019 384.311 278.267 385.621 278.39C386.934 278.511 388.091 277.464 388.204 276.048C388.318 274.632 387.346 273.384 386.035 273.26Z" fill="#FFCC00"/>
<path fill-rule="evenodd" clip-rule="evenodd" d="M118.391 300.1L117.295 307.509L110.415 308.568L117.257 309.778L118.24 317.187L119.374 309.815L126.254 308.757L119.374 307.547L118.391 300.1Z" fill="#FFCC00"/>
<path fill-rule="evenodd" clip-rule="evenodd" d="M214.297 309.74L213.163 317.15L206.32 318.208L213.163 319.418L214.145 326.827L215.28 319.418L222.16 318.359L215.28 317.15L214.297 309.74Z" fill="#FFCC00"/>
</svg>
