<svg width="695" height="644" viewBox="0 0 695 644" fill="none" xmlns="http://www.w3.org/2000/svg">
<path fill-rule="evenodd" clip-rule="evenodd" d="M417.51 378.43C422.244 378.782 426.947 379.223 431.64 379.709C432.512 384.135 433.403 392.16 429.467 395.977C423.879 401.391 428.626 416.012 439.426 410.336C450.223 404.649 462.478 405.561 454.305 410.794C446.134 416.016 458.119 429.239 446.915 431.65C435.717 434.051 432.609 440.959 436.378 442.526C440.154 444.105 432.697 457.179 428.327 454.907C423.956 452.635 421.624 462.186 416.134 457.553C410.642 452.943 407.241 441.987 413.689 442.467C420.138 442.947 421.719 430.425 413.738 433.065C405.762 435.717 409.614 449.292 400.38 446.988C391.149 444.684 392.588 434.077 383.296 428.205C374.005 422.322 366.194 413.952 372.173 403.387C372.173 403.387 354.23 409.18 364.689 425.523C375.147 441.866 387.804 446.053 379.199 457.083C370.598 468.126 356.745 462.552 359.85 473.156C362.951 483.76 348.41 470.028 341.529 475.357C334.648 480.686 326.338 479.089 327.45 468.469C328.563 457.849 317.767 454.78 317.767 454.78C317.767 454.78 327.484 463.609 320.177 474.737C312.859 485.875 303.893 480.016 303.893 480.016C303.893 480.016 302.846 480.906 309.485 487.559C316.125 494.213 306.123 502.225 306.123 502.225C306.123 502.225 315.415 499.352 317.886 505.366C317.886 505.366 304.81 502.458 300.955 515.128C297.084 527.82 279.753 529.776 288.266 532.995C296.783 536.224 300.217 551.072 291.245 553.972C282.274 556.866 281.521 562.655 286.656 572.115C291.786 581.576 273.682 580.87 265.834 577.373C257.988 573.867 262.079 592.979 246.324 591.158C230.569 589.336 236.56 574.223 230.352 570.513C224.142 566.815 206.557 567.779 198.964 574.021C191.365 580.262 186.189 593.174 193.557 594.371C200.925 595.56 203.663 589.284 206.798 595.034C209.938 600.775 220.93 592.513 217.908 602.667C214.881 612.821 201.343 603.058 196.241 606.241C191.14 609.431 193.943 613.044 199.473 612.806C205.003 612.567 211.495 614.673 208.972 622.424C206.451 630.184 190.981 633.254 190.085 627.834C189.194 622.416 193.115 613.306 188.022 614.218C182.924 615.142 189.488 620.652 180.212 621.102C170.937 621.544 178.073 625.8 170.846 627.044C163.624 628.297 151.126 626.226 154.501 631.021C156.106 633.301 157.149 636.202 155.892 638.824C152.118 640.776 147.083 643.174 141.639 645.198C141.465 645.218 141.292 645.239 141.114 645.258C123.461 647.189 124.823 637.567 111.62 632.045C109.022 630.958 106.106 630.426 103.023 630.257C99.0082 615.506 104.436 611.454 113.638 604.237C124.643 595.604 122.485 586.326 111.695 583.736C100.905 581.147 98.7474 571.651 101.768 564.314C104.789 556.977 97.8836 564.746 90.1151 566.04C82.3459 567.335 81.4825 549.639 74.577 559.567C67.6716 569.493 49.9757 568.198 48.2492 558.703C46.5228 549.208 53.8603 545.323 53.4286 541.439C53.2215 539.575 49.733 540.593 44.6345 540.63C39.6646 536.536 34.5586 539.41 38.0765 531.684C42.4166 522.153 49.4143 511.777 57.6312 512.9C65.8465 514.035 93.7457 515.598 87.8814 503.742C82.0197 491.897 76.2884 485.242 88.8264 484.103C101.359 482.962 110.073 491.387 112.559 485.868C115.043 480.348 105.374 484.81 106.543 476.084C107.709 467.346 125.294 468.13 135.954 464.266C146.617 460.391 136.415 458.072 141.558 451.703C146.698 445.356 157.342 462.737 157.592 452.383C157.84 442.029 161.535 427.251 175.994 435.079C190.46 442.896 196.639 429.077 196.639 429.077C196.639 429.077 231.196 399.322 302.222 383.668C339.509 377.424 378.134 375.503 417.509 378.433L417.51 378.43ZM62.0579 603.051C65.0787 602.187 75.0053 620.315 65.51 620.315C56.0151 620.315 43.4986 603.913 62.0579 603.051ZM72.8476 580.607C76.3005 578.017 98.744 581.471 90.5434 590.966C82.3429 600.461 56.4468 590.966 72.8476 580.607Z" fill="#1581B1"/>
<path fill-rule="evenodd" clip-rule="evenodd" d="M459.131 383.382C460.121 383.543 461.11 383.707 462.098 383.873C461.951 384.522 461.846 385.176 461.78 385.826C461.038 384.946 460.137 384.135 459.131 383.382H459.131ZM471.315 401.335C469.084 398.721 467.144 396.643 465.788 395.41L463.259 394.939C461.129 404.185 467.193 408.223 470.738 402.281C470.931 401.956 471.123 401.641 471.315 401.335V401.335Z" fill="#5FB3DE"/>
<path fill-rule="evenodd" clip-rule="evenodd" d="M462.836 456.153C469.586 456.985 485.981 458.854 482.05 463.742C478.12 468.642 468.424 468.251 467.92 475.022C467.416 481.794 454.324 483.404 447.985 477.103C441.643 470.79 443.19 463.128 448.337 459.298C453.485 455.457 462.836 456.153 462.836 456.153Z" fill="#5FB3DE"/>
<path fill-rule="evenodd" clip-rule="evenodd" d="M445.333 445.152C448.117 444.87 457.858 444.626 455.617 446.407C453.381 448.187 448.447 449.107 450.454 450.395C452.472 451.684 449.355 454.367 445.759 454.749C442.163 455.13 438.918 452.942 439.89 450.748C440.868 448.544 442.202 445.888 445.333 445.152Z" fill="#5FB3DE"/>
<path fill-rule="evenodd" clip-rule="evenodd" d="M287.166 555.839C282.199 559.093 282.452 564.37 286.656 572.118C291.787 581.579 273.682 580.873 265.835 577.376C259.725 574.649 260.85 585.629 254.208 589.772C252.052 590.107 249.615 590.713 247.166 591.241C246.888 591.22 246.609 591.2 246.324 591.161C235.592 589.924 234.951 582.51 233.667 576.738C236.19 571.411 240.698 566.44 243.216 562.049C247.309 554.897 237.802 547.706 232.905 543.774C228.008 539.844 232.407 533.043 237.423 526.596C242.445 520.161 238.788 516.974 230.799 515.412C222.808 513.85 222.234 482.347 228.291 475.02C234.349 467.682 239.869 463.231 247.467 456.987C257.077 454.138 251.268 462.462 248.092 470.332C244.913 478.192 254.039 468.828 260.799 465.106C267.56 461.396 272.25 472.448 271.642 476.286C271.029 480.134 266.002 473.612 261.296 475.846C256.594 478.092 261.309 480.06 270.323 485.274C279.341 490.488 265.152 489.432 267.535 500.95C269.921 512.48 256.523 509.536 249.642 514.865C242.762 520.183 253.652 521.973 258.86 530.467C264.062 538.961 279.072 533.269 281.224 539.27C283.073 544.428 288.041 549.832 287.165 555.837L287.166 555.839Z" fill="#2B8EBF"/>
<path fill-rule="evenodd" clip-rule="evenodd" d="M306.106 383.004C310.307 382.327 314.531 381.73 318.766 381.18C321.389 384.574 326.549 392.245 323.257 396.464C318.958 401.974 329.096 409.537 337.014 412.073C344.932 414.609 339.975 424.625 330.275 424.222C320.577 423.819 317.195 430.058 320.259 436.765C323.331 443.483 311.125 463.651 301.422 459.035C291.713 454.43 299.359 447.541 293.917 442.263C288.47 436.996 280.027 424.048 286.121 420.619C292.216 417.178 298.556 414.723 295.407 404.765C292.254 394.806 305.869 394.851 305.827 386.741C305.821 385.318 305.909 384.072 306.106 383.004Z" fill="#2B8EBF"/>
<path fill-rule="evenodd" clip-rule="evenodd" d="M420.648 378.695C427.276 379.245 433.867 379.894 440.407 380.7C441.887 382.916 443.235 385.328 444.336 387.71C435.919 388.587 431.04 389.567 437.638 390.457C439.338 390.685 442.224 391.162 446.005 391.807C447.259 395.43 447.779 398.691 447.146 400.819C444.984 408.139 434.641 407.711 429.928 405.664C425.219 403.606 429.569 397.473 424.467 387.575C422.519 383.786 421.35 380.944 420.648 378.694V378.695Z" fill="#2B8EBF"/>
<path fill-rule="evenodd" clip-rule="evenodd" d="M160.651 438.234C161.466 439.422 161.875 440.637 161.545 441.773C160.15 446.6 164.275 446.906 166.629 443.199C168.979 439.48 176.467 443.407 177.747 447.134C177.747 447.134 173.335 443.686 169.512 446.26C165.689 448.834 168.986 456.867 174.878 457.817C180.771 458.768 181.512 452.344 181.512 452.344C181.512 452.344 189.03 452.38 194.071 461.317C199.112 470.255 189.473 477.838 194.917 481.352C200.361 484.876 204.383 490.094 198.536 492.005C192.689 493.904 187.888 502.622 193.683 504.875C199.486 507.105 203.201 502.463 209.503 515.377C215.808 528.302 218.41 538.618 212.584 540.257C206.756 541.894 211.227 544.558 215.7 547.232C220.171 549.896 219.238 565.911 200.117 575.379C180.992 584.851 178.454 577.14 173.8 573.421C169.15 569.702 157.33 571.68 160.198 567.999C163.066 564.319 164.309 554.561 160.1 551.912C155.885 549.266 157.507 555.346 150.687 556.392C143.862 557.451 147.799 560.33 143.278 568.818C138.758 577.303 132.901 568.822 129.934 563.416C126.963 558.006 118.44 553.994 113.125 562.682C107.81 571.361 113.358 576.968 117.053 579.574C119.306 581.163 120.653 585.865 119.862 588.949C118.455 586.55 115.656 584.691 111.685 583.738C100.895 581.149 98.7376 571.653 101.758 564.316C104.78 556.979 97.8738 564.748 90.1054 566.042C82.3361 567.337 81.4727 549.641 74.5672 559.569C67.6618 569.495 49.9659 568.2 48.2395 558.705C46.513 549.21 53.8505 545.325 53.4188 541.441C53.2117 539.577 49.7232 540.595 44.6248 540.632C39.6548 536.538 34.5488 539.412 38.0667 531.686C42.4069 522.155 49.4045 511.779 57.6214 512.903C65.8367 514.037 93.7359 515.601 87.8716 503.744C82.0099 491.899 76.2786 485.244 88.8166 484.105C101.349 482.965 110.063 491.389 112.549 485.87C115.033 480.35 105.364 484.812 106.534 476.086C107.699 467.348 125.284 468.132 135.944 464.268C146.607 460.393 136.405 458.074 141.548 451.705C146.689 445.358 157.332 462.739 157.582 452.385C157.69 447.748 158.498 442.217 160.652 438.233L160.651 438.234ZM88.6295 592.647C86.8116 589.976 88.797 583.09 83.9106 582.295C78.0171 581.344 72.2189 582.466 68.6999 586.227C68.3128 586.64 67.9196 586.912 67.5223 587.071C67.7004 585.084 69.2643 582.868 72.8382 580.61C76.2911 578.021 98.7346 581.474 90.534 590.969C89.9757 591.616 89.333 592.171 88.6295 592.647Z" fill="#2B346E"/>
<path fill-rule="evenodd" clip-rule="evenodd" d="M63.9176 538.26C66.3162 540.904 75.2142 545.069 81.7038 548.533C88.1881 551.997 89.9698 554.205 86.7928 556.821C85.7551 557.675 83.8639 558.467 81.6237 559.028C79.7093 556.347 77.8003 554.936 74.5655 559.586C74.5008 559.679 74.4332 559.769 74.3667 559.86C71.7862 559.794 69.3831 559.283 67.7595 558.129C63.0799 554.803 58.1576 546.003 58.2933 542.387C58.4331 538.765 59.6247 534.96 63.9176 538.261V538.26Z" fill="#32BBDB"/>
<path fill-rule="evenodd" clip-rule="evenodd" d="M96.7002 547.447C101.401 547.017 111.366 545.554 110.019 549.736C108.671 553.913 98.3306 553.402 96.6442 551.719C94.9499 550.039 95.512 547.749 96.7002 547.447Z" fill="#32BBDB"/>
<path fill-rule="evenodd" clip-rule="evenodd" d="M90.5877 519.737C88.2367 516.454 82.245 516.782 84.1192 519.518C85.9912 522.242 94.6938 527.295 90.5877 519.737Z" fill="#32BBDB"/>
<path fill-rule="evenodd" clip-rule="evenodd" d="M59.9635 516.448C56.2256 514.348 52.9129 513.589 53.2724 515.689C53.6376 517.788 56.224 521.362 59.9635 516.448Z" fill="#32BBDB"/>
<path fill-rule="evenodd" clip-rule="evenodd" d="M160.651 438.234C161.466 439.422 161.875 440.637 161.545 441.773C160.15 446.6 164.275 446.906 166.629 443.199C168.979 439.48 176.467 443.407 177.747 447.134C177.747 447.134 173.335 443.686 169.512 446.26C165.689 448.834 168.985 456.867 174.878 457.817C180.771 458.768 181.512 452.344 181.512 452.344C181.512 452.344 189.03 452.38 194.071 461.317C199.112 470.255 189.473 477.838 194.917 481.352C200.361 484.876 204.383 490.094 198.536 492.005C196.75 492.578 195.063 493.796 193.74 495.269C191.531 495.23 189.687 495.081 188.411 494.895C179.105 493.554 155.803 497.332 156.035 489.891C156.265 482.45 137.871 485.625 132.629 481.99C127.382 478.366 122.563 473.464 122.404 479.931C122.249 486.41 120.766 488.884 115.226 484.919C112.534 482.977 110.199 481.46 107.513 480.725C106.696 479.844 106.215 478.453 106.533 476.086C107.699 467.348 125.283 468.132 135.944 464.268C146.607 460.393 136.405 458.074 141.548 451.705C146.688 445.358 157.332 462.739 157.581 452.385C157.69 447.748 158.497 442.217 160.652 438.233L160.651 438.234Z" fill="#272D5A"/>
<path fill-rule="evenodd" clip-rule="evenodd" d="M167.104 522.006C164.74 518.915 161.581 511.222 158.604 514.234C155.62 517.257 157.333 522.577 160.865 525.265C164.389 527.963 168.702 526.667 167.104 522.006Z" fill="#272D5A"/>
<path fill-rule="evenodd" clip-rule="evenodd" d="M213.375 545.821C214.118 546.289 214.914 546.766 215.717 547.247C220.187 549.911 219.254 565.926 200.134 575.394C181.009 584.866 178.471 577.155 173.817 573.436C169.167 569.717 157.347 571.694 160.215 568.014C163.083 564.334 164.326 554.576 160.116 551.927C157.518 550.292 157.14 551.977 155.629 553.757C154.796 549.862 152.985 546.336 152.985 546.336C147.803 541.897 148.002 534.943 153.69 534.716C159.381 534.502 160.091 535.841 166.169 532.571C172.252 529.288 176.796 531.414 182.49 531.177C188.177 530.963 197.179 529.845 200.157 535.577C203.134 541.315 193.253 547.701 202.08 546.745C205.516 546.367 209.689 545.676 213.376 545.821L213.375 545.821Z" fill="#272D5A"/>
<path fill-rule="evenodd" clip-rule="evenodd" d="M395.547 466.057C393.721 466.184 397.448 471.903 391.915 473.052C386.382 474.2 389.781 466.926 387.035 465.424C384.295 463.922 379.298 473.536 383.283 475.78C387.264 478.023 389.721 485.083 382.868 484.824C376.01 484.587 375.267 480.626 374.425 476.293C373.58 471.949 369.445 476.948 369.564 482.41C369.673 487.873 377.806 500.536 386.481 498.972C395.162 497.42 399.854 505.796 407.868 502.646C415.891 499.486 420.983 497.257 421.169 489.494C421.359 481.732 410.958 480.309 409.472 477.602C407.987 474.896 409.453 470.86 405.383 468.087C401.308 465.313 396.635 465.364 395.547 466.057V466.057Z" fill="#1671A6"/>
<path fill-rule="evenodd" clip-rule="evenodd" d="M330.904 494.334C334.631 493.04 338.485 486.586 340.278 490.351C342.073 494.117 348.86 486.583 350.818 491.659C352.773 496.734 355.822 494.092 359.886 491.81C363.946 489.516 364.762 492.434 367.907 495.515C371.049 498.606 362.423 499.524 363.884 504.302C365.343 509.079 363.239 516.448 359.485 514.609C355.732 512.77 355.054 504.419 351.967 507.56C348.882 510.7 342.048 515.396 340.492 511.898C338.935 508.412 338.71 504.502 342.674 503.498C346.638 502.507 345.592 495.676 338.434 497.74C331.277 499.792 324.111 498.485 330.904 494.334Z" fill="#1671A6"/>
<path fill-rule="evenodd" clip-rule="evenodd" d="M258.096 594.473C252.115 591.176 250.232 599.082 245.915 601.356C241.594 603.623 251.283 605.898 253.275 610.461C255.273 615.02 260.69 615.423 269.11 610.344C277.53 605.265 268.693 595.008 258.096 594.473V594.473Z" fill="#1671A6"/>
<path fill-rule="evenodd" clip-rule="evenodd" d="M483.401 417.216C480.683 419.933 478.203 421.596 476.993 420.331C474.585 417.818 452.13 433.784 455.82 436.393C459.52 439.003 473.921 437.227 478.572 433.93C482.636 431.061 484.659 429.039 489.672 427.525C487.969 424.273 485.782 420.735 483.4 417.215L483.401 417.216Z" fill="#1671A6"/>
<path fill-rule="evenodd" clip-rule="evenodd" d="M454.028 445.114C448.964 443.439 441.675 447.304 445.424 449.142C449.182 450.971 464.74 451.092 454.028 445.114Z" fill="#1671A6"/>
<path fill-rule="evenodd" clip-rule="evenodd" d="M265.014 408.937C248.12 412.873 249.913 416.638 240.82 413.366C231.727 410.093 228.34 420.738 216.892 428.187C205.446 435.636 209.721 447.887 217.25 444.302C224.781 440.706 223.553 457.216 231.179 459.343C238.8 461.459 248.224 453.347 242.8 442.571C237.376 431.795 254.671 429.437 262.221 418.59C269.776 407.743 268.951 411.826 265.014 408.937H265.014Z" fill="#2B8EBF"/>
<path fill-rule="evenodd" clip-rule="evenodd" d="M125.529 649.287C127.154 646.584 128.763 642.521 130.081 636.438C134.692 615.168 123.393 613.028 122.876 617.095C122.358 621.161 127.707 630.638 123.451 635.515C119.199 640.384 114.717 639.615 115.758 634.292C116.803 628.966 112.625 624.112 112.625 624.112C112.625 624.112 115.879 635.597 111.344 632.665C108.719 630.97 105.513 628.366 102.482 628.166C103.243 631.538 104.554 635.514 106.504 640.301C109.702 648.149 117.111 650.12 125.529 649.287H125.529Z" fill="#2B346E"/>
<path fill-rule="evenodd" clip-rule="evenodd" d="M123.279 600.03C123.279 600.03 136.312 607.919 137.104 620.516C137.893 633.108 134.613 636.539 134.613 636.539C134.613 636.539 143.22 634.155 145.497 618.112C147.769 602.072 138.051 590.32 132.072 592.255C126.093 594.194 121.084 594.682 123.279 600.03Z" fill="#2B346E"/>
<path fill-rule="evenodd" clip-rule="evenodd" d="M490.243 453.658L488.857 446.124L481.781 445.145L488.759 443.799L489.518 436.208L490.913 443.741L492.034 443.896C492.152 444.563 492.409 445.167 492.756 445.72L491.005 446.055L490.243 453.658V453.658Z" fill="#32BBDB"/>
<path fill-rule="evenodd" clip-rule="evenodd" d="M242.143 531.267C243.924 531.235 245.375 532.763 245.386 534.678C245.399 536.602 243.965 538.185 242.184 538.215C240.403 538.253 238.952 536.724 238.941 534.805C238.929 532.883 240.362 531.299 242.143 531.267Z" fill="white"/>
<path fill-rule="evenodd" clip-rule="evenodd" d="M214.774 585.476C216.683 585.437 218.239 587.081 218.254 589.13C218.264 591.192 216.731 592.889 214.817 592.927C212.909 592.962 211.352 591.327 211.341 589.265C211.327 587.212 212.865 585.515 214.774 585.476Z" fill="#32BBDB"/>
<path fill-rule="evenodd" clip-rule="evenodd" d="M167.558 590.58C169.471 590.541 171.027 592.184 171.037 594.242C171.052 596.304 169.515 597.997 167.606 598.036C165.697 598.073 164.141 596.431 164.126 594.377C164.111 592.319 165.652 590.622 167.558 590.58Z" fill="#32BBDB"/>
<path fill-rule="evenodd" clip-rule="evenodd" d="M495.12 448.176C484.773 452.591 479.034 456.046 479.572 442.583C480.321 423.832 467.3 415.734 455.002 415.464C442.702 415.199 452.808 392.603 435.943 392.648C419.08 392.689 409.336 401.689 392.088 406.894C374.838 412.095 361.874 403.347 362.785 391.097C357.954 380.365 369.982 369.597 347.51 352.349C313.551 338.148 275.927 329.51 266.62 297.693C261.288 279.457 350.693 264.645 432.484 247.601C436.104 251.324 437.82 255.113 434.536 256.591C425.904 260.475 429.357 299.319 433.242 283.782C437.126 268.244 437.558 284.645 442.737 288.96C447.916 293.277 467.769 303.635 460.432 313.562C453.095 323.489 467.338 334.279 472.517 332.121C477.696 329.963 489.781 336.005 483.307 354.564C476.833 373.122 480.285 373.987 470.358 375.281C460.431 376.575 460 392.113 464.316 394.271C468.632 396.429 497.117 431.821 492.801 440.02C490.725 443.965 492.843 446.411 495.12 448.176L495.12 448.176ZM586.478 178.831C597.369 173.295 609.826 170.235 623.031 167.418C620.337 177.079 596.573 188.744 589.698 181.489C588.749 180.488 587.665 179.59 586.478 178.831ZM653.29 160.638C655.711 159.994 658.135 159.306 660.56 158.563C659.235 160.438 657.182 161.36 654.006 160.771L653.29 160.638H653.29ZM516.962 365.25C521.278 355.323 536.384 345.396 530.342 364.386C524.3 383.377 510.488 378.63 516.962 365.25ZM381.435 307.846C384.456 302.667 402.584 304.393 393.52 313.457C384.457 322.52 371.94 325.974 381.435 307.846ZM413.374 313.025C421.143 308.709 445.744 330.721 434.954 336.332C424.164 341.943 422.869 345.396 425.89 354.891C428.911 364.386 416.827 342.374 411.216 344.964C405.605 347.554 397.837 343.238 401.289 333.742C404.742 324.247 413.374 313.025 413.374 313.025H413.374Z" fill="#61B9D3"/>
<path fill-rule="evenodd" clip-rule="evenodd" d="M495.119 448.176C484.773 452.591 479.034 456.046 479.572 442.583C480.321 423.832 467.299 415.734 455.001 415.463C443.682 415.22 451.332 396.077 439.505 393.052C444.111 386.729 455.347 378.197 462.12 383.168C462.169 383.204 462.215 383.235 462.263 383.269C461.018 387.928 461.959 393.093 464.315 394.27C468.631 396.429 497.116 431.82 492.8 440.019C490.724 443.964 492.842 446.41 495.119 448.175V448.176ZM470.236 375.3C471.611 370.826 473.405 365.253 476.821 359.878C478.63 357.03 481.142 354.739 483.87 352.826C483.7 353.393 483.513 353.972 483.306 354.564C476.832 373.123 480.284 373.987 470.357 375.281L470.236 375.3ZM484.455 339.743C480.009 344.424 477.641 351.284 475.205 346.789C471.099 339.22 460.414 336.351 450.591 342.879C444.804 346.726 436.966 344.304 427.738 340.959C429.403 339.464 431.763 337.993 434.955 336.333C445.745 330.722 421.144 308.71 413.375 313.026C413.375 313.026 405.44 323.343 401.743 332.563C396.527 329.394 393.289 323.037 390.894 315.853C391.787 315.113 392.67 314.311 393.522 313.458C399.593 307.387 393.465 304.609 387.848 304.991C385.812 296.797 384.12 289.008 381.242 284.809C383.745 281.1 403.456 276.021 429.282 271.398C428.608 282.238 430.841 293.374 433.239 283.781C437.123 268.243 437.555 284.644 442.734 288.96C447.913 293.276 467.767 303.634 460.43 313.561C453.092 323.488 467.335 334.278 472.515 332.12C475.923 330.7 482.321 332.831 484.453 339.742L484.455 339.743ZM524.583 374.619C521.773 373.169 518.666 371.639 515.293 371.124C515.379 369.45 515.892 367.471 516.965 365.253C521.281 355.326 536.388 345.399 530.345 364.389C528.782 369.301 526.7 372.622 524.583 374.619Z" fill="#55B0CF"/>
<path fill-rule="evenodd" clip-rule="evenodd" d="M479.394 367.392C476.765 369.107 474.719 371.387 473.805 374.685C477.402 373.852 478.019 372.39 479.394 367.392ZM464.416 394.315C463.348 395.881 462.828 397.655 463.462 400.161C465.666 408.891 435.749 398.455 431.789 418.148C427.824 437.84 447.617 440.384 459.318 436.611C471.022 432.843 491.019 442.183 484.478 441.964C473.486 450.221 450.866 440.431 432.057 444.866C413.247 449.307 403.378 459.919 399.894 454.475C396.405 449.026 388.477 451.031 380.39 450.753C372.309 450.478 366.517 445.508 361.377 444.798C356.244 444.094 327.509 416.341 322.742 415.014C317.979 413.688 289.355 410.581 280.229 411.203C271.101 411.818 236.869 418.674 236.877 422.895C236.891 427.109 267.836 433.95 265.982 437.057C264.13 440.159 283.834 445.515 288.612 442.303C293.391 439.096 315.997 435.911 317.059 443.447C318.12 450.987 303.621 445.364 298.009 451.108C292.392 456.852 273.022 455.733 275.745 462.748C278.463 469.757 290.543 459.958 307.606 461.551C324.673 463.143 380.967 473.493 390.036 478.057C399.097 482.625 409.184 482.076 409.122 487.26C409.063 492.445 403.916 496.274 407.066 497.481C410.221 498.692 417.939 490.833 427.16 488.925C436.382 487.016 430.911 482.069 427.07 481.461C423.221 480.852 423.546 480.876 428.063 472.456C432.579 464.04 449.741 464.345 450.755 472.521C451.764 480.708 460.677 482.989 468.679 480.017C476.679 477.045 489.787 470.89 484.771 468.568C479.749 466.25 470.007 466.497 474.211 462.271C478.419 458.044 486.626 456.71 490.925 451.195C492.392 449.311 492.968 447.74 493.238 446.394C491.946 444.816 491.323 442.78 492.787 439.998C497.067 431.866 469.094 396.997 464.419 394.313L464.416 394.315ZM522.001 357.934C523.473 358.49 525.06 359.415 526.822 360.805C528.204 361.896 529.407 362.947 530.454 363.955C534.638 350.402 527.681 352.143 522.001 357.934Z" fill="#8BCAC4"/>
<path fill-rule="evenodd" clip-rule="evenodd" d="M453.083 296.436C453.828 304.685 452.019 313.759 434.713 310.755C424.361 308.958 418.568 310.335 416.619 312.509C415.369 312.377 414.259 312.524 413.371 313.017C413.371 313.017 404.739 324.239 401.286 333.734C397.834 343.229 405.602 347.545 411.213 344.956C416.823 342.366 428.909 364.378 425.887 354.883C422.866 345.387 424.161 341.935 434.951 336.324C440.323 333.53 436.921 326.67 431.193 321.02C442.342 323.538 454.466 327.62 449.884 333.498C444.148 340.854 452.665 348.406 465.033 350.622C477.407 352.842 485.969 365.582 471.556 367.535C457.145 369.488 459.687 381.786 446.186 377.322C432.684 372.857 428.18 369.494 431.44 377.955C434.7 386.412 404.841 386.781 394.528 374.344C384.214 361.903 375.477 345.69 359.278 348.375C343.086 351.06 342.197 339.755 337.716 347.635C333.239 355.516 327.384 352.921 322.863 343.936C318.341 334.955 317.574 345.273 310.157 340.4C302.737 335.524 305.636 331.416 299.7 324.055C293.763 316.695 294.347 326.252 287.47 325.74C280.585 325.228 286.834 322.667 274.429 320.876C262.023 319.092 266.544 328.073 259.172 328.389C251.799 328.706 251.566 314.425 242.357 321.954C233.149 329.478 236.418 326.262 225.86 322.887C215.303 319.507 210.803 333.437 200.609 330.947C190.415 328.464 187.936 326.984 181.314 323.032C174.69 319.08 170.05 329.109 176.771 331.773C183.492 334.433 189.585 351.315 196.077 356.986C202.575 362.655 201.844 360.871 207.508 366.05C213.177 371.227 213.42 362.167 208.484 358.77C203.551 355.379 194.137 348.194 193.789 341.253C193.444 334.308 199.189 344.249 207.375 338.805C215.563 333.359 225.18 331.915 233.365 338.143C241.546 344.371 273.429 334.209 263.525 339.521C253.62 344.835 232.865 350.644 244.443 351.936C256.02 353.228 265.944 341.861 277.966 337.136C289.99 332.412 288.815 336.649 295.26 337.128C301.709 337.608 299.321 346.505 307.789 348.865C316.258 351.228 318.839 351.42 321.464 356.8C324.092 362.186 331.929 361.473 327.052 368.89C322.176 376.311 332.769 367.59 338.418 378.814C344.067 390.043 349.72 389.598 352.621 385.491C355.52 381.382 365.677 384.298 369.866 391.963C374.051 399.623 409.106 428.167 407.465 432.801C405.824 437.438 339.045 416.907 348.023 424.055C357.005 431.212 371.495 434.02 353.309 434.392C335.122 434.769 332.958 428.989 318.005 426.581C303.055 424.169 303.671 433.294 284.721 432.32C265.775 431.337 223.878 419.145 235.627 435.586C247.373 452.019 270.522 454.606 262.175 473.873C253.823 493.135 291.439 487.289 297.964 504.202C304.486 521.115 344.711 526.702 351.493 516.833C358.281 506.959 363.517 506.268 366.344 511.884C369.166 517.498 382.266 518.687 383.71 522.469C385.158 526.255 365.016 523.893 347.476 524.318C329.936 524.738 312.941 523.693 308.645 526.184C304.35 528.674 284.904 522.684 272.391 528.238C259.87 533.79 258.502 528.934 246.992 526.782C235.479 524.627 208.172 513.946 205.318 523.248C202.467 532.545 193.964 530.618 190.812 526.493C187.655 522.368 168.471 530.451 166.033 522.486C163.601 514.525 161.82 503.588 150.323 507.053C138.822 510.521 123.181 523.193 122.388 510.595C121.599 497.998 107.85 502.594 99.9011 510.652C91.958 518.705 58.594 508.009 49.2151 500.397C42.2522 494.741 29.152 491.493 20.5991 492.15C23.9034 478.445 30.2875 465.462 37.8757 459.871C54.2772 447.786 77.5838 479.293 79.3114 487.062C81.039 494.831 75.8585 467.64 100.892 459.871C125.925 452.102 130.241 456.418 130.241 456.418C130.241 456.418 120.314 444.765 126.788 436.564C126.788 436.564 87.5108 454.691 73.7015 439.154C59.8902 423.616 56.4362 388.657 56.4362 379.161C56.4362 369.665 36.5821 361.033 34.856 344.633C33.1292 328.232 41.3294 314.421 41.3294 314.421C41.3294 314.421 26.6551 309.242 33.9922 300.178C41.3294 291.114 52.1179 267.375 51.2545 256.152C50.3911 244.931 75.4245 216.444 92.6902 218.172C109.954 219.898 105.638 215.582 118.587 204.36C131.535 193.139 143.619 193.139 143.619 193.139C143.619 193.139 151.388 181.485 155.92 181.485C155.92 181.485 151.178 176.216 149.352 171.053C156.102 174.493 161.713 181.766 160.62 188.328C159.052 197.726 168.621 202.758 175.931 203.301C183.243 203.845 206.317 201.672 209.342 207.516C212.363 213.36 225.836 218.256 228.001 212.363C230.169 206.47 226.072 209.195 224.212 205.167C222.352 201.135 220.97 190.657 212.609 192.63C204.248 194.599 213.713 183.633 224.827 185.325C235.939 187.016 233.724 199.386 238.581 198.021C243.436 196.653 265.016 203.013 268.289 217.089C271.562 231.167 261.469 239.066 265.637 241.105C269.81 243.14 276.642 238.463 283.059 239.371C289.471 240.283 292.175 221.461 301.425 230.794C310.675 240.131 311.338 242.775 313.823 244.254C316.308 245.735 333.602 245.721 337.03 240.357C340.454 234.996 331.105 238.622 332.637 229.657C334.168 220.691 347.353 217.782 348.598 212.69C349.841 207.589 349.193 198.901 361.675 205.444C365.334 207.364 369.765 209.415 374.772 210.963C373.772 212.077 372.825 213.575 371.951 215.578C364.614 232.41 370.225 244.495 376.699 237.158C383.174 229.82 395.69 227.231 395.69 238.452C395.69 249.674 408.638 247.516 412.954 240.179C417.27 232.842 443.166 252.696 434.534 256.58C425.902 260.464 429.355 299.309 433.24 283.771C437.124 268.233 437.556 284.634 442.735 288.95C444.768 290.644 449.063 293.27 453.086 296.435L453.083 296.436ZM18.4258 516.69C25.7867 517.11 38.8703 512.722 45.7266 523.913C52.6676 535.238 68.9538 542.934 82.0918 546.505C95.2291 550.073 108.919 551.956 116.563 553.82C124.208 555.688 174.742 573.715 169.427 575.48C164.625 577.076 121.085 574.023 100.546 569.335C100.676 567.622 101.089 565.918 101.748 564.316C104.769 556.979 97.8635 564.748 90.0951 566.043C89.9639 566.065 89.8353 566.08 89.7083 566.091C88.5463 565.717 87.4126 565.362 86.3015 565.024C81.7743 561.573 80.1404 551.543 74.5569 559.569C74.0254 560.333 73.4301 561.03 72.7829 561.663C66.0078 560.439 58.8877 559.923 49.522 560.078C49.2128 560.082 48.9096 560.083 48.6113 560.081C48.4461 559.643 48.3161 559.185 48.2288 558.706C46.5023 549.211 53.8399 545.326 53.4082 541.442C52.9764 537.558 38.3025 546.19 24.4905 532.378C20.9971 528.885 19.0794 523.292 18.4265 516.69L18.4258 516.69ZM126.323 175.376C128.218 175.61 129.751 174.191 131.872 172.633C137.065 172.138 142.225 175.687 137.571 178.79C131.108 183.099 121.206 182.675 126.323 175.376ZM429.07 198.026C461.035 180.265 532.484 148.743 580.369 118.814C606.625 102.413 646.875 95.506 685.071 94.3745C682.679 103.724 701.841 113.328 691.542 121.053C679.457 130.117 663.919 122.348 663.056 133.57C662.193 144.791 665.646 162.919 653.992 160.761C642.339 158.603 619.033 153.855 622.917 163.782C626.802 173.709 597.452 189.678 589.683 181.478C581.914 173.277 565.082 171.982 556.449 197.447C547.817 222.912 507.03 217.949 500.985 205.864C494.942 193.779 482.211 186.874 478.326 197.448C474.442 208.022 474.01 210.828 468.831 205.432C463.651 200.038 463.651 207.159 460.199 213.417C456.746 219.676 434.517 231.546 431.496 206.943C431.095 203.678 430.25 200.704 429.069 198.026L429.07 198.026ZM381.42 307.836C384.441 302.657 402.569 304.383 393.505 313.447C384.442 322.51 371.925 325.963 381.42 307.836ZM210.268 425.857C210.268 425.857 190.593 411.428 184.472 423.938C178.353 436.452 178.083 448.755 170.634 444.31C163.185 439.866 166.286 450.472 157.899 449.848C149.516 449.224 146.367 439.265 142.713 444.828C139.055 450.39 149.155 462.815 149.155 462.815C149.155 462.815 167.333 462.545 168.195 459.692C169.052 456.839 179.877 450.833 182.668 456.879C185.463 462.921 188.221 465.071 196.747 463.76C205.279 462.451 218.107 446.869 210.427 449.864C202.747 452.86 194.325 457.096 199.766 449.395C205.201 441.696 213.572 429.342 210.268 425.856L210.268 425.857Z" fill="#5B76A4"/>
<path fill-rule="evenodd" clip-rule="evenodd" d="M300.51 314.694C300.802 316.627 303.374 318.6 307.877 319.425C312.119 320.202 317.434 321.277 322.266 322.669C322.357 323.3 322.096 323.977 321.403 324.721C312.943 333.817 301.189 334.891 311.415 336.947C321.637 339.002 313.803 339.72 312.987 350.682C312.171 361.646 325.098 353.53 314.866 368.981C308.502 378.597 303.01 383.253 295.567 383.052C289.194 381.688 282.885 378.86 279.145 374.352C268.831 361.911 260.095 345.698 243.895 348.383C227.703 351.069 226.814 339.763 222.334 347.644C217.857 355.525 212.001 352.929 207.48 343.944C202.959 334.963 202.191 345.281 194.774 340.409C187.354 335.532 190.253 331.424 184.317 324.063C178.38 316.703 178.964 326.26 172.087 325.748C165.203 325.236 171.452 322.676 159.046 320.884C146.64 319.101 151.161 328.081 143.789 328.397C136.416 328.714 136.183 314.433 126.975 321.962C117.766 329.487 121.035 326.271 110.477 322.895C99.9198 319.515 95.4202 333.445 85.2266 330.956C75.0327 328.472 72.5525 326.992 65.9313 323.041C59.3071 319.089 54.6672 329.118 61.3886 331.782C68.1091 334.442 74.2026 351.323 80.6948 356.995C87.1928 362.663 86.4609 360.88 92.1249 366.059C97.7938 371.235 98.0377 362.175 93.101 358.778C88.1685 355.387 78.7544 348.202 78.4059 341.262C78.0615 334.317 83.8064 344.257 91.9918 338.813C100.181 333.367 109.797 331.924 117.982 338.151C126.163 344.379 158.046 334.217 148.142 339.529C138.237 344.843 117.483 350.652 129.06 351.944C140.638 353.236 150.561 341.869 162.583 337.145C174.607 332.42 173.432 336.657 179.877 337.137C186.325 337.616 183.938 346.513 192.407 348.873C196.454 350.004 199.156 350.636 201.159 351.576C199.544 351.37 197.703 351.186 195.591 351.028C174.951 349.493 182.049 332.513 159.614 346.407C137.182 360.302 144.296 369.26 142.527 375.612C140.76 381.97 146.807 379.172 159.49 374.276C172.172 369.386 202.294 374.219 193.336 381.333C184.373 388.45 189.7 395.331 197.628 393.326C205.558 391.326 206.683 384.921 212.56 393.142C216.574 398.762 225.87 390.522 232.334 388.141C233.321 388.219 234.238 387.995 235.06 387.534C236.741 387.492 238.031 388.299 238.691 390.546C241.792 401.151 189.101 394.636 199.633 401.258C210.165 407.877 213.199 410.697 193.657 411.843C174.12 412.975 182.646 411.67 161.506 408.147C142.316 404.955 131.131 416.257 130.524 427.197C120.746 426.538 114.858 428.059 120.244 435.593C120.942 436.57 121.681 437.496 122.451 438.381C115.08 441.282 99.6688 446.52 87.271 445.257C92.2822 437.857 97.6528 428.777 94.8966 425.868C94.8966 425.868 75.2217 411.44 69.1011 423.949C68.3118 425.563 67.6207 427.173 66.9981 428.745C58.7049 411.481 56.4171 386.897 56.4171 379.17C56.4171 369.675 36.563 361.043 34.837 344.642C33.1101 328.241 41.3103 314.43 41.3103 314.43C41.3103 314.43 26.636 309.251 33.9732 300.187C41.3103 291.123 52.0989 267.385 51.2355 256.162C50.372 244.94 75.4055 216.454 92.6712 218.181C102.582 219.172 105.381 218.171 108.417 215.016C110.413 214.88 111.99 214.08 112.617 212.373C113.101 211.059 113.272 210.174 113.226 209.546C114.629 208.021 116.343 206.297 118.568 204.37C121.664 201.686 124.711 199.645 127.554 198.092C135.614 199.368 150.256 205.706 152.905 217.099C156.178 231.177 146.085 239.075 150.253 241.114C154.426 243.15 161.259 238.473 167.675 239.381C174.088 240.293 176.791 221.471 186.041 230.803C195.291 240.14 195.954 242.785 198.439 244.264C200.924 245.745 218.218 245.731 221.646 240.367C225.07 235.006 215.721 238.632 217.253 229.666C218.603 221.763 229.007 218.565 232.31 214.427L247.053 225.807C247.053 225.807 253.616 250.938 221.104 260.843C188.591 270.747 173.465 291.02 190.138 293.556C206.807 296.091 239.539 274.537 257.446 295.322C266.647 305.997 285.492 311.061 300.515 314.695L300.51 314.694ZM124.788 440.857C136.996 452.862 154.16 456.876 146.794 473.879C138.442 493.141 178.581 484.8 185.107 501.714C191.63 518.627 226.388 519.504 233.17 509.635C239.959 499.761 248.137 506.275 250.965 511.89C253.787 517.504 266.887 518.693 268.33 522.475C269.778 526.262 249.637 523.9 232.097 524.324C214.557 524.745 203.421 530.989 199.127 533.48C194.832 535.969 183.978 533.554 171.465 539.107C158.944 544.66 143.124 528.941 131.613 526.789C120.101 524.633 92.7933 513.953 89.9391 523.255C87.0877 532.551 78.5858 530.624 75.4331 526.5C72.2765 522.374 53.0916 530.457 50.6544 522.492C48.2222 514.531 46.4409 503.595 34.944 507.059C29.6364 508.66 23.4477 512.219 18.243 514.352C17.3131 496.835 24.499 473.51 34.5984 462.808C38.136 462.715 52.0736 462.192 52.8262 459.703C52.9098 459.424 53.0893 459.117 53.3452 458.793C66.0712 464.225 78.0762 481.576 79.2965 487.068C81.023 494.837 75.8436 467.645 100.877 459.876C125.91 452.108 130.226 456.424 130.226 456.424C130.226 456.424 123.315 448.308 124.789 440.857L124.788 440.857Z" fill="#496397"/>
<path fill-rule="evenodd" clip-rule="evenodd" d="M99.5129 322.558C89.8853 320.685 85.3417 333.345 75.5837 330.958C65.3898 328.475 62.9099 326.995 56.2887 323.043C53.6157 321.446 51.2674 322.127 49.857 323.684C47.7994 323.621 46.1587 324.283 45.4635 326.171C43.483 331.562 47.2134 332.02 54.3128 333.468C57.0811 335.95 59.7591 340.37 62.4306 344.838C61.6095 347.195 61.1612 349.477 63.049 351.158C68.2189 355.755 74.0497 355.866 59.5481 359.004C45.0466 362.142 44.9955 354.031 39.6151 343.579C38.1339 340.703 36.4249 338.918 34.6587 338C35.2428 324.678 41.3256 314.431 41.3256 314.431C41.3256 314.431 26.6513 309.252 33.9885 300.188C41.3256 291.125 52.1142 267.386 51.2508 256.163C50.3873 244.941 75.4208 216.455 92.6865 218.182C109.951 219.909 105.635 215.592 118.583 204.371C120.613 202.611 122.622 201.128 124.567 199.876C132.287 202.689 141.246 208.43 143.262 217.1C146.535 231.178 136.443 239.077 140.61 241.116C142.209 241.898 144.2 241.688 146.406 241.19C142.506 243.236 136.811 242.8 132.769 246.573C124.405 254.375 110.305 256.576 103.793 261.276C97.2818 265.982 99.4547 271.655 111.375 268.329C123.297 264.999 125.666 272.314 114.299 276.98C102.928 281.646 85.6763 284.743 82.5999 284.674C79.5239 284.608 75.7508 289.517 84.7369 290.831C93.717 292.148 85.5206 297.7 71.1305 295.008C56.7394 292.315 53.4781 296.939 52.6737 303.363C51.8722 309.788 57.7857 304.393 70.9718 301.48C84.1615 298.572 78.9119 312.45 89.3401 307.387C99.7684 302.327 97.0198 304.391 113.344 307.226C129.669 310.063 131.897 297.583 147.255 300.347C162.612 303.112 173.808 287.728 178.307 292.606C182.811 297.481 149.868 304.432 130.898 315.344C117.242 323.196 107.507 321.26 99.514 322.557L99.5129 322.558Z" fill="#334B8B"/>
<path fill-rule="evenodd" clip-rule="evenodd" d="M415.015 238.711C407.559 246.103 402.808 255.08 409.576 262.143C415.544 268.378 421.522 277.721 429.334 279.987C429.393 280.761 429.467 281.496 429.554 282.184C422.948 282.551 416.595 282.034 412.562 280.094C400.88 274.465 406.736 277.066 393.295 271.741C379.858 266.417 381.725 258.776 375.497 255.284C369.275 251.797 366.723 251.176 354.798 254.614C342.869 258.046 326.104 256.799 326.343 247.738C326.526 240.938 350.657 226.424 370.584 219.096C365.423 234.034 370.69 243.977 376.703 237.162C383.177 229.824 395.694 227.235 395.694 238.456C395.694 249.678 408.641 247.52 412.958 240.183C413.42 239.398 414.129 238.927 415.016 238.711L415.015 238.711ZM434.181 280.426C435.337 280.302 436.533 280.011 437.773 279.534C437.986 280.041 438.205 280.604 438.435 281.201C436.904 281.453 435.335 281.667 433.755 281.838C433.902 281.318 434.043 280.85 434.181 280.426ZM433.463 214.521C444.125 214.032 453.228 212.629 457.191 209.053C466.919 200.268 464.09 191.843 476.099 181.497C488.107 171.146 489.24 173.395 490.272 176.931C491.304 180.463 535.809 204.096 551.943 202.268C552.773 202.174 553.608 202.065 554.447 201.945C547.532 213.994 532.008 217.109 519.34 215.29C519.098 208.059 512.917 206.235 503.023 208.559C502.16 207.714 501.476 206.813 501.004 205.87C494.961 193.785 482.23 186.879 478.345 197.453C474.461 208.028 474.029 210.834 468.85 205.438C463.67 200.043 463.67 207.165 460.218 213.423C458.957 215.708 455.19 218.742 450.771 220.474C446.219 219.609 441.466 219.229 436.988 219.384C435.619 218.241 434.414 216.654 433.463 214.52L433.463 214.521Z" fill="#334B8B"/>
<path fill-rule="evenodd" clip-rule="evenodd" d="M383.828 300.141C383.571 307.131 380.073 313.325 365.34 310.767C343.574 306.987 341.946 317.241 353.887 319.428C365.829 321.612 386.244 326.156 380.512 333.509C380.103 334.025 379.776 334.542 379.51 335.06C372.374 334.215 362.067 331.457 358.203 333.553C351.894 336.973 372.729 335.924 366.196 342.362C359.664 348.79 355.492 346.75 362.293 354.175C369.09 361.596 369.709 359.047 360.137 365.684C352.442 371.028 356.557 371.648 361.313 375.724C361.482 376.356 361.732 377.097 362.068 377.966C365.328 386.423 335.469 386.792 325.156 374.355C314.842 361.915 306.105 345.701 289.906 348.386C273.713 351.072 272.825 339.766 268.344 347.647C263.867 355.528 258.012 352.932 253.491 343.947C248.969 334.966 248.201 345.284 240.785 340.412C237.359 338.156 236.133 336.072 235.222 333.755C238.557 328.418 246.898 325.961 253.248 332.23C261.306 340.179 277.515 343.114 278.627 339.738C279.742 336.36 267.345 322.904 281.491 307.093C295.634 291.287 326.075 271.5 346.232 279.484C346.232 279.484 380.995 289.5 383.83 300.141H383.828Z" fill="#334B8B"/>
<path fill-rule="evenodd" clip-rule="evenodd" d="M344.664 274.397C350.776 273.552 357.156 277.921 363.31 279.459C369.465 280.997 361.942 274.598 358.416 272.606C354.889 270.614 345.144 267.944 344.664 274.397Z" fill="#334B8B"/>
<path fill-rule="evenodd" clip-rule="evenodd" d="M691.808 120.849C683.506 118.898 670.262 119.835 664.594 129.426C663.972 130.139 663.518 131.039 663.261 132.188C660.147 140.082 660.567 151.118 660.161 159.058C658.833 160.592 656.876 161.3 653.996 160.766C651.692 160.339 648.932 159.811 646.017 159.316C643.595 154.825 641.092 150.672 633.258 150.955C619.214 151.464 617.655 144.601 612.913 138.547C608.178 132.485 594.667 125.774 587.386 133.017C580.101 140.254 576.969 140.542 574.143 136.704C571.314 132.862 566.595 133.544 560.993 146.091C555.389 158.652 549.697 151.477 546.833 148.158C543.97 144.825 534.776 149.847 528.52 157.174C522.271 164.488 511.207 152.766 506.912 161.788C502.606 170.806 504.174 163.663 496.112 174.474C488.04 185.285 503.801 189.568 495.942 187.167C488.074 184.767 483.608 182.102 481.86 174.193C480.112 166.279 471.287 166.401 466.839 173.849C462.395 181.303 451.64 179.466 450.286 187.145C448.941 194.825 439.918 204.532 435.245 208.074C434.282 208.803 433.213 209.47 432.029 210.071C431.816 209.102 431.639 208.064 431.502 206.948C428.481 182.347 400.426 174.147 391.363 186.232C382.299 198.316 404.742 189.684 398.268 203.496C391.794 217.307 379.278 198.748 371.94 215.581C369.35 221.523 368.375 226.872 368.481 230.985C362.192 227.786 355.676 225.364 358.988 228.86C364.283 234.442 377.855 243.748 370.816 244.265C363.773 244.778 354.525 236.57 343.851 244.075C333.178 251.582 339.492 253.866 338.429 257.682C337.367 261.493 334.033 278.362 320.105 277.326C306.176 276.29 312.599 259.646 302.455 263.56C292.305 267.473 297.275 270.438 291.672 282.99C286.065 295.546 277.336 280.37 282.176 264.13C287.019 247.89 293.61 249.933 296.805 241.871C299.999 233.808 315.495 241.704 322.374 232.878C329.256 224.054 315.189 231.828 303.822 224.235C292.455 216.647 287.874 208.522 297.429 205.602C306.983 202.682 307.328 198.039 314.839 201.712C322.345 205.381 333.162 199.443 336.111 187.731C339.055 176.022 335.535 181.462 331.545 172.345C327.555 163.232 330.29 161.357 328.61 156.042C326.932 150.737 336.271 157.649 341.618 155.456C346.971 153.26 344.774 147.911 335.849 149.313C326.927 150.736 313.488 156.995 309.317 146.828C305.147 136.659 315.554 132.765 309.714 131.03C303.879 129.306 301.637 121.093 306.33 117.294C311.019 113.491 313.707 115.769 311.383 108.59C309.064 101.413 303.095 101.491 307.596 93.2662C312.104 85.0342 317.841 88.0611 319.525 86.3656C319.582 86.3093 319.634 86.2443 319.685 86.1717C328.084 83.3527 330.302 72.0697 336.967 79.8458C344.735 88.909 346.893 74.6668 351.209 81.5719C355.526 88.4777 360.705 95.8152 361.136 85.4569C361.27 82.2448 362.317 79.4061 363.801 77.1342C364.045 77.1727 364.297 77.2155 364.557 77.2631C370.439 78.3496 372.193 84.4487 370.228 88.1964C368.262 91.94 375.261 93.7561 380.686 92.3392C386.108 90.9356 395.22 95.7521 391.968 104.59C388.712 113.427 395.574 111.863 393.684 116.395C391.789 120.927 399.527 128.503 400.896 120.563C402.265 112.627 407.607 107.052 412.678 112.103C417.75 117.144 426.062 123.989 428.439 116.382C430.824 108.779 418.413 111.75 421.264 101.322C424.112 90.9012 432.873 95.1888 440.503 90.3092C448.13 85.4251 455.732 80.8064 466.686 87.0639C477.631 93.3255 478.349 101.162 469.936 102.61C461.532 104.059 456.136 113.782 462.424 112.951C468.712 112.12 472.252 99.4095 480.31 102.603C488.378 105.802 482.057 93.1331 488.057 89.174C494.056 85.2172 503.335 82.5256 497.551 76.6526C491.761 70.7795 487.259 79.0069 479.442 72.4591C471.624 65.9109 467.995 48.5163 478.734 43.6106C489.482 38.7061 485.929 23.6507 493.82 22.1655C501.715 20.6692 505.801 21.4967 506.262 15.3031C506.723 9.10874 516.492 3.35703 527.423 2.86068C538.353 2.38663 537.394 15.2846 540.117 10.033C542.842 4.8045 549.834 -1.95124 565.729 0.52938C581.623 3.00962 578.797 13.1835 582.727 16.0607C586.664 18.9496 589.574 14.7599 600.401 19.1972C611.224 23.6345 613.463 38.8305 604.196 37.8907C594.93 36.9392 597.551 46.9947 604.03 43.5827C610.51 40.1823 617.729 47.7104 616.383 55.3983C615.033 63.0859 607.085 58.3386 604.992 62.066C602.894 65.8039 609.147 72.4977 613.899 67.9205C618.644 63.3547 619.3 64.9522 627.209 63.2061C635.131 61.4611 631.988 51.367 649.731 53.4723C667.47 55.5665 664.939 65.2388 663.06 69.5052C661.194 73.7731 662.944 85.0618 666.108 80.8907C669.27 76.7191 673.201 76.2258 678.423 75.8402C678.423 75.8402 680.584 70.2318 685.296 67.3625C692.144 73.6249 696.7 82.9569 688.524 89.5505C675.247 100.259 703.19 111.815 691.808 120.849L691.808 120.849ZM391.177 231.124C390.87 231.593 390.584 232.129 390.347 232.747C388.414 237.792 381.237 240.116 377.361 236.454L377.353 236.447C381.343 232.366 387.17 229.996 391.177 231.124ZM664.295 37.9436C662.065 38.7964 659.941 40.2624 658.343 42.4467C658.343 42.4467 657.996 45.2675 656.523 44.1217C655.055 42.9763 654.995 40.3758 658.638 36.6273C660.18 35.0453 661.947 33.8488 663.804 33.0292C664.359 34.3985 664.562 36.0077 664.295 37.9436ZM578.482 92.7728C572.567 93.8514 565.495 101.755 566.682 106.168C567.864 110.571 569.957 102.737 572.81 105.105C575.659 107.485 577.49 100.267 580.957 97.2816C584.423 94.3035 583.177 90.747 578.482 92.7728ZM598.389 72.2145C593.619 75.3098 588.464 83.58 592.1 84.0551C595.738 84.5424 602.538 86.1297 600.214 82.5071C597.894 78.8731 601.837 78.0845 602.328 74.4434C602.813 70.8132 600.023 70.6056 598.389 72.2145Z" fill="#29366E"/>
<path fill-rule="evenodd" clip-rule="evenodd" d="M338.578 248.956C335.963 252.858 339.233 254.848 338.446 257.676C337.384 261.487 334.05 278.356 320.122 277.32C306.193 276.284 312.616 259.64 302.471 263.554C292.322 267.467 297.291 270.431 291.689 282.984C286.081 295.54 277.353 280.364 282.192 264.124C287.036 247.883 293.627 249.927 296.821 241.865C296.949 241.542 297.095 241.252 297.257 240.984C298.071 241.153 298.865 241.406 299.639 241.77C320.941 251.782 312.422 235.586 330.978 238.916C344.332 241.307 338.862 243.977 338.578 248.956Z" fill="#234182"/>
<path fill-rule="evenodd" clip-rule="evenodd" d="M407.455 245.1C400.998 253.784 396.471 258.423 384.42 257.044C371.561 255.567 372.356 248.362 376.819 247.657C381.282 246.947 385.953 246.907 392.985 243.021C394.125 242.392 395.119 241.748 395.985 241.112C397.291 246.621 402.807 247.309 407.455 245.1ZM395.689 238.122C393.457 239.17 390.857 240.086 388.4 240.218C382.279 240.537 380.298 239.224 380.298 239.224C380.298 239.224 391.011 238.202 393.928 233.884L394.328 233.285C395.146 234.438 395.642 236.031 395.689 238.123V238.122Z" fill="#8BCAC4"/>
<path fill-rule="evenodd" clip-rule="evenodd" d="M370.899 243.474C368.043 243.52 357.591 244.558 349.884 250.473C342.181 256.384 334.272 258.129 333.624 252.891C332.977 247.658 336.359 244.02 345.855 241.869C355.353 239.724 370.899 243.474 370.899 243.474Z" fill="#8BCAC4"/>
<path fill-rule="evenodd" clip-rule="evenodd" d="M33.9135 300.292C31.3587 303.507 31.5723 306.23 32.9052 308.402C35.3999 306.987 42.8916 305.839 42.4255 303.993C42.0018 302.318 37.3029 301.019 33.9135 300.292ZM39.9657 317.075C39.2735 318.54 38.4044 320.566 37.5682 323.02C37.7625 323.003 37.975 322.969 38.2079 322.916C40.7879 322.335 41.093 319.782 39.9657 317.075Z" fill="#2B346E"/>
<path fill-rule="evenodd" clip-rule="evenodd" d="M49.08 269.596C50.3661 270.167 51.5429 270.844 52.717 271.545C57.6847 274.51 62.8225 273.7 58.6283 274.902C54.4299 276.099 52.5473 276.718 50.1476 278.484C49.3125 279.099 47.3524 279.76 45.1104 280.354C46.6493 276.763 48.0212 273.089 49.08 269.596Z" fill="#2B346E"/>
<path fill-rule="evenodd" clip-rule="evenodd" d="M51.2045 259.54C56.4928 258.396 62.384 256.491 67.8952 253.331C83.2485 244.524 105.274 239.029 114.189 235.372C123.11 231.711 123.916 229.611 123.916 229.611C123.916 229.611 119.369 229.704 104.118 234.193C88.8705 238.675 88.3715 230.857 94.6124 228.297C100.857 225.732 103.468 225.495 103.468 225.495C103.468 225.495 97.6087 222.899 71.4423 231.762C68.1266 232.885 65.1284 234.039 62.4199 235.197C55.567 242.815 50.867 251.172 51.2495 256.143C51.3289 257.176 51.3089 258.316 51.2026 259.54L51.2045 259.54Z" fill="#2B346E"/>
<path fill-rule="evenodd" clip-rule="evenodd" d="M317.106 331.933C317.106 331.933 313.41 335.117 300.589 338.918C287.768 342.719 286.48 342.623 286.48 342.623C286.48 342.623 293.12 346.361 298.995 345.822C298.995 345.822 298.272 352.58 295.459 352.697C292.641 352.81 300.408 361.71 310.623 360.954C320.837 360.204 323.519 356.079 321.736 362.651C319.952 369.218 330.766 374.996 338.876 373.434C346.992 371.878 347.013 368.635 350.432 372.134C353.846 375.628 358.987 376.226 363.543 373.109C363.543 373.109 351.421 373.283 351.116 368.726C350.805 364.162 347.247 362.603 340.638 364.272C334.029 365.94 328.895 362.313 333.461 356.169C338.023 350.024 326.541 347.444 319.227 349.925C311.908 352.406 304.989 349.511 307.314 347.309C309.641 345.103 323.297 338.768 317.106 331.932L317.106 331.933Z" fill="#8BCAC4"/>
<path fill-rule="evenodd" clip-rule="evenodd" d="M282.138 328.153C283.462 327.82 302.36 329.441 297.916 331.057C293.472 332.67 289.923 333.921 286.055 333.634C282.187 333.346 281.978 330.301 282.138 328.153Z" fill="#8BCAC4"/>
<path fill-rule="evenodd" clip-rule="evenodd" d="M195.551 374.65C195.551 374.65 188.039 384.986 176.173 384.103C164.307 383.22 145.021 398.387 151.462 402.497C157.899 406.608 152.086 414.992 145.912 421.279C139.741 427.563 132.949 442.104 134.555 448.445C134.555 448.445 138.843 432.684 162.408 415.759C185.973 398.838 188.361 401.61 188.361 401.61C188.361 401.61 168.346 412.568 162.71 425.639C162.71 425.639 172.667 410.3 195.046 409.371C217.426 408.44 220.361 424.742 222.007 416.56C223.652 408.387 210.145 401.676 199.637 403.49C199.637 403.49 203.747 397.049 217.12 398.56C230.497 400.075 214.406 393.169 209.326 391.754C204.246 390.339 215.174 382.852 206.214 384.78C197.249 386.708 192.549 394.137 182.826 392.378C173.099 390.617 199.833 386.9 195.551 374.65H195.551Z" fill="#334B8B"/>
<path fill-rule="evenodd" clip-rule="evenodd" d="M178.854 424.776C171.041 425.231 160.871 436.411 164.364 438.225C167.864 440.043 174.139 425.462 178.854 424.776Z" fill="#334B8B"/>
<path fill-rule="evenodd" clip-rule="evenodd" d="M130.749 464.772C116.589 466.834 92.7007 481.141 85.8924 488.931C79.0867 496.729 62.8406 505.895 68.956 507.386C75.0721 508.878 87.6627 499.957 87.9114 503.608C88.1613 507.257 115.779 491.674 109.03 491.689C102.286 491.708 91.4324 498.164 90.7032 493.961C89.9834 489.756 111.082 471.093 130.748 464.772H130.749Z" fill="#334B8B"/>
<path fill-rule="evenodd" clip-rule="evenodd" d="M91.7104 515.276C90.3522 526.585 101.988 530.567 107.686 523.727C113.379 516.889 119.86 520.481 119.801 528.261C119.74 536.035 134.454 533.498 132.012 524.501C129.567 515.498 122.556 505.118 131.232 500.058C139.908 494.998 150.306 494.731 148.416 485.257C146.531 475.775 157.976 468.326 153.731 469.568C149.491 470.81 149.928 471.88 145.285 471.535C140.646 471.19 145.131 487.603 135.975 492.11C126.823 496.62 118.104 502.192 119.879 513.22C121.652 524.25 114.031 508.116 105.033 510.562C96.0309 513.003 91.5036 511.109 91.7104 515.277V515.276Z" fill="#334B8B"/>
<path fill-rule="evenodd" clip-rule="evenodd" d="M162.685 370.113C162.685 370.113 172.24 374.192 178.048 372.813C183.857 371.43 184.171 377.679 177.171 377.674C170.165 377.673 161.949 376.542 162.685 370.113H162.685Z" fill="#334B8B"/>
<path fill-rule="evenodd" clip-rule="evenodd" d="M169.391 220.679C171.082 222.362 181.195 243.346 174.343 248.285C167.487 253.221 162.222 257.761 161.525 249.667C160.832 241.574 124.711 259.897 131.071 265.039C137.435 270.182 153.611 272.421 156.966 265.666C160.321 258.915 160.865 255.062 169.818 256.764C178.77 258.472 187.152 253.906 192.75 248.359C198.355 242.808 205.636 242.571 202.154 247.501C198.676 252.43 192.377 256.889 195.771 256.621C199.159 256.356 208.5 245.899 211.049 249.978C213.599 254.057 222.268 245.623 219.247 244.362C216.229 243.096 214.611 247.385 215.75 242.543C216.888 237.702 213.738 231.24 211.426 234.442C209.114 237.639 204.44 241.186 203.83 235.43C203.222 229.679 212.18 217.373 200.658 211.848C189.139 206.322 187.095 198.906 183.234 194.988C179.378 191.069 163.787 208.847 166.624 209.058C169.462 209.269 180.411 208.525 181.346 216.896C182.277 225.265 178.287 223.152 176.914 220.713C175.537 218.279 169.786 218.891 169.391 220.678V220.679Z" fill="#32BBDB"/>
<path fill-rule="evenodd" clip-rule="evenodd" d="M56.7505 460.5C56.6374 460.947 56.4926 461.406 56.3044 461.877C52.3994 471.642 59.4753 470.34 62.7331 464.813C60.812 463.182 58.8032 461.709 56.7505 460.5V460.5Z" fill="#8BCAC4"/>
<path fill-rule="evenodd" clip-rule="evenodd" d="M96.4355 461.596C99.2877 462.303 102.064 464.269 103.966 468.093C109.326 478.871 100.776 480.507 96.7878 481.828C92.795 483.152 91.3056 481.425 92.1059 474.995C92.6453 470.664 91.1612 467.804 88.8159 466.797C90.8478 464.839 93.3485 463.05 96.4355 461.597V461.596Z" fill="#8BCAC4"/>
<path fill-rule="evenodd" clip-rule="evenodd" d="M136.303 495.468C140.162 491.539 150.053 489.361 155.327 496.883C160.603 504.41 157.7 512.95 152.013 510.905C146.33 508.86 154.896 502.685 150.022 498.433C145.15 494.177 137.83 492.341 136.303 495.468Z" fill="#8BCAC4"/>
<path fill-rule="evenodd" clip-rule="evenodd" d="M64.394 285.208C64.394 285.208 76.8985 287.107 81.6911 279.357C86.4853 271.607 92.0638 261.974 96.2426 266.82C100.421 271.675 93.0936 287.343 87.3351 286.265C81.5807 285.188 65.3981 289.172 64.394 285.208Z" fill="#32BBDB"/>
<path fill-rule="evenodd" clip-rule="evenodd" d="M74.782 302.522C79.4541 305.138 93.9496 310.755 90.6362 316.021C87.3322 321.287 74.0063 308.622 74.782 302.522Z" fill="#32BBDB"/>
<path fill-rule="evenodd" clip-rule="evenodd" d="M60.7084 308.608C62.9433 309.103 77.6551 311.814 70.9428 314.882C64.2294 317.954 51.6932 303.403 60.7084 308.608Z" fill="#8BCAC4"/>
<path fill-rule="evenodd" clip-rule="evenodd" d="M106.514 259.464C115.988 258.55 125.362 258.92 123.556 261.386C121.75 263.842 99.4551 262.832 106.514 259.464Z" fill="#32BBDB"/>
<path fill-rule="evenodd" clip-rule="evenodd" d="M107.901 297.532C108.438 294.65 121.604 292.062 129.795 295.267C137.986 298.47 143.817 289.825 156.307 296.265C168.797 302.706 164.281 311.127 160.974 307.636C157.666 304.147 149.787 296.753 144.162 298.283C138.536 299.811 145.415 303.235 143.212 306.643C141.014 310.046 131.691 300.269 121.324 300.147C110.959 300.026 109.164 306.701 107.326 305.268C105.487 303.837 104.09 300.811 107.901 297.532V297.532Z" fill="#32BBDB"/>
<path fill-rule="evenodd" clip-rule="evenodd" d="M63.8534 375.292C65.86 374.464 74.6548 369.607 84.5845 375.534C94.5225 381.459 92.8032 378.414 100.149 371.181C107.498 363.943 119.365 370.016 115.152 370.024C110.934 370.039 99.0509 377.256 103.465 378.884C107.889 380.508 113.977 385.827 109.961 387.474C105.948 389.12 99.9408 387.051 91.7735 383.527C83.6061 380.002 74.7833 372.212 63.853 375.292H63.8534Z" fill="#9CCFAD"/>
<path fill-rule="evenodd" clip-rule="evenodd" d="M439.398 311.519C436.005 314.615 431.028 316.099 427.913 318.124C435.412 324.078 441.283 333.029 434.946 336.324C431.937 337.889 429.667 339.286 428.023 340.693C428.2 342.481 428.422 343.924 428.818 344.781C430.215 347.801 432.918 337.624 438.447 337.39C443.981 337.151 435.274 327.749 440.302 325.533C445.329 323.312 451.006 321.139 447.029 317.926C443.052 314.708 439.399 311.519 439.399 311.519L439.398 311.519Z" fill="#5B76A4"/>
<path fill-rule="evenodd" clip-rule="evenodd" d="M298.62 455.435C300.517 456.079 313.253 459.148 324.597 459.242C335.941 459.334 325.596 458.938 324.281 454.748C322.907 451.407 332.202 452.907 327.202 450.427C322.196 447.949 287.762 446.684 290.724 448.199C293.693 449.718 303.991 452.917 298.62 455.434V455.435Z" fill="#5B76A4"/>
<path fill-rule="evenodd" clip-rule="evenodd" d="M316.577 438.461C321.217 439.297 344.255 439.061 342.462 441.363C340.669 443.661 359.991 445.421 360.204 446.9C360.421 448.374 340.721 449.499 329.267 446.543C317.814 443.584 311.509 441.17 316.577 438.461H316.577Z" fill="#5B76A4"/>
<path fill-rule="evenodd" clip-rule="evenodd" d="M333.777 472.257C336.294 473.305 346.47 470.176 352.166 474.924C357.867 479.668 365.72 472.904 378.33 477.735C390.943 482.559 395.099 478.982 388.971 474.203C382.838 469.422 384.227 474.061 376.175 468.927C368.128 463.784 362.749 469.223 354.959 466.483C347.164 463.738 334.679 468.864 333.777 472.257V472.257Z" fill="#5B76A4"/>
<path fill-rule="evenodd" clip-rule="evenodd" d="M405.905 470.253C405.905 470.253 426.159 471.111 424.828 474.471C423.499 477.831 403.372 475.255 405.905 470.253Z" fill="#5B76A4"/>
<path fill-rule="evenodd" clip-rule="evenodd" d="M376.494 428.216C376.494 428.216 406.778 439.548 405.62 442.056C404.46 444.565 387.108 438.085 383.411 435.538C379.706 432.995 374.44 429.686 376.494 428.216Z" fill="#5B76A4"/>
<path fill-rule="evenodd" clip-rule="evenodd" d="M181.008 395.215C182.299 395.19 183.349 396.296 183.357 397.687C183.367 399.074 182.33 400.223 181.042 400.243C179.754 400.268 178.699 399.166 178.691 397.775C178.687 396.385 179.723 395.24 181.008 395.215Z" fill="white"/>
<path fill-rule="evenodd" clip-rule="evenodd" d="M250.044 265.929C251.699 265.9 253.051 267.321 253.06 269.104C253.074 270.891 251.742 272.366 250.083 272.394C248.429 272.43 247.076 271.003 247.068 269.217C247.054 267.435 248.39 265.959 250.044 265.929Z" fill="white"/>
<path fill-rule="evenodd" clip-rule="evenodd" d="M148.645 167.57C157.475 174.27 161.692 183.509 173.987 183.035C191.831 182.349 205.411 184.53 220.711 201.284C236.016 218.032 227.077 218.061 246.353 228.13C265.634 238.198 296.064 243.599 290.084 231.906C290.084 231.906 273.63 225.46 270.378 216.121C267.13 206.776 265.054 196.065 275.79 202.936C286.526 209.806 303.214 219.428 314.417 215.401C325.62 211.367 331.596 205.814 323.336 206.428C315.072 207.043 290.947 200.532 283.016 188.344C275.075 176.156 281.192 172.504 273.307 160.953C265.415 149.398 250.871 142.814 240.628 133.991C236.406 130.353 230.166 124.37 224.119 118.112C220.648 121.303 218.593 126.153 218.716 128.616C218.932 132.932 213.968 135.306 209.437 134.227C204.905 133.148 198.862 122.789 193.899 124.084C188.936 125.379 193.683 132.5 195.626 137.248C197.567 141.996 188.072 142.859 186.778 141.78C185.483 140.701 176.635 130.99 166.708 136.817C156.781 142.643 154.407 158.397 154.407 158.397C154.407 158.397 152.25 159.044 149.228 164.871C148.805 165.688 148.631 166.602 148.647 167.57L148.645 167.57ZM174.268 117.073C177.721 111.03 185.921 117.936 180.742 120.525C175.563 123.115 169.089 122.252 174.268 117.073ZM143.625 114.051C147.077 106.714 163.046 117.504 160.026 126.136C157.004 134.768 141.467 141.674 139.309 135.2C137.151 128.726 141.035 116.641 143.625 114.051H143.625Z" fill="#5B76A4"/>
<path fill-rule="evenodd" clip-rule="evenodd" d="M148.645 167.57C157.475 174.27 161.692 183.51 173.987 183.036C191.831 182.349 205.411 184.53 220.711 201.284C236.016 218.032 227.077 218.061 246.353 228.13C265.634 238.198 296.064 243.599 290.084 231.906C290.084 231.906 273.63 225.461 270.378 216.121C267.13 206.776 265.054 196.065 275.79 202.936C286.526 209.806 303.214 219.428 314.417 215.402C325.62 211.367 331.596 205.814 323.336 206.428C315.072 207.043 290.947 200.532 283.016 188.345C275.075 176.157 281.192 172.504 273.307 160.953C265.415 149.398 250.871 142.814 240.628 133.991C239.718 133.202 238.7 132.303 237.623 131.314C230.375 147.757 217.867 170.474 205.811 165.258C187.321 157.263 193.19 155.974 173.706 157.423C166.389 157.967 160.594 156.357 155.287 154.472C154.646 156.816 154.407 158.397 154.407 158.397C154.407 158.397 152.25 159.044 149.228 164.871C148.805 165.687 148.631 166.602 148.647 167.57L148.645 167.57Z" fill="#5B76A4"/>
<path fill-rule="evenodd" clip-rule="evenodd" d="M242.105 232.7C238.898 232.4 236.072 234.963 235.796 238.423C235.517 241.884 237.89 244.933 241.098 245.233C244.303 245.534 247.131 242.974 247.41 239.511C247.686 236.051 245.314 233.001 242.105 232.7Z" fill="#FFCC00"/>
<path fill-rule="evenodd" clip-rule="evenodd" d="M83.6355 291.257C80.3739 290.95 77.5001 293.558 77.2154 297.077C76.9323 300.597 79.346 303.698 82.6088 304.003C85.87 304.308 88.7438 301.702 89.0258 298.183C89.3105 294.663 86.8941 291.562 83.6355 291.257Z" fill="#FFCC00"/>
<path fill-rule="evenodd" clip-rule="evenodd" d="M499.92 266.005C497.53 265.778 495.426 267.689 495.218 270.267C495.009 272.847 496.78 275.119 499.169 275.342C501.56 275.569 503.665 273.656 503.872 271.078C504.082 268.498 502.31 266.228 499.92 266.005Z" fill="#FFCC00"/>
<path fill-rule="evenodd" clip-rule="evenodd" d="M318.429 301.464C316.038 301.237 313.933 303.15 313.725 305.728C313.519 308.307 315.287 310.578 317.676 310.803C320.066 311.028 322.174 309.117 322.381 306.539C322.589 303.959 320.818 301.688 318.429 301.464Z" fill="#FFCC00"/>
<path fill-rule="evenodd" clip-rule="evenodd" d="M393.959 288.308C393.364 288.252 392.841 288.727 392.789 289.369C392.738 290.01 393.178 290.575 393.772 290.631C394.367 290.687 394.89 290.212 394.942 289.57C394.994 288.929 394.553 288.364 393.959 288.308Z" fill="#FFCC00"/>
<path fill-rule="evenodd" clip-rule="evenodd" d="M231.974 303.505L230.877 310.763L224.148 311.784L230.84 312.993L231.822 320.252L232.919 312.993L239.648 311.973L232.919 310.801L231.974 303.505Z" fill="#FFCC00"/>
<path fill-rule="evenodd" clip-rule="evenodd" d="M418.002 325.657C416.494 325.517 415.167 326.721 415.035 328.348C414.904 329.975 416.021 331.408 417.527 331.55C419.035 331.69 420.365 330.487 420.495 328.859C420.626 327.232 419.51 325.798 418.002 325.657Z" fill="#FFCC00"/>
<path fill-rule="evenodd" clip-rule="evenodd" d="M479.356 278.177C478.042 278.054 476.886 279.104 476.771 280.518C476.658 281.936 477.631 283.183 478.942 283.306C480.254 283.428 481.411 282.381 481.524 280.965C481.638 279.549 480.667 278.3 479.356 278.177Z" fill="#FFCC00"/>
<path fill-rule="evenodd" clip-rule="evenodd" d="M495.157 303.089L494.363 308.532L489.336 309.289L494.326 310.158L495.044 315.602L495.876 310.196L500.903 309.402L495.913 308.532L495.157 303.089Z" fill="#FFCC00"/>
<path fill-rule="evenodd" clip-rule="evenodd" d="M4.85066 291.257C3.39222 291.12 2.10958 292.286 1.98105 293.856C1.85593 295.43 2.93595 296.814 4.39135 296.951C5.84828 297.086 7.13243 295.924 7.25756 294.352C7.38458 292.78 6.30606 291.394 4.85066 291.257Z" fill="#FFCC00"/>
<path fill-rule="evenodd" clip-rule="evenodd" d="M345.496 335.827C344.981 335.779 344.528 336.19 344.483 336.744C344.439 337.301 344.82 337.789 345.334 337.837C345.849 337.885 346.302 337.474 346.346 336.919C346.391 336.364 346.01 335.875 345.496 335.827Z" fill="#FFCC00"/>
<path fill-rule="evenodd" clip-rule="evenodd" d="M42.7217 386.444C42.2064 386.396 41.7539 386.808 41.7086 387.362C41.6643 387.918 42.0458 388.406 42.5599 388.455C43.0744 388.502 43.5277 388.092 43.5715 387.537C43.6165 386.981 43.2354 386.493 42.7217 386.444Z" fill="#FFCC00"/>
<path fill-rule="evenodd" clip-rule="evenodd" d="M37.2667 423.869C35.953 423.746 34.7974 424.796 34.6817 426.211C34.5691 427.628 35.5421 428.875 36.8531 428.999C38.1653 429.12 39.322 428.073 39.435 426.657C39.5492 425.241 38.5777 423.992 37.2667 423.869Z" fill="#FFCC00"/>
<path fill-rule="evenodd" clip-rule="evenodd" d="M51.9493 477.36C50.6356 477.236 49.48 478.287 49.3643 479.701C49.2517 481.119 50.2247 482.366 51.5357 482.489C52.8479 482.611 54.005 481.564 54.1177 480.148C54.2318 478.731 53.2603 477.483 51.9493 477.36Z" fill="#FFCC00"/>
<path fill-rule="evenodd" clip-rule="evenodd" d="M97.9894 452.07C96.6753 451.947 95.5201 452.997 95.4044 454.411C95.2917 455.829 96.2648 457.076 97.5754 457.199C98.8879 457.321 100.045 456.274 100.157 454.858C100.271 453.442 99.3 452.193 97.9894 452.07Z" fill="#FFCC00"/>
<path fill-rule="evenodd" clip-rule="evenodd" d="M155.234 315.639C153.227 315.452 151.462 317.055 151.286 319.216C151.114 321.381 152.599 323.285 154.602 323.474C156.606 323.66 158.373 322.061 158.546 319.898C158.72 317.735 157.236 315.828 155.234 315.639Z" fill="#FFCC00"/>
<path fill-rule="evenodd" clip-rule="evenodd" d="M125.601 392.833C124.287 392.71 123.131 393.76 123.016 395.174C122.903 396.592 123.876 397.839 125.187 397.962C126.499 398.084 127.656 397.037 127.769 395.621C127.883 394.205 126.912 392.956 125.601 392.833Z" fill="#FFCC00"/>
<path fill-rule="evenodd" clip-rule="evenodd" d="M270.986 403.758C269.673 403.635 268.518 404.685 268.401 406.099C268.289 407.517 269.262 408.764 270.573 408.887C271.885 409.009 273.042 407.962 273.155 406.546C273.269 405.13 272.297 403.881 270.986 403.758Z" fill="#FFCC00"/>
<path fill-rule="evenodd" clip-rule="evenodd" d="M89.238 604.604C88.4233 604.528 87.7073 605.179 87.6359 606.056C87.566 606.935 88.1689 607.707 88.9817 607.784C89.7952 607.859 90.5123 607.21 90.5822 606.333C90.6529 605.454 90.0507 604.681 89.238 604.604Z" fill="#FFCC00"/>
<path fill-rule="evenodd" clip-rule="evenodd" d="M38.3892 581.129L37.2703 588.538L30.3901 589.597L37.2476 590.806L38.2304 598.216L39.3532 590.806L46.2295 589.748L39.3721 588.538L38.3892 581.129Z" fill="#FFCC00"/>
<path fill-rule="evenodd" clip-rule="evenodd" d="M239.156 458.081C237.842 457.957 236.687 459.007 236.571 460.422C236.458 461.84 237.431 463.086 238.742 463.21C240.055 463.331 241.212 462.285 241.324 460.869C241.439 459.452 240.467 458.204 239.156 458.081Z" fill="#FFCC00"/>
<path fill-rule="evenodd" clip-rule="evenodd" d="M2.59385 523.82C1.2802 523.697 0.124551 524.747 0.00887397 526.161C-0.103778 527.579 0.869273 528.826 2.1799 528.949C3.49241 529.071 4.64917 528.024 4.76182 526.608C4.87637 525.192 3.90485 523.943 2.59385 523.82Z" fill="#FFCC00"/>
</svg>
