<svg width="862" height="991" viewBox="0 0 862 991" fill="none" xmlns="http://www.w3.org/2000/svg">
<path fill-rule="evenodd" clip-rule="evenodd" d="M545.284 784.598C547.883 784.541 550.009 786.782 550.028 789.589C550.048 792.401 547.948 794.719 545.345 794.765C542.738 794.813 540.611 792.58 540.596 789.773C540.582 786.963 542.677 784.645 545.284 784.598Z" fill="white"/>
<path fill-rule="evenodd" clip-rule="evenodd" d="M181.008 600.082C182.299 600.058 183.349 601.164 183.357 602.555C183.367 603.941 182.33 605.091 181.042 605.111C179.754 605.136 178.699 604.034 178.691 602.643C178.687 601.252 179.723 600.108 181.008 600.082Z" fill="white"/>
<path fill-rule="evenodd" clip-rule="evenodd" d="M250.044 470.796C251.7 470.768 253.051 472.189 253.061 473.972C253.075 475.758 251.742 477.234 250.084 477.262C248.429 477.298 247.077 475.871 247.068 474.085C247.054 472.303 248.39 470.827 250.044 470.796Z" fill="white"/>
<path fill-rule="evenodd" clip-rule="evenodd" d="M304.216 387.177C306.94 387.126 309.163 389.463 309.182 392.395C309.199 395.331 307.006 397.753 304.282 397.805C301.564 397.857 299.341 395.519 299.322 392.587C299.304 389.651 301.498 387.228 304.216 387.177Z" fill="#32BBDB"/>
<path fill-rule="evenodd" clip-rule="evenodd" d="M156.517 400.257C158.801 400.207 160.668 402.17 160.683 404.632C160.698 407.099 158.856 409.131 156.572 409.176C154.288 409.222 152.424 407.254 152.41 404.796C152.391 402.33 154.233 400.297 156.517 400.257Z" fill="#32BBDB"/>
<path fill-rule="evenodd" clip-rule="evenodd" d="M304.555 359.029C305.52 359.01 306.307 359.84 306.31 360.876C306.315 361.918 305.537 362.773 304.576 362.792C303.619 362.811 302.83 361.981 302.824 360.948C302.821 359.908 303.594 359.048 304.555 359.029Z" fill="#32BBDB"/>
<path fill-rule="evenodd" clip-rule="evenodd" d="M553.451 94.8588L555.038 84.3458L564.792 82.8564L555.076 81.1288L553.677 70.6045L552.09 81.1023L542.299 82.6031L552.052 84.3231L553.451 94.8588Z" fill="#32BBDB"/>
<path fill-rule="evenodd" clip-rule="evenodd" d="M622.63 306.615C621.357 306.59 620.323 307.68 620.315 309.051C620.305 310.417 621.327 311.549 622.596 311.569C623.865 311.594 624.904 310.508 624.912 309.138C624.917 307.767 623.895 306.64 622.63 306.615Z" fill="white"/>
<path fill-rule="evenodd" clip-rule="evenodd" d="M554.584 179.243C552.953 179.215 551.621 180.615 551.611 182.372C551.597 184.132 552.911 185.586 554.545 185.613C556.175 185.649 557.508 184.243 557.516 182.483C557.53 180.728 556.214 179.273 554.584 179.243Z" fill="white"/>
<path fill-rule="evenodd" clip-rule="evenodd" d="M501.207 96.8475C498.523 96.7972 496.333 99.1005 496.315 101.99C496.297 104.882 498.458 107.269 501.143 107.32C503.821 107.371 506.011 105.067 506.03 102.178C506.048 99.2854 503.886 96.8985 501.207 96.8475Z" fill="#32BBDB"/>
<path fill-rule="evenodd" clip-rule="evenodd" d="M646.748 109.745C644.497 109.696 642.657 111.63 642.643 114.057C642.628 116.487 644.443 118.489 646.694 118.534C648.944 118.578 650.78 116.64 650.794 114.218C650.813 111.788 648.998 109.785 646.748 109.745Z" fill="#32BBDB"/>
<path fill-rule="evenodd" clip-rule="evenodd" d="M500.866 69.1145C499.915 69.0968 499.14 69.9141 499.137 70.9351C499.132 71.9618 499.899 72.8037 500.845 72.823C501.788 72.8415 502.567 72.0238 502.571 71.0062C502.575 69.9806 501.813 69.1338 500.866 69.1145Z" fill="#32BBDB"/>
<path fill-rule="evenodd" clip-rule="evenodd" d="M156.241 16.55C152.641 16.4812 149.708 19.5712 149.686 23.4433C149.662 27.3272 152.562 30.5219 156.162 30.5903C159.76 30.6704 162.696 27.5804 162.717 23.697C162.733 19.8139 159.842 16.6188 156.241 16.55Z" fill="#32BBDB"/>
<path fill-rule="evenodd" clip-rule="evenodd" d="M263.69 20.1104C261.13 20.0548 259.034 22.2629 259.016 25.0286C258.996 27.7987 261.065 30.0828 263.63 30.1285C266.199 30.1754 268.294 27.9753 268.31 25.21C268.324 22.4409 266.259 20.1569 263.69 20.1104Z" fill="white"/>
<path fill-rule="evenodd" clip-rule="evenodd" d="M209.369 58.8253C205.615 58.7569 202.556 61.9728 202.535 66.0188C202.51 70.0618 205.534 73.3979 209.283 73.4667C213.033 73.54 216.092 70.3238 216.121 66.2728C216.134 62.2351 213.126 58.8983 209.369 58.8253Z" fill="white"/>
<path fill-rule="evenodd" clip-rule="evenodd" d="M181.009 0C180.543 0.5523 180.256 1.28567 180.248 2.09957C180.242 3.85022 181.545 5.29051 183.171 5.32642C184.802 5.36233 186.123 3.96287 186.136 2.21147C186.141 1.36052 185.835 0.58103 185.333 0H181.009Z" fill="white"/>
<path fill-rule="evenodd" clip-rule="evenodd" d="M140.378 76.3243C138.075 76.271 136.2 78.2462 136.186 80.7321C136.167 83.2086 138.019 85.2586 140.324 85.296C142.626 85.349 144.502 83.3741 144.515 80.8879C144.526 78.4076 142.678 76.3606 140.378 76.3243Z" fill="white"/>
<path fill-rule="evenodd" clip-rule="evenodd" d="M589.325 25.7546C587.445 25.716 585.911 27.3359 585.897 29.3549C585.886 31.3864 587.397 33.0592 589.282 33.0963C591.163 33.1303 592.697 31.5195 592.707 29.488C592.722 27.4652 591.206 25.7931 589.325 25.7546Z" fill="#32BBDB"/>
<path fill-rule="evenodd" clip-rule="evenodd" d="M635.86 30.778C633.974 30.7398 632.441 32.3582 632.432 34.3863C632.417 36.4182 633.932 38.0857 635.813 38.1242C637.694 38.1617 639.227 36.5429 639.241 34.519C639.256 32.492 637.738 30.82 635.86 30.778Z" fill="#32BBDB"/>
<path fill-rule="evenodd" clip-rule="evenodd" d="M315.52 283.994L317.107 274.49L325.991 273.133L317.221 271.576L316.124 262.042L314.499 271.546L305.615 272.903L314.423 274.46L315.52 283.994Z" fill="#FFCC00"/>
<path fill-rule="evenodd" clip-rule="evenodd" d="M638.015 267.606C636.256 267.441 634.707 268.845 634.553 270.742C634.401 272.639 635.703 274.311 637.461 274.477C639.219 274.641 640.768 273.236 640.921 271.339C641.075 269.442 639.772 267.77 638.015 267.606Z" fill="#FFCC00"/>
<path fill-rule="evenodd" clip-rule="evenodd" d="M723.713 349.612C722.507 349.499 721.446 350.462 721.34 351.761C721.237 353.062 722.13 354.206 723.333 354.32C724.538 354.431 725.6 353.47 725.703 352.17C725.808 350.871 724.916 349.725 723.713 349.612Z" fill="#FFCC00"/>
<path fill-rule="evenodd" clip-rule="evenodd" d="M242.105 437.568C238.898 437.268 236.072 439.83 235.796 443.291C235.517 446.752 237.89 449.801 241.098 450.101C244.303 450.402 247.131 447.841 247.41 444.379C247.686 440.918 245.314 437.869 242.105 437.568Z" fill="#FFCC00"/>
<path fill-rule="evenodd" clip-rule="evenodd" d="M381.145 203.98C378.975 203.777 377.064 205.512 376.875 207.854C376.685 210.195 378.293 212.259 380.461 212.463C382.632 212.664 384.545 210.933 384.733 208.59C384.922 206.247 383.316 204.183 381.145 203.98Z" fill="#FFCC00"/>
<path fill-rule="evenodd" clip-rule="evenodd" d="M83.636 496.124C80.3744 495.817 77.5006 498.425 77.2159 501.944C76.9328 505.464 79.3465 508.565 82.6093 508.87C85.8705 509.176 88.7443 506.569 89.0263 503.05C89.3109 499.531 86.8946 496.43 83.636 496.124Z" fill="#FFCC00"/>
<path fill-rule="evenodd" clip-rule="evenodd" d="M782.61 26.6314C779.011 26.2942 775.841 29.1691 775.529 33.051C775.216 36.9353 777.881 40.3561 781.479 40.6944C785.077 41.0316 788.247 38.1563 788.561 34.2732C788.873 30.3901 786.208 26.9686 782.61 26.6314Z" fill="#FFCC00"/>
<path fill-rule="evenodd" clip-rule="evenodd" d="M239.574 284.061C237.506 283.867 235.687 285.518 235.506 287.748C235.328 289.979 236.858 291.944 238.924 292.139C240.991 292.332 242.811 290.68 242.99 288.451C243.17 286.221 241.64 284.255 239.574 284.061Z" fill="#FFCC00"/>
<path fill-rule="evenodd" clip-rule="evenodd" d="M93.1134 312.055C90.1924 311.781 87.6154 314.116 87.3621 317.269C87.1077 320.424 89.2719 323.203 92.1948 323.475C95.117 323.749 97.6929 321.414 97.9458 318.262C98.2021 315.107 96.0375 312.327 93.1134 312.055Z" fill="#FFCC00"/>
<path fill-rule="evenodd" clip-rule="evenodd" d="M499.013 315.983C496.62 315.758 494.512 317.67 494.304 320.252C494.095 322.835 495.867 325.109 498.261 325.334C500.653 325.559 502.762 323.647 502.97 321.063C503.179 318.482 501.406 316.207 499.013 315.983Z" fill="#FFCC00"/>
<path fill-rule="evenodd" clip-rule="evenodd" d="M135.778 142.048C133.389 141.826 131.283 143.734 131.075 146.312C130.868 148.892 132.636 151.164 135.028 151.389C137.417 151.612 139.523 149.704 139.73 147.124C139.937 144.545 138.169 142.272 135.778 142.048Z" fill="#FFCC00"/>
<path fill-rule="evenodd" clip-rule="evenodd" d="M740.611 47.8472C738.221 47.6212 736.115 49.5336 735.907 52.1118C735.701 54.6915 737.47 56.9619 739.858 57.1868C742.249 57.4117 744.356 55.5004 744.563 52.9223C744.772 50.343 743.001 48.0722 740.611 47.8472Z" fill="#FFCC00"/>
<path fill-rule="evenodd" clip-rule="evenodd" d="M499.922 470.872C497.532 470.645 495.427 472.557 495.22 475.134C495.011 477.714 496.781 479.986 499.17 480.209C501.561 480.436 503.667 478.523 503.874 475.945C504.083 473.366 502.311 471.095 499.922 470.872Z" fill="#FFCC00"/>
<path fill-rule="evenodd" clip-rule="evenodd" d="M318.43 506.331C316.039 506.104 313.934 508.017 313.725 510.595C313.52 513.175 315.288 515.445 317.677 515.67C320.067 515.895 322.175 513.984 322.381 511.406C322.59 508.826 320.819 506.555 318.43 506.331Z" fill="#FFCC00"/>
<path fill-rule="evenodd" clip-rule="evenodd" d="M306.408 104.249L305.198 112.002L298.016 113.201L305.16 114.376L306.181 122.13L307.391 114.376L314.611 113.178L307.429 112.002L306.408 104.249Z" fill="#FFCC00"/>
<path fill-rule="evenodd" clip-rule="evenodd" d="M266.451 76.3882C263.53 76.1134 260.953 78.4492 260.7 81.6012C260.446 84.7562 262.61 87.5359 265.533 87.8077C268.455 88.0821 271.031 85.7467 271.284 82.5943C271.54 79.4393 269.375 76.66 266.451 76.3882Z" fill="#FFCC00"/>
<path fill-rule="evenodd" clip-rule="evenodd" d="M507.671 212.853C505.279 212.628 503.171 214.54 502.962 217.122C502.754 219.705 504.525 221.979 506.919 222.204C509.311 222.429 511.42 220.517 511.628 217.934C511.837 215.352 510.064 213.077 507.671 212.853Z" fill="#FFCC00"/>
<path fill-rule="evenodd" clip-rule="evenodd" d="M725.226 255.634C721.626 255.297 718.456 258.172 718.144 262.054C717.832 265.938 720.496 269.359 724.094 269.697C727.693 270.035 730.863 267.159 731.176 263.276C731.488 259.393 728.823 255.972 725.226 255.634Z" fill="#FFCC00"/>
<path fill-rule="evenodd" clip-rule="evenodd" d="M393.959 493.175C393.364 493.119 392.841 493.595 392.789 494.236C392.738 494.878 393.178 495.442 393.772 495.498C394.367 495.554 394.89 495.079 394.942 494.438C394.994 493.796 394.553 493.231 393.959 493.175Z" fill="#FFCC00"/>
<path fill-rule="evenodd" clip-rule="evenodd" d="M165.049 223.374C162.879 223.171 160.968 224.906 160.779 227.247C160.589 229.589 162.197 231.652 164.366 231.857C166.537 232.058 168.449 230.326 168.637 227.983C168.826 225.64 167.22 223.576 165.049 223.374Z" fill="#FFCC00"/>
<path fill-rule="evenodd" clip-rule="evenodd" d="M231.974 508.372L230.877 515.63L224.148 516.651L230.84 517.861L231.822 525.119L232.919 517.861L239.648 516.84L232.919 515.668L231.974 508.372Z" fill="#FFCC00"/>
<path fill-rule="evenodd" clip-rule="evenodd" d="M428.55 113.556L427.454 120.795L420.725 121.834L427.416 123.018L428.399 130.28L429.495 123.037L436.224 122.001L429.495 120.818L428.55 113.556Z" fill="#FFCC00"/>
<path fill-rule="evenodd" clip-rule="evenodd" d="M254.543 213.239C253.337 213.125 252.277 214.089 252.17 215.388C252.067 216.689 252.96 217.833 254.163 217.947C255.368 218.058 256.43 217.097 256.533 215.797C256.638 214.497 255.746 213.352 254.543 213.239Z" fill="#FFCC00"/>
<path fill-rule="evenodd" clip-rule="evenodd" d="M381.711 140.279C379.541 140.076 377.63 141.811 377.441 144.152C377.252 146.494 378.859 148.558 381.028 148.762C383.199 148.963 385.112 147.231 385.299 144.888C385.488 142.545 383.882 140.482 381.711 140.279Z" fill="#FFCC00"/>
<path fill-rule="evenodd" clip-rule="evenodd" d="M556.701 367.651L555.643 374.773L549.027 375.794L555.605 376.955L556.55 384.115L557.646 376.977L564.262 375.957L557.646 374.792L556.701 367.651Z" fill="#FFCC00"/>
<path fill-rule="evenodd" clip-rule="evenodd" d="M412.106 421.578C409.936 421.375 408.024 423.11 407.835 425.451C407.646 427.793 409.254 429.857 411.422 430.061C413.593 430.262 415.506 428.53 415.694 426.187C415.883 423.844 414.277 421.781 412.106 421.578Z" fill="#FFCC00"/>
<path fill-rule="evenodd" clip-rule="evenodd" d="M524.682 57.2261C522.512 57.0234 520.601 58.7582 520.412 61.0997C520.222 63.4412 521.83 65.5049 523.998 65.7094C526.169 65.9105 528.082 64.1787 528.27 61.8357C528.459 59.4927 526.853 57.4287 524.682 57.2261Z" fill="#FFCC00"/>
<path fill-rule="evenodd" clip-rule="evenodd" d="M669.844 62.855C667.674 62.6523 665.763 64.3871 665.574 66.7286C665.384 69.0701 666.992 71.1342 669.161 71.3383C671.332 71.5394 673.244 69.8077 673.432 67.4646C673.622 65.1216 672.015 63.058 669.844 62.855Z" fill="#FFCC00"/>
<path fill-rule="evenodd" clip-rule="evenodd" d="M519.352 163.803C517.182 163.601 515.271 165.335 515.082 167.677C514.892 170.018 516.5 172.082 518.668 172.287C520.839 172.488 522.752 170.756 522.94 168.413C523.129 166.07 521.523 164.006 519.352 163.803Z" fill="#FFCC00"/>
<path fill-rule="evenodd" clip-rule="evenodd" d="M590.383 438.588C589.177 438.475 588.116 439.439 588.01 440.737C587.907 442.039 588.8 443.183 590.003 443.296C591.208 443.408 592.269 442.447 592.373 441.147C592.478 439.847 591.586 438.701 590.383 438.588Z" fill="#FFCC00"/>
<path fill-rule="evenodd" clip-rule="evenodd" d="M601.875 230.616C600.669 230.503 599.608 231.467 599.502 232.766C599.399 234.067 600.292 235.211 601.495 235.324C602.7 235.436 603.762 234.475 603.865 233.175C603.97 231.876 603.078 230.729 601.875 230.616Z" fill="#FFCC00"/>
<path fill-rule="evenodd" clip-rule="evenodd" d="M66.2855 397.988L64.7129 408.384L55.043 409.858L64.6827 411.559L66.0663 421.993L67.6389 411.597L77.3126 410.123L67.6691 408.422L66.2855 397.988Z" fill="#FFCC00"/>
<path fill-rule="evenodd" clip-rule="evenodd" d="M737.927 149.699L736.339 160.103L726.699 161.592L736.339 163.293L737.7 173.727L739.288 163.323L748.965 161.83L739.325 160.133L737.927 149.699Z" fill="#FFCC00"/>
<path fill-rule="evenodd" clip-rule="evenodd" d="M105.217 80.4517C103.047 80.2487 101.136 81.9835 100.947 84.3253C100.758 86.6669 102.365 88.7305 104.533 88.9347C106.705 89.1361 108.617 87.4044 108.805 85.0614C108.995 82.7183 107.388 80.6543 105.217 80.4517Z" fill="#FFCC00"/>
<path fill-rule="evenodd" clip-rule="evenodd" d="M288.377 366.748C286.207 366.545 284.296 368.28 284.107 370.621C283.918 372.963 285.525 375.026 287.694 375.231C289.865 375.432 291.778 373.7 291.965 371.357C292.154 369.014 290.549 366.95 288.377 366.748Z" fill="#FFCC00"/>
<path fill-rule="evenodd" clip-rule="evenodd" d="M582.33 63.2854C581.124 63.1723 580.064 64.1359 579.957 65.4345C579.854 66.736 580.747 67.8803 581.95 67.9937C583.155 68.1052 584.217 67.1443 584.32 65.8446C584.425 64.5446 583.533 63.3984 582.33 63.2854Z" fill="#FFCC00"/>
<path fill-rule="evenodd" clip-rule="evenodd" d="M384.584 97.7658C383.378 97.6528 382.318 98.6168 382.211 99.9149C382.108 101.216 383.001 102.361 384.204 102.474C385.409 102.586 386.471 101.625 386.574 100.325C386.679 99.0251 385.787 97.8793 384.584 97.7658Z" fill="#FFCC00"/>
<path fill-rule="evenodd" clip-rule="evenodd" d="M627.014 52.342C625.808 52.229 624.747 53.193 624.641 54.4911C624.537 55.7927 625.431 56.9373 626.634 57.0504C627.838 57.1619 628.9 56.2009 629.004 54.9013C629.109 53.6012 628.217 52.4554 627.014 52.342Z" fill="#FFCC00"/>
<path fill-rule="evenodd" clip-rule="evenodd" d="M820.791 115.212C819.585 115.099 818.525 116.063 818.418 117.361C818.315 118.662 819.208 119.807 820.411 119.92C821.616 120.032 822.678 119.071 822.781 117.771C822.886 116.471 821.994 115.325 820.791 115.212Z" fill="#FFCC00"/>
<path fill-rule="evenodd" clip-rule="evenodd" d="M6.09395 24.2112C4.88804 24.0981 3.82729 25.0617 3.72106 26.3603C3.61748 27.6614 4.51077 28.8061 5.71404 28.9191C6.91843 29.031 7.98069 28.0701 8.08389 26.77C8.18899 25.4704 7.29721 24.3242 6.09395 24.2112Z" fill="#FFCC00"/>
<path fill-rule="evenodd" clip-rule="evenodd" d="M418.002 530.525C416.495 530.384 415.167 531.589 415.036 533.216C414.904 534.843 416.021 536.276 417.528 536.418C419.036 536.558 420.365 535.355 420.495 533.727C420.627 532.099 419.511 530.666 418.002 530.525Z" fill="#FFCC00"/>
<path fill-rule="evenodd" clip-rule="evenodd" d="M238.288 369.235L236.738 379.654L227.061 381.128L236.7 382.829L238.061 393.263L239.649 382.867L249.326 381.355L239.687 379.654L238.288 369.235Z" fill="#FFCC00"/>
<path fill-rule="evenodd" clip-rule="evenodd" d="M762.537 189.8C760.367 189.598 758.456 191.332 758.267 193.674C758.078 196.015 759.685 198.079 761.854 198.284C764.025 198.485 765.938 196.753 766.126 194.41C766.315 192.067 764.708 190.003 762.537 189.8Z" fill="#FFCC00"/>
<path fill-rule="evenodd" clip-rule="evenodd" d="M577.756 465.995L576.698 473.102L570.082 474.123L576.66 475.295L577.605 482.439L578.701 475.332L585.317 474.312L578.701 473.14L577.756 465.995Z" fill="#FFCC00"/>
<path fill-rule="evenodd" clip-rule="evenodd" d="M655.026 414.735C653.82 414.622 652.759 415.586 652.653 416.884C652.549 418.185 653.442 419.33 654.646 419.443C655.85 419.554 656.912 418.594 657.016 417.294C657.121 415.994 656.229 414.848 655.026 414.735Z" fill="#FFCC00"/>
<path fill-rule="evenodd" clip-rule="evenodd" d="M479.356 483.045C478.042 482.922 476.886 483.972 476.771 485.387C476.658 486.804 477.631 488.051 478.942 488.174C480.254 488.296 481.411 487.249 481.524 485.833C481.638 484.417 480.667 483.168 479.356 483.045Z" fill="#FFCC00"/>
<path fill-rule="evenodd" clip-rule="evenodd" d="M495.158 507.957L494.364 513.401L489.336 514.157L494.326 515.026L495.044 520.47L495.876 515.064L500.904 514.27L495.914 513.401L495.158 507.957Z" fill="#FFCC00"/>
<path fill-rule="evenodd" clip-rule="evenodd" d="M619.227 531.13C617.913 531.006 616.757 532.057 616.642 533.471C616.529 534.889 617.502 536.136 618.813 536.259C620.125 536.381 621.282 535.334 621.395 533.918C621.509 532.501 620.538 531.253 619.227 531.13Z" fill="#FFCC00"/>
<path fill-rule="evenodd" clip-rule="evenodd" d="M597.075 480.474C596.56 480.425 596.107 480.837 596.062 481.391C596.018 481.947 596.399 482.436 596.913 482.484C597.428 482.532 597.881 482.121 597.925 481.566C597.97 481.011 597.589 480.522 597.075 480.474Z" fill="#FFCC00"/>
<path fill-rule="evenodd" clip-rule="evenodd" d="M552.882 462.744C552.367 462.696 551.914 463.107 551.869 463.662C551.824 464.218 552.206 464.706 552.72 464.754C553.235 464.802 553.688 464.392 553.732 463.837C553.777 463.281 553.396 462.792 552.882 462.744Z" fill="#FFCC00"/>
<path fill-rule="evenodd" clip-rule="evenodd" d="M597.452 493.516C596.937 493.467 596.484 493.879 596.439 494.433C596.395 494.989 596.776 495.478 597.29 495.526C597.805 495.574 598.258 495.163 598.302 494.608C598.347 494.053 597.966 493.564 597.452 493.516Z" fill="#FFCC00"/>
<path fill-rule="evenodd" clip-rule="evenodd" d="M4.85212 496.124C3.39369 495.988 2.11105 497.153 1.98252 498.723C1.85739 500.298 2.93741 501.681 4.39282 501.818C5.84974 501.953 7.1339 500.791 7.25902 499.219C7.38604 497.647 6.30753 496.261 4.85212 496.124Z" fill="#FFCC00"/>
<path fill-rule="evenodd" clip-rule="evenodd" d="M559.65 299.058C558.444 298.945 557.384 299.908 557.278 301.207C557.174 302.508 558.067 303.653 559.27 303.766C560.475 303.878 561.537 302.917 561.641 301.617C561.745 300.317 560.853 299.171 559.65 299.058Z" fill="#FFCC00"/>
<path fill-rule="evenodd" clip-rule="evenodd" d="M853.643 24.4971L852.509 31.8981L845.629 32.9589L852.509 34.1667L853.492 41.5904L854.588 34.1893L861.468 33.1282L854.626 31.9204L853.643 24.4971Z" fill="#FFCC00"/>
<path fill-rule="evenodd" clip-rule="evenodd" d="M122.328 196.113L121.25 203.232L114.631 204.252L121.227 205.413L122.176 212.554L123.254 205.435L129.869 204.415L123.273 203.25L122.328 196.113Z" fill="#FFCC00"/>
<path fill-rule="evenodd" clip-rule="evenodd" d="M534.548 97.4629L533.451 104.581L526.836 105.602L533.451 106.766L534.397 113.907L535.455 106.785L542.07 105.764L535.493 104.604L534.548 97.4629Z" fill="#FFCC00"/>
<path fill-rule="evenodd" clip-rule="evenodd" d="M370.938 50.9543C369.732 50.8413 368.671 51.8053 368.565 53.1034C368.462 54.405 369.354 55.5493 370.558 55.6627C371.762 55.7742 372.824 54.8132 372.928 53.5136C373.033 52.2135 372.141 51.0677 370.938 50.9543Z" fill="#FFCC00"/>
<path fill-rule="evenodd" clip-rule="evenodd" d="M441.629 16.8852C439.459 16.6826 437.548 18.4174 437.359 20.7589C437.17 23.1004 438.777 25.1641 440.946 25.3686C443.117 25.5697 445.029 23.8379 445.217 21.4949C445.406 19.1519 443.801 17.0879 441.629 16.8852Z" fill="#FFCC00"/>
<path fill-rule="evenodd" clip-rule="evenodd" d="M436.564 54.054C435.348 53.9402 434.276 54.9125 434.171 56.2246C434.064 57.5367 434.966 58.6935 436.181 58.8077C437.397 58.9207 438.469 57.9499 438.574 56.637C438.68 55.3241 437.78 54.1674 436.564 54.054Z" fill="#FFCC00"/>
<path fill-rule="evenodd" clip-rule="evenodd" d="M345.497 540.694C344.982 540.646 344.529 541.058 344.484 541.612C344.44 542.168 344.821 542.657 345.335 542.705C345.85 542.753 346.303 542.342 346.347 541.787C346.392 541.232 346.011 540.743 345.497 540.694Z" fill="#FFCC00"/>
<path fill-rule="evenodd" clip-rule="evenodd" d="M42.7217 591.312C42.2064 591.264 41.7539 591.676 41.7086 592.23C41.6643 592.786 42.0458 593.274 42.5599 593.323C43.0744 593.37 43.5277 592.96 43.5715 592.405C43.6165 591.85 43.2354 591.361 42.7217 591.312Z" fill="#FFCC00"/>
<path fill-rule="evenodd" clip-rule="evenodd" d="M99.9596 395.531C99.4447 395.483 98.9918 395.894 98.9468 396.449C98.9026 397.005 99.2841 397.493 99.7978 397.541C100.312 397.59 100.766 397.179 100.81 396.624C100.854 396.069 100.474 395.58 99.9596 395.531Z" fill="#FFCC00"/>
<path fill-rule="evenodd" clip-rule="evenodd" d="M164.663 302.639C164.148 302.59 163.695 303.002 163.65 303.556C163.606 304.112 163.987 304.601 164.501 304.649C165.016 304.697 165.469 304.286 165.513 303.731C165.558 303.176 165.177 302.687 164.663 302.639Z" fill="#FFCC00"/>
<path fill-rule="evenodd" clip-rule="evenodd" d="M251.745 297.659C251.23 297.611 250.777 298.022 250.732 298.577C250.688 299.133 251.069 299.621 251.583 299.669C252.098 299.717 252.551 299.307 252.595 298.752C252.64 298.196 252.259 297.708 251.745 297.659Z" fill="#FFCC00"/>
<path fill-rule="evenodd" clip-rule="evenodd" d="M308.979 378.936C308.464 378.887 308.011 379.299 307.966 379.853C307.922 380.409 308.304 380.897 308.817 380.946C309.332 380.993 309.785 380.583 309.829 380.028C309.874 379.473 309.493 378.984 308.979 378.936Z" fill="#FFCC00"/>
<path fill-rule="evenodd" clip-rule="evenodd" d="M283.272 422.9C282.757 422.852 282.304 423.263 282.259 423.818C282.215 424.374 282.597 424.862 283.11 424.911C283.625 424.958 284.078 424.548 284.122 423.993C284.167 423.438 283.786 422.948 283.272 422.9Z" fill="#FFCC00"/>
<path fill-rule="evenodd" clip-rule="evenodd" d="M192.864 397.194C192.349 397.146 191.896 397.558 191.851 398.112C191.807 398.668 192.188 399.156 192.702 399.205C193.217 399.252 193.67 398.842 193.714 398.287C193.759 397.731 193.378 397.243 192.864 397.194Z" fill="#FFCC00"/>
<path fill-rule="evenodd" clip-rule="evenodd" d="M37.2677 628.736C35.954 628.613 34.7984 629.663 34.6827 631.078C34.57 632.495 35.5431 633.743 36.8541 633.866C38.1662 633.987 39.323 632.94 39.436 631.524C39.5502 630.108 38.5787 628.86 37.2677 628.736Z" fill="#FFCC00"/>
<path fill-rule="evenodd" clip-rule="evenodd" d="M51.9493 682.228C50.6356 682.104 49.48 683.154 49.3643 684.569C49.2517 685.986 50.2247 687.233 51.5357 687.357C52.8479 687.478 54.005 686.431 54.1177 685.015C54.2318 683.599 53.2603 682.351 51.9493 682.228Z" fill="#FFCC00"/>
<path fill-rule="evenodd" clip-rule="evenodd" d="M97.9903 656.938C96.6763 656.814 95.521 657.864 95.4054 659.279C95.2927 660.697 96.2658 661.943 97.5764 662.067C98.8889 662.188 100.046 661.142 100.158 659.726C100.272 658.309 99.301 657.061 97.9903 656.938Z" fill="#FFCC00"/>
<path fill-rule="evenodd" clip-rule="evenodd" d="M155.236 520.507C153.229 520.319 151.464 521.922 151.287 524.083C151.115 526.249 152.601 528.153 154.603 528.341C156.608 528.527 158.375 526.929 158.547 524.766C158.721 522.602 157.238 520.695 155.236 520.507Z" fill="#FFCC00"/>
<path fill-rule="evenodd" clip-rule="evenodd" d="M125.602 597.7C124.288 597.577 123.132 598.627 123.017 600.041C122.904 601.459 123.877 602.706 125.188 602.829C126.5 602.951 127.657 601.904 127.77 600.488C127.884 599.072 126.913 597.823 125.602 597.7Z" fill="#FFCC00"/>
<path fill-rule="evenodd" clip-rule="evenodd" d="M270.986 608.626C269.673 608.503 268.518 609.553 268.401 610.968C268.289 612.385 269.262 613.632 270.573 613.756C271.885 613.877 273.042 612.83 273.155 611.414C273.269 609.998 272.297 608.75 270.986 608.626Z" fill="#FFCC00"/>
<path fill-rule="evenodd" clip-rule="evenodd" d="M136.689 872.679C135.376 872.556 134.22 873.606 134.105 875.02C133.992 876.438 134.965 877.685 136.276 877.808C137.588 877.93 138.745 876.883 138.858 875.467C138.972 874.051 138 872.802 136.689 872.679Z" fill="#FFCC00"/>
<path fill-rule="evenodd" clip-rule="evenodd" d="M89.2385 809.472C88.4238 809.396 87.7078 810.047 87.6364 810.923C87.5664 811.802 88.1694 812.575 88.9822 812.651C89.7957 812.727 90.5128 812.078 90.5827 811.2C90.6534 810.322 90.0512 809.548 89.2385 809.472Z" fill="#FFCC00"/>
<path fill-rule="evenodd" clip-rule="evenodd" d="M38.3897 785.996L37.2707 793.405L30.3906 794.464L37.2481 795.674L38.2309 803.083L39.3537 795.674L46.23 794.615L39.3726 793.405L38.3897 785.996Z" fill="#FFCC00"/>
<path fill-rule="evenodd" clip-rule="evenodd" d="M505.251 882.545L504.116 889.954L497.236 891.013L504.116 892.222L505.099 899.632L506.196 892.222L513.076 891.164L506.233 889.954L505.251 882.545Z" fill="#FFCC00"/>
<path fill-rule="evenodd" clip-rule="evenodd" d="M566.832 829.81C565.518 829.686 564.363 830.736 564.247 832.151C564.135 833.568 565.108 834.815 566.418 834.939C567.731 835.06 568.887 834.014 569 832.597C569.114 831.181 568.143 829.933 566.832 829.81Z" fill="#FFCC00"/>
<path fill-rule="evenodd" clip-rule="evenodd" d="M116.826 911.993C115.513 911.87 114.357 912.92 114.241 914.334C114.129 915.752 115.102 916.999 116.412 917.122C117.725 917.244 118.882 916.197 118.995 914.781C119.109 913.365 118.137 912.116 116.826 911.993Z" fill="#FFCC00"/>
<path fill-rule="evenodd" clip-rule="evenodd" d="M629.547 776.055C628.233 775.932 627.078 776.982 626.962 778.396C626.849 779.814 627.822 781.061 629.133 781.184C630.446 781.306 631.602 780.259 631.715 778.843C631.83 777.427 630.858 776.178 629.547 776.055Z" fill="#FFCC00"/>
<path fill-rule="evenodd" clip-rule="evenodd" d="M496.141 937.321C494.827 937.198 493.671 938.248 493.556 939.663C493.443 941.08 494.416 942.328 495.727 942.451C497.039 942.572 498.196 941.525 498.309 940.109C498.423 938.693 497.452 937.445 496.141 937.321Z" fill="#FFCC00"/>
<path fill-rule="evenodd" clip-rule="evenodd" d="M228.496 964.161L227.4 971.57L220.52 972.629L227.362 973.839L228.345 981.248L229.479 973.876L236.359 972.818L229.479 971.608L228.496 964.161Z" fill="#FFCC00"/>
<path fill-rule="evenodd" clip-rule="evenodd" d="M324.402 973.801L323.268 981.21L316.426 982.269L323.268 983.478L324.251 990.888L325.385 983.478L332.265 982.42L325.385 981.21L324.402 973.801Z" fill="#FFCC00"/>
<path fill-rule="evenodd" clip-rule="evenodd" d="M239.156 662.948C237.842 662.825 236.687 663.875 236.571 665.289C236.458 666.707 237.431 667.954 238.742 668.077C240.055 668.199 241.212 667.152 241.324 665.736C241.439 664.32 240.467 663.072 239.156 662.948Z" fill="#FFCC00"/>
<path fill-rule="evenodd" clip-rule="evenodd" d="M2.59385 728.688C1.2802 728.564 0.124551 729.614 0.00887397 731.029C-0.103779 732.447 0.869273 733.694 2.1799 733.817C3.49241 733.939 4.64917 732.892 4.76182 731.476C4.87637 730.059 3.90485 728.811 2.59385 728.688Z" fill="#FFCC00"/>
</svg>
